M48
;GenerationSoftware,Autodesk,EAGLE,9.2.0*%
;CreationDate,2019-01-21T21:53:14Z*%
FMAT,2
ICI,OFF
METRIC,TZ,000.000
T3C0.350
T2C1.016
T1C2.000
%
G90
M71
T1
X55880Y45720
T2
X64770Y11430
X67310Y19050
X67310Y16510
X67310Y13970
X67310Y34290
X67310Y11430
X64770Y8890
X67310Y8890
X64770Y31750
X67310Y31750
X64770Y29210
X64770Y26670
X64770Y24130
X64770Y21590
X64770Y34290
X64770Y16510
X64770Y13970
X64770Y19050
X67310Y29210
X67310Y26670
X67310Y24130
X67310Y21590
T3
X59214Y7302
X58579Y40799
X45085Y11906
X36671Y34766
X52546Y35243
X52546Y39211
X52546Y34131
X53340Y40005
X58102Y22542
X46196Y25876
X45244Y26670
X46196Y23336
X59214Y23336
X63182Y37306
M30