G04 EAGLE Gerber RS-274X export*
G75*
%MOMM*%
%FSLAX34Y34*%
%LPD*%
%IN*%
%IPPOS*%
%AMOC8*
5,1,8,0,0,1.08239X$1,22.5*%
G01*
%ADD10C,0.254000*%


D10*
X0Y0D02*
X761800Y0D01*
X761800Y432000D01*
X638300Y542800D01*
X0Y542800D01*
X0Y0D01*
X568800Y456763D02*
X568724Y455894D01*
X568572Y455034D01*
X568346Y454190D01*
X568048Y453370D01*
X567679Y452578D01*
X567242Y451822D01*
X566741Y451107D01*
X566180Y450438D01*
X565562Y449820D01*
X564893Y449259D01*
X564178Y448758D01*
X563422Y448321D01*
X562630Y447952D01*
X561810Y447654D01*
X560966Y447428D01*
X560107Y447276D01*
X559237Y447200D01*
X558363Y447200D01*
X557494Y447276D01*
X556634Y447428D01*
X555790Y447654D01*
X554970Y447952D01*
X554178Y448321D01*
X553422Y448758D01*
X552707Y449259D01*
X552038Y449820D01*
X551420Y450438D01*
X550859Y451107D01*
X550358Y451822D01*
X549921Y452578D01*
X549552Y453370D01*
X549254Y454190D01*
X549028Y455034D01*
X548876Y455894D01*
X548800Y456763D01*
X548800Y457637D01*
X548876Y458507D01*
X549028Y459366D01*
X549254Y460210D01*
X549552Y461030D01*
X549921Y461822D01*
X550358Y462578D01*
X550859Y463293D01*
X551420Y463962D01*
X552038Y464580D01*
X552707Y465141D01*
X553422Y465642D01*
X554178Y466079D01*
X554970Y466448D01*
X555790Y466746D01*
X556634Y466972D01*
X557494Y467124D01*
X558363Y467200D01*
X559237Y467200D01*
X560107Y467124D01*
X560966Y466972D01*
X561810Y466746D01*
X562630Y466448D01*
X563422Y466079D01*
X564178Y465642D01*
X564893Y465141D01*
X565562Y464580D01*
X566180Y463962D01*
X566741Y463293D01*
X567242Y462578D01*
X567679Y461822D01*
X568048Y461030D01*
X568346Y460210D01*
X568572Y459366D01*
X568724Y458507D01*
X568800Y457637D01*
X568800Y456763D01*
M02*
