G04 EAGLE Gerber RS-274X export*
G75*
%MOMM*%
%FSLAX34Y34*%
%LPD*%
%INSilkscreen Top*%
%IPPOS*%
%AMOC8*
5,1,8,0,0,1.08239X$1,22.5*%
G01*
%ADD10C,0.152400*%
%ADD11C,0.127000*%
%ADD12C,0.101600*%
%ADD13C,0.025400*%
%ADD14C,0.001000*%
%ADD15C,0.076200*%


D10*
X153162Y470662D02*
X153162Y486918D01*
X160387Y486918D01*
X160387Y479693D02*
X153162Y479693D01*
X167548Y486918D02*
X167548Y470662D01*
X169354Y470662D02*
X165741Y470662D01*
X165741Y486918D02*
X169354Y486918D01*
X176150Y486918D02*
X176150Y470662D01*
X176150Y486918D02*
X180665Y486918D01*
X180798Y486916D01*
X180930Y486910D01*
X181062Y486900D01*
X181194Y486887D01*
X181326Y486869D01*
X181456Y486848D01*
X181587Y486823D01*
X181716Y486794D01*
X181844Y486761D01*
X181972Y486725D01*
X182098Y486685D01*
X182223Y486641D01*
X182347Y486593D01*
X182469Y486542D01*
X182590Y486487D01*
X182709Y486429D01*
X182827Y486367D01*
X182942Y486302D01*
X183056Y486233D01*
X183167Y486162D01*
X183276Y486086D01*
X183383Y486008D01*
X183488Y485927D01*
X183590Y485842D01*
X183690Y485755D01*
X183787Y485665D01*
X183882Y485572D01*
X183973Y485476D01*
X184062Y485378D01*
X184148Y485277D01*
X184231Y485173D01*
X184311Y485067D01*
X184387Y484959D01*
X184461Y484849D01*
X184531Y484736D01*
X184598Y484622D01*
X184661Y484505D01*
X184721Y484387D01*
X184778Y484267D01*
X184831Y484145D01*
X184880Y484022D01*
X184926Y483898D01*
X184968Y483772D01*
X185006Y483645D01*
X185041Y483517D01*
X185072Y483388D01*
X185099Y483259D01*
X185122Y483128D01*
X185142Y482997D01*
X185157Y482865D01*
X185169Y482733D01*
X185177Y482601D01*
X185181Y482468D01*
X185181Y482336D01*
X185177Y482203D01*
X185169Y482071D01*
X185157Y481939D01*
X185142Y481807D01*
X185122Y481676D01*
X185099Y481545D01*
X185072Y481416D01*
X185041Y481287D01*
X185006Y481159D01*
X184968Y481032D01*
X184926Y480906D01*
X184880Y480782D01*
X184831Y480659D01*
X184778Y480537D01*
X184721Y480417D01*
X184661Y480299D01*
X184598Y480182D01*
X184531Y480068D01*
X184461Y479955D01*
X184387Y479845D01*
X184311Y479737D01*
X184231Y479631D01*
X184148Y479527D01*
X184062Y479426D01*
X183973Y479328D01*
X183882Y479232D01*
X183787Y479139D01*
X183690Y479049D01*
X183590Y478962D01*
X183488Y478877D01*
X183383Y478796D01*
X183276Y478718D01*
X183167Y478642D01*
X183056Y478571D01*
X182942Y478502D01*
X182827Y478437D01*
X182709Y478375D01*
X182590Y478317D01*
X182469Y478262D01*
X182347Y478211D01*
X182223Y478163D01*
X182098Y478119D01*
X181972Y478079D01*
X181844Y478043D01*
X181716Y478010D01*
X181587Y477981D01*
X181456Y477956D01*
X181326Y477935D01*
X181194Y477917D01*
X181062Y477904D01*
X180930Y477894D01*
X180798Y477888D01*
X180665Y477886D01*
X180665Y477887D02*
X176150Y477887D01*
X181568Y477887D02*
X185181Y470662D01*
X192240Y470662D02*
X199465Y470662D01*
X192240Y470662D02*
X192240Y486918D01*
X199465Y486918D01*
X197659Y479693D02*
X192240Y479693D01*
X205787Y486918D02*
X205787Y470662D01*
X205787Y486918D02*
X213012Y486918D01*
X213012Y479693D02*
X205787Y479693D01*
X219334Y486918D02*
X219334Y470662D01*
X226559Y470662D01*
X236846Y479242D02*
X231427Y486918D01*
X236846Y479242D02*
X242265Y486918D01*
X236846Y479242D02*
X236846Y470662D01*
X260814Y470662D02*
X255395Y486918D01*
X266232Y486918D02*
X260814Y470662D01*
X271930Y483306D02*
X276445Y486918D01*
X276445Y470662D01*
X271930Y470662D02*
X280961Y470662D01*
X635000Y349250D02*
X635000Y336550D01*
X635000Y349250D02*
X641350Y355600D01*
X654050Y355600D01*
X660400Y349250D01*
X654050Y330200D02*
X641350Y330200D01*
X635000Y336550D01*
X654050Y330200D02*
X660400Y336550D01*
X660400Y349250D01*
D11*
X626237Y333883D02*
X617347Y333883D01*
X626237Y333883D02*
X626337Y333881D01*
X626436Y333875D01*
X626536Y333865D01*
X626634Y333852D01*
X626733Y333834D01*
X626830Y333813D01*
X626926Y333788D01*
X627022Y333759D01*
X627116Y333726D01*
X627209Y333690D01*
X627300Y333650D01*
X627390Y333606D01*
X627478Y333559D01*
X627564Y333509D01*
X627648Y333455D01*
X627730Y333398D01*
X627809Y333338D01*
X627887Y333274D01*
X627961Y333208D01*
X628033Y333139D01*
X628102Y333067D01*
X628168Y332993D01*
X628232Y332915D01*
X628292Y332836D01*
X628349Y332754D01*
X628403Y332670D01*
X628453Y332584D01*
X628500Y332496D01*
X628544Y332406D01*
X628584Y332315D01*
X628620Y332222D01*
X628653Y332128D01*
X628682Y332032D01*
X628707Y331936D01*
X628728Y331839D01*
X628746Y331740D01*
X628759Y331642D01*
X628769Y331542D01*
X628775Y331443D01*
X628777Y331343D01*
X628777Y330073D01*
X628777Y339863D02*
X617347Y339863D01*
X617347Y343038D01*
X617349Y343149D01*
X617355Y343259D01*
X617364Y343370D01*
X617378Y343480D01*
X617395Y343589D01*
X617416Y343698D01*
X617441Y343806D01*
X617470Y343913D01*
X617502Y344019D01*
X617538Y344124D01*
X617578Y344227D01*
X617621Y344329D01*
X617668Y344430D01*
X617719Y344529D01*
X617772Y344626D01*
X617829Y344720D01*
X617890Y344813D01*
X617953Y344904D01*
X618020Y344993D01*
X618090Y345079D01*
X618163Y345162D01*
X618238Y345244D01*
X618316Y345322D01*
X618398Y345397D01*
X618481Y345470D01*
X618567Y345540D01*
X618656Y345607D01*
X618747Y345670D01*
X618840Y345731D01*
X618935Y345788D01*
X619031Y345841D01*
X619130Y345892D01*
X619231Y345939D01*
X619333Y345982D01*
X619436Y346022D01*
X619541Y346058D01*
X619647Y346090D01*
X619754Y346119D01*
X619862Y346144D01*
X619971Y346165D01*
X620080Y346182D01*
X620190Y346196D01*
X620301Y346205D01*
X620411Y346211D01*
X620522Y346213D01*
X620633Y346211D01*
X620743Y346205D01*
X620854Y346196D01*
X620964Y346182D01*
X621073Y346165D01*
X621182Y346144D01*
X621290Y346119D01*
X621397Y346090D01*
X621503Y346058D01*
X621608Y346022D01*
X621711Y345982D01*
X621813Y345939D01*
X621914Y345892D01*
X622013Y345841D01*
X622110Y345788D01*
X622204Y345731D01*
X622297Y345670D01*
X622388Y345607D01*
X622477Y345540D01*
X622563Y345470D01*
X622646Y345397D01*
X622728Y345322D01*
X622806Y345244D01*
X622881Y345162D01*
X622954Y345079D01*
X623024Y344993D01*
X623091Y344904D01*
X623154Y344813D01*
X623215Y344720D01*
X623272Y344626D01*
X623325Y344529D01*
X623376Y344430D01*
X623423Y344329D01*
X623466Y344227D01*
X623506Y344124D01*
X623542Y344019D01*
X623574Y343913D01*
X623603Y343806D01*
X623628Y343698D01*
X623649Y343589D01*
X623666Y343480D01*
X623680Y343370D01*
X623689Y343259D01*
X623695Y343149D01*
X623697Y343038D01*
X623697Y339863D01*
X619887Y350722D02*
X617347Y353897D01*
X628777Y353897D01*
X628777Y350722D02*
X628777Y357072D01*
D10*
X635000Y171450D02*
X635000Y158750D01*
X635000Y171450D02*
X641350Y177800D01*
X654050Y177800D01*
X660400Y171450D01*
X654050Y152400D02*
X641350Y152400D01*
X635000Y158750D01*
X654050Y152400D02*
X660400Y158750D01*
X660400Y171450D01*
D11*
X626237Y156083D02*
X617347Y156083D01*
X626237Y156083D02*
X626337Y156081D01*
X626436Y156075D01*
X626536Y156065D01*
X626634Y156052D01*
X626733Y156034D01*
X626830Y156013D01*
X626926Y155988D01*
X627022Y155959D01*
X627116Y155926D01*
X627209Y155890D01*
X627300Y155850D01*
X627390Y155806D01*
X627478Y155759D01*
X627564Y155709D01*
X627648Y155655D01*
X627730Y155598D01*
X627809Y155538D01*
X627887Y155474D01*
X627961Y155408D01*
X628033Y155339D01*
X628102Y155267D01*
X628168Y155193D01*
X628232Y155115D01*
X628292Y155036D01*
X628349Y154954D01*
X628403Y154870D01*
X628453Y154784D01*
X628500Y154696D01*
X628544Y154606D01*
X628584Y154515D01*
X628620Y154422D01*
X628653Y154328D01*
X628682Y154232D01*
X628707Y154136D01*
X628728Y154039D01*
X628746Y153940D01*
X628759Y153842D01*
X628769Y153742D01*
X628775Y153643D01*
X628777Y153543D01*
X628777Y152273D01*
X628777Y162063D02*
X617347Y162063D01*
X617347Y165238D01*
X617349Y165349D01*
X617355Y165459D01*
X617364Y165570D01*
X617378Y165680D01*
X617395Y165789D01*
X617416Y165898D01*
X617441Y166006D01*
X617470Y166113D01*
X617502Y166219D01*
X617538Y166324D01*
X617578Y166427D01*
X617621Y166529D01*
X617668Y166630D01*
X617719Y166729D01*
X617772Y166826D01*
X617829Y166920D01*
X617890Y167013D01*
X617953Y167104D01*
X618020Y167193D01*
X618090Y167279D01*
X618163Y167362D01*
X618238Y167444D01*
X618316Y167522D01*
X618398Y167597D01*
X618481Y167670D01*
X618567Y167740D01*
X618656Y167807D01*
X618747Y167870D01*
X618840Y167931D01*
X618935Y167988D01*
X619031Y168041D01*
X619130Y168092D01*
X619231Y168139D01*
X619333Y168182D01*
X619436Y168222D01*
X619541Y168258D01*
X619647Y168290D01*
X619754Y168319D01*
X619862Y168344D01*
X619971Y168365D01*
X620080Y168382D01*
X620190Y168396D01*
X620301Y168405D01*
X620411Y168411D01*
X620522Y168413D01*
X620633Y168411D01*
X620743Y168405D01*
X620854Y168396D01*
X620964Y168382D01*
X621073Y168365D01*
X621182Y168344D01*
X621290Y168319D01*
X621397Y168290D01*
X621503Y168258D01*
X621608Y168222D01*
X621711Y168182D01*
X621813Y168139D01*
X621914Y168092D01*
X622013Y168041D01*
X622110Y167988D01*
X622204Y167931D01*
X622297Y167870D01*
X622388Y167807D01*
X622477Y167740D01*
X622563Y167670D01*
X622646Y167597D01*
X622728Y167522D01*
X622806Y167444D01*
X622881Y167362D01*
X622954Y167279D01*
X623024Y167193D01*
X623091Y167104D01*
X623154Y167013D01*
X623215Y166920D01*
X623272Y166826D01*
X623325Y166729D01*
X623376Y166630D01*
X623423Y166529D01*
X623466Y166427D01*
X623506Y166324D01*
X623542Y166219D01*
X623574Y166113D01*
X623603Y166006D01*
X623628Y165898D01*
X623649Y165789D01*
X623666Y165680D01*
X623680Y165570D01*
X623689Y165459D01*
X623695Y165349D01*
X623697Y165238D01*
X623697Y162063D01*
X619887Y172922D02*
X617347Y176097D01*
X628777Y176097D01*
X628777Y172922D02*
X628777Y179272D01*
X623062Y184352D02*
X622837Y184355D01*
X622612Y184363D01*
X622388Y184376D01*
X622164Y184395D01*
X621940Y184419D01*
X621717Y184448D01*
X621495Y184483D01*
X621274Y184523D01*
X621054Y184569D01*
X620835Y184619D01*
X620617Y184675D01*
X620400Y184736D01*
X620185Y184802D01*
X619972Y184873D01*
X619761Y184950D01*
X619551Y185031D01*
X619343Y185117D01*
X619138Y185208D01*
X618935Y185304D01*
X618847Y185336D01*
X618760Y185372D01*
X618674Y185411D01*
X618590Y185454D01*
X618508Y185500D01*
X618428Y185549D01*
X618350Y185601D01*
X618274Y185657D01*
X618200Y185715D01*
X618129Y185777D01*
X618060Y185841D01*
X617994Y185908D01*
X617931Y185977D01*
X617870Y186049D01*
X617812Y186123D01*
X617758Y186200D01*
X617706Y186278D01*
X617658Y186359D01*
X617613Y186441D01*
X617571Y186526D01*
X617533Y186612D01*
X617498Y186699D01*
X617466Y186787D01*
X617439Y186877D01*
X617414Y186968D01*
X617394Y187060D01*
X617377Y187152D01*
X617364Y187246D01*
X617355Y187339D01*
X617349Y187433D01*
X617347Y187527D01*
X617349Y187621D01*
X617355Y187715D01*
X617364Y187808D01*
X617377Y187902D01*
X617394Y187994D01*
X617414Y188086D01*
X617439Y188177D01*
X617466Y188267D01*
X617498Y188355D01*
X617533Y188442D01*
X617571Y188528D01*
X617613Y188613D01*
X617658Y188695D01*
X617706Y188776D01*
X617758Y188854D01*
X617812Y188931D01*
X617870Y189005D01*
X617931Y189077D01*
X617994Y189146D01*
X618060Y189213D01*
X618129Y189277D01*
X618200Y189339D01*
X618274Y189397D01*
X618350Y189453D01*
X618428Y189505D01*
X618508Y189554D01*
X618590Y189600D01*
X618674Y189643D01*
X618760Y189682D01*
X618847Y189718D01*
X618935Y189750D01*
X619138Y189846D01*
X619343Y189937D01*
X619551Y190023D01*
X619761Y190104D01*
X619972Y190181D01*
X620185Y190252D01*
X620400Y190318D01*
X620617Y190379D01*
X620835Y190435D01*
X621054Y190485D01*
X621274Y190531D01*
X621495Y190571D01*
X621717Y190606D01*
X621940Y190635D01*
X622164Y190659D01*
X622388Y190678D01*
X622612Y190691D01*
X622837Y190699D01*
X623062Y190702D01*
X623062Y184352D02*
X623287Y184355D01*
X623512Y184363D01*
X623736Y184376D01*
X623960Y184395D01*
X624184Y184419D01*
X624407Y184448D01*
X624629Y184483D01*
X624850Y184523D01*
X625070Y184569D01*
X625289Y184619D01*
X625507Y184675D01*
X625724Y184736D01*
X625939Y184802D01*
X626152Y184873D01*
X626363Y184950D01*
X626573Y185031D01*
X626781Y185117D01*
X626986Y185208D01*
X627189Y185304D01*
X627190Y185304D02*
X627278Y185336D01*
X627365Y185372D01*
X627451Y185411D01*
X627535Y185454D01*
X627617Y185500D01*
X627697Y185549D01*
X627775Y185601D01*
X627851Y185657D01*
X627925Y185715D01*
X627996Y185777D01*
X628065Y185841D01*
X628131Y185908D01*
X628194Y185977D01*
X628255Y186049D01*
X628313Y186123D01*
X628367Y186200D01*
X628419Y186278D01*
X628467Y186359D01*
X628512Y186441D01*
X628554Y186526D01*
X628592Y186612D01*
X628627Y186699D01*
X628659Y186787D01*
X628686Y186877D01*
X628711Y186968D01*
X628731Y187060D01*
X628748Y187152D01*
X628761Y187246D01*
X628770Y187339D01*
X628776Y187433D01*
X628778Y187527D01*
X627189Y189750D02*
X626986Y189846D01*
X626781Y189937D01*
X626573Y190023D01*
X626363Y190104D01*
X626152Y190181D01*
X625939Y190252D01*
X625724Y190318D01*
X625507Y190379D01*
X625289Y190435D01*
X625070Y190485D01*
X624850Y190531D01*
X624629Y190571D01*
X624407Y190606D01*
X624184Y190635D01*
X623960Y190659D01*
X623736Y190678D01*
X623512Y190691D01*
X623287Y190699D01*
X623062Y190702D01*
X627190Y189750D02*
X627278Y189718D01*
X627365Y189682D01*
X627451Y189643D01*
X627535Y189600D01*
X627617Y189554D01*
X627697Y189505D01*
X627775Y189453D01*
X627851Y189397D01*
X627925Y189339D01*
X627996Y189277D01*
X628065Y189213D01*
X628131Y189146D01*
X628194Y189077D01*
X628255Y189005D01*
X628313Y188931D01*
X628367Y188854D01*
X628419Y188776D01*
X628467Y188695D01*
X628512Y188613D01*
X628554Y188528D01*
X628592Y188442D01*
X628627Y188355D01*
X628659Y188267D01*
X628686Y188177D01*
X628711Y188086D01*
X628731Y187994D01*
X628748Y187902D01*
X628761Y187808D01*
X628770Y187715D01*
X628776Y187621D01*
X628778Y187527D01*
X626237Y184987D02*
X619887Y190067D01*
D10*
X635000Y146050D02*
X635000Y133350D01*
X635000Y146050D02*
X641350Y152400D01*
X654050Y152400D01*
X660400Y146050D01*
X654050Y127000D02*
X641350Y127000D01*
X635000Y133350D01*
X654050Y127000D02*
X660400Y133350D01*
X660400Y146050D01*
D11*
X626237Y130683D02*
X617347Y130683D01*
X626237Y130683D02*
X626337Y130681D01*
X626436Y130675D01*
X626536Y130665D01*
X626634Y130652D01*
X626733Y130634D01*
X626830Y130613D01*
X626926Y130588D01*
X627022Y130559D01*
X627116Y130526D01*
X627209Y130490D01*
X627300Y130450D01*
X627390Y130406D01*
X627478Y130359D01*
X627564Y130309D01*
X627648Y130255D01*
X627730Y130198D01*
X627809Y130138D01*
X627887Y130074D01*
X627961Y130008D01*
X628033Y129939D01*
X628102Y129867D01*
X628168Y129793D01*
X628232Y129715D01*
X628292Y129636D01*
X628349Y129554D01*
X628403Y129470D01*
X628453Y129384D01*
X628500Y129296D01*
X628544Y129206D01*
X628584Y129115D01*
X628620Y129022D01*
X628653Y128928D01*
X628682Y128832D01*
X628707Y128736D01*
X628728Y128639D01*
X628746Y128540D01*
X628759Y128442D01*
X628769Y128342D01*
X628775Y128243D01*
X628777Y128143D01*
X628777Y126873D01*
X628777Y136663D02*
X617347Y136663D01*
X617347Y139838D01*
X617349Y139949D01*
X617355Y140059D01*
X617364Y140170D01*
X617378Y140280D01*
X617395Y140389D01*
X617416Y140498D01*
X617441Y140606D01*
X617470Y140713D01*
X617502Y140819D01*
X617538Y140924D01*
X617578Y141027D01*
X617621Y141129D01*
X617668Y141230D01*
X617719Y141329D01*
X617772Y141426D01*
X617829Y141520D01*
X617890Y141613D01*
X617953Y141704D01*
X618020Y141793D01*
X618090Y141879D01*
X618163Y141962D01*
X618238Y142044D01*
X618316Y142122D01*
X618398Y142197D01*
X618481Y142270D01*
X618567Y142340D01*
X618656Y142407D01*
X618747Y142470D01*
X618840Y142531D01*
X618935Y142588D01*
X619031Y142641D01*
X619130Y142692D01*
X619231Y142739D01*
X619333Y142782D01*
X619436Y142822D01*
X619541Y142858D01*
X619647Y142890D01*
X619754Y142919D01*
X619862Y142944D01*
X619971Y142965D01*
X620080Y142982D01*
X620190Y142996D01*
X620301Y143005D01*
X620411Y143011D01*
X620522Y143013D01*
X620633Y143011D01*
X620743Y143005D01*
X620854Y142996D01*
X620964Y142982D01*
X621073Y142965D01*
X621182Y142944D01*
X621290Y142919D01*
X621397Y142890D01*
X621503Y142858D01*
X621608Y142822D01*
X621711Y142782D01*
X621813Y142739D01*
X621914Y142692D01*
X622013Y142641D01*
X622110Y142588D01*
X622204Y142531D01*
X622297Y142470D01*
X622388Y142407D01*
X622477Y142340D01*
X622563Y142270D01*
X622646Y142197D01*
X622728Y142122D01*
X622806Y142044D01*
X622881Y141962D01*
X622954Y141879D01*
X623024Y141793D01*
X623091Y141704D01*
X623154Y141613D01*
X623215Y141520D01*
X623272Y141426D01*
X623325Y141329D01*
X623376Y141230D01*
X623423Y141129D01*
X623466Y141027D01*
X623506Y140924D01*
X623542Y140819D01*
X623574Y140713D01*
X623603Y140606D01*
X623628Y140498D01*
X623649Y140389D01*
X623666Y140280D01*
X623680Y140170D01*
X623689Y140059D01*
X623695Y139949D01*
X623697Y139838D01*
X623697Y136663D01*
X619887Y147522D02*
X617347Y150697D01*
X628777Y150697D01*
X628777Y147522D02*
X628777Y153872D01*
X619887Y158952D02*
X617347Y162127D01*
X628777Y162127D01*
X628777Y158952D02*
X628777Y165302D01*
D10*
X635000Y120650D02*
X635000Y107950D01*
X635000Y120650D02*
X641350Y127000D01*
X654050Y127000D01*
X660400Y120650D01*
X654050Y101600D02*
X641350Y101600D01*
X635000Y107950D01*
X654050Y101600D02*
X660400Y107950D01*
X660400Y120650D01*
D11*
X626237Y105283D02*
X617347Y105283D01*
X626237Y105283D02*
X626337Y105281D01*
X626436Y105275D01*
X626536Y105265D01*
X626634Y105252D01*
X626733Y105234D01*
X626830Y105213D01*
X626926Y105188D01*
X627022Y105159D01*
X627116Y105126D01*
X627209Y105090D01*
X627300Y105050D01*
X627390Y105006D01*
X627478Y104959D01*
X627564Y104909D01*
X627648Y104855D01*
X627730Y104798D01*
X627809Y104738D01*
X627887Y104674D01*
X627961Y104608D01*
X628033Y104539D01*
X628102Y104467D01*
X628168Y104393D01*
X628232Y104315D01*
X628292Y104236D01*
X628349Y104154D01*
X628403Y104070D01*
X628453Y103984D01*
X628500Y103896D01*
X628544Y103806D01*
X628584Y103715D01*
X628620Y103622D01*
X628653Y103528D01*
X628682Y103432D01*
X628707Y103336D01*
X628728Y103239D01*
X628746Y103140D01*
X628759Y103042D01*
X628769Y102942D01*
X628775Y102843D01*
X628777Y102743D01*
X628777Y101473D01*
X628777Y111263D02*
X617347Y111263D01*
X617347Y114438D01*
X617349Y114549D01*
X617355Y114659D01*
X617364Y114770D01*
X617378Y114880D01*
X617395Y114989D01*
X617416Y115098D01*
X617441Y115206D01*
X617470Y115313D01*
X617502Y115419D01*
X617538Y115524D01*
X617578Y115627D01*
X617621Y115729D01*
X617668Y115830D01*
X617719Y115929D01*
X617772Y116025D01*
X617829Y116120D01*
X617890Y116213D01*
X617953Y116304D01*
X618020Y116393D01*
X618090Y116479D01*
X618163Y116562D01*
X618238Y116644D01*
X618316Y116722D01*
X618398Y116797D01*
X618481Y116870D01*
X618567Y116940D01*
X618656Y117007D01*
X618747Y117070D01*
X618840Y117131D01*
X618935Y117188D01*
X619031Y117241D01*
X619130Y117292D01*
X619231Y117339D01*
X619333Y117382D01*
X619436Y117422D01*
X619541Y117458D01*
X619647Y117490D01*
X619754Y117519D01*
X619862Y117544D01*
X619971Y117565D01*
X620080Y117582D01*
X620190Y117596D01*
X620301Y117605D01*
X620411Y117611D01*
X620522Y117613D01*
X620633Y117611D01*
X620743Y117605D01*
X620854Y117596D01*
X620964Y117582D01*
X621073Y117565D01*
X621182Y117544D01*
X621290Y117519D01*
X621397Y117490D01*
X621503Y117458D01*
X621608Y117422D01*
X621711Y117382D01*
X621813Y117339D01*
X621914Y117292D01*
X622013Y117241D01*
X622110Y117188D01*
X622204Y117131D01*
X622297Y117070D01*
X622388Y117007D01*
X622477Y116940D01*
X622563Y116870D01*
X622646Y116797D01*
X622728Y116722D01*
X622806Y116644D01*
X622881Y116562D01*
X622954Y116479D01*
X623024Y116393D01*
X623091Y116304D01*
X623154Y116213D01*
X623215Y116120D01*
X623272Y116026D01*
X623325Y115929D01*
X623376Y115830D01*
X623423Y115729D01*
X623466Y115627D01*
X623506Y115524D01*
X623542Y115419D01*
X623574Y115313D01*
X623603Y115206D01*
X623628Y115098D01*
X623649Y114989D01*
X623666Y114880D01*
X623680Y114770D01*
X623689Y114659D01*
X623695Y114549D01*
X623697Y114438D01*
X623697Y111263D01*
X619887Y122122D02*
X617347Y125297D01*
X628777Y125297D01*
X628777Y122122D02*
X628777Y128472D01*
X620205Y139902D02*
X620101Y139900D01*
X619996Y139894D01*
X619892Y139885D01*
X619789Y139872D01*
X619686Y139854D01*
X619584Y139834D01*
X619482Y139809D01*
X619382Y139781D01*
X619282Y139749D01*
X619184Y139713D01*
X619087Y139674D01*
X618992Y139632D01*
X618898Y139586D01*
X618806Y139536D01*
X618716Y139484D01*
X618628Y139428D01*
X618542Y139368D01*
X618458Y139306D01*
X618377Y139241D01*
X618298Y139173D01*
X618221Y139101D01*
X618148Y139028D01*
X618076Y138951D01*
X618008Y138872D01*
X617943Y138791D01*
X617881Y138707D01*
X617821Y138621D01*
X617765Y138533D01*
X617713Y138443D01*
X617663Y138351D01*
X617617Y138257D01*
X617575Y138162D01*
X617536Y138065D01*
X617500Y137967D01*
X617468Y137867D01*
X617440Y137767D01*
X617415Y137665D01*
X617395Y137563D01*
X617377Y137460D01*
X617364Y137357D01*
X617355Y137253D01*
X617349Y137148D01*
X617347Y137044D01*
X617349Y136926D01*
X617355Y136807D01*
X617364Y136689D01*
X617377Y136572D01*
X617395Y136455D01*
X617415Y136338D01*
X617440Y136222D01*
X617468Y136107D01*
X617501Y135994D01*
X617536Y135881D01*
X617576Y135769D01*
X617618Y135659D01*
X617665Y135550D01*
X617715Y135442D01*
X617768Y135337D01*
X617825Y135233D01*
X617885Y135131D01*
X617948Y135031D01*
X618015Y134933D01*
X618084Y134837D01*
X618157Y134744D01*
X618233Y134653D01*
X618311Y134564D01*
X618393Y134478D01*
X618477Y134395D01*
X618563Y134314D01*
X618653Y134237D01*
X618744Y134162D01*
X618838Y134090D01*
X618935Y134021D01*
X619033Y133956D01*
X619134Y133893D01*
X619237Y133834D01*
X619341Y133778D01*
X619447Y133726D01*
X619555Y133677D01*
X619664Y133632D01*
X619775Y133590D01*
X619887Y133552D01*
X622427Y138950D02*
X622352Y139026D01*
X622273Y139101D01*
X622192Y139172D01*
X622108Y139241D01*
X622022Y139306D01*
X621934Y139368D01*
X621844Y139428D01*
X621752Y139484D01*
X621657Y139537D01*
X621561Y139586D01*
X621463Y139632D01*
X621364Y139675D01*
X621263Y139714D01*
X621161Y139749D01*
X621058Y139781D01*
X620954Y139809D01*
X620849Y139834D01*
X620742Y139855D01*
X620636Y139872D01*
X620529Y139885D01*
X620421Y139894D01*
X620313Y139900D01*
X620205Y139902D01*
X622427Y138949D02*
X628777Y133552D01*
X628777Y139902D01*
D10*
X685800Y285750D02*
X685800Y298450D01*
X685800Y285750D02*
X679450Y279400D01*
X666750Y279400D01*
X660400Y285750D01*
X666750Y304800D02*
X679450Y304800D01*
X685800Y298450D01*
X666750Y304800D02*
X660400Y298450D01*
X660400Y285750D01*
D11*
X692023Y270308D02*
X700913Y270308D01*
X701013Y270306D01*
X701112Y270300D01*
X701212Y270290D01*
X701310Y270277D01*
X701409Y270259D01*
X701506Y270238D01*
X701602Y270213D01*
X701698Y270184D01*
X701792Y270151D01*
X701885Y270115D01*
X701976Y270075D01*
X702066Y270031D01*
X702154Y269984D01*
X702240Y269934D01*
X702324Y269880D01*
X702406Y269823D01*
X702485Y269763D01*
X702563Y269699D01*
X702637Y269633D01*
X702709Y269564D01*
X702778Y269492D01*
X702844Y269418D01*
X702908Y269340D01*
X702968Y269261D01*
X703025Y269179D01*
X703079Y269095D01*
X703129Y269009D01*
X703176Y268921D01*
X703220Y268831D01*
X703260Y268740D01*
X703296Y268647D01*
X703329Y268553D01*
X703358Y268457D01*
X703383Y268361D01*
X703404Y268264D01*
X703422Y268165D01*
X703435Y268067D01*
X703445Y267967D01*
X703451Y267868D01*
X703453Y267768D01*
X703453Y266498D01*
X703453Y276289D02*
X692023Y276289D01*
X692023Y279464D01*
X692025Y279575D01*
X692031Y279685D01*
X692040Y279796D01*
X692054Y279906D01*
X692071Y280015D01*
X692092Y280124D01*
X692117Y280232D01*
X692146Y280339D01*
X692178Y280445D01*
X692214Y280550D01*
X692254Y280653D01*
X692297Y280755D01*
X692344Y280856D01*
X692395Y280955D01*
X692448Y281052D01*
X692505Y281146D01*
X692566Y281239D01*
X692629Y281330D01*
X692696Y281419D01*
X692766Y281505D01*
X692839Y281588D01*
X692914Y281670D01*
X692992Y281748D01*
X693074Y281823D01*
X693157Y281896D01*
X693243Y281966D01*
X693332Y282033D01*
X693423Y282096D01*
X693516Y282157D01*
X693611Y282214D01*
X693707Y282267D01*
X693806Y282318D01*
X693907Y282365D01*
X694009Y282408D01*
X694112Y282448D01*
X694217Y282484D01*
X694323Y282516D01*
X694430Y282545D01*
X694538Y282570D01*
X694647Y282591D01*
X694756Y282608D01*
X694866Y282622D01*
X694977Y282631D01*
X695087Y282637D01*
X695198Y282639D01*
X695309Y282637D01*
X695419Y282631D01*
X695530Y282622D01*
X695640Y282608D01*
X695749Y282591D01*
X695858Y282570D01*
X695966Y282545D01*
X696073Y282516D01*
X696179Y282484D01*
X696284Y282448D01*
X696387Y282408D01*
X696489Y282365D01*
X696590Y282318D01*
X696689Y282267D01*
X696786Y282214D01*
X696880Y282157D01*
X696973Y282096D01*
X697064Y282033D01*
X697153Y281966D01*
X697239Y281896D01*
X697322Y281823D01*
X697404Y281748D01*
X697482Y281670D01*
X697557Y281588D01*
X697630Y281505D01*
X697700Y281419D01*
X697767Y281330D01*
X697830Y281239D01*
X697891Y281146D01*
X697948Y281052D01*
X698001Y280955D01*
X698052Y280856D01*
X698099Y280755D01*
X698142Y280653D01*
X698182Y280550D01*
X698218Y280445D01*
X698250Y280339D01*
X698279Y280232D01*
X698304Y280124D01*
X698325Y280015D01*
X698342Y279906D01*
X698356Y279796D01*
X698365Y279685D01*
X698371Y279575D01*
X698373Y279464D01*
X698373Y276289D01*
X694563Y287147D02*
X692023Y290322D01*
X703453Y290322D01*
X703453Y287147D02*
X703453Y293497D01*
X703453Y298577D02*
X703453Y301752D01*
X703451Y301863D01*
X703445Y301973D01*
X703436Y302084D01*
X703422Y302194D01*
X703405Y302303D01*
X703384Y302412D01*
X703359Y302520D01*
X703330Y302627D01*
X703298Y302733D01*
X703262Y302838D01*
X703222Y302941D01*
X703179Y303043D01*
X703132Y303144D01*
X703081Y303243D01*
X703028Y303340D01*
X702971Y303434D01*
X702910Y303527D01*
X702847Y303618D01*
X702780Y303707D01*
X702710Y303793D01*
X702637Y303876D01*
X702562Y303958D01*
X702484Y304036D01*
X702402Y304111D01*
X702319Y304184D01*
X702233Y304254D01*
X702144Y304321D01*
X702053Y304384D01*
X701960Y304445D01*
X701866Y304502D01*
X701769Y304555D01*
X701670Y304606D01*
X701569Y304653D01*
X701467Y304696D01*
X701364Y304736D01*
X701259Y304772D01*
X701153Y304804D01*
X701046Y304833D01*
X700938Y304858D01*
X700829Y304879D01*
X700720Y304896D01*
X700610Y304910D01*
X700499Y304919D01*
X700389Y304925D01*
X700278Y304927D01*
X700167Y304925D01*
X700057Y304919D01*
X699946Y304910D01*
X699836Y304896D01*
X699727Y304879D01*
X699618Y304858D01*
X699510Y304833D01*
X699403Y304804D01*
X699297Y304772D01*
X699192Y304736D01*
X699089Y304696D01*
X698987Y304653D01*
X698886Y304606D01*
X698787Y304555D01*
X698691Y304502D01*
X698596Y304445D01*
X698503Y304384D01*
X698412Y304321D01*
X698323Y304254D01*
X698237Y304184D01*
X698154Y304111D01*
X698072Y304036D01*
X697994Y303958D01*
X697919Y303876D01*
X697846Y303793D01*
X697776Y303707D01*
X697709Y303618D01*
X697646Y303527D01*
X697585Y303434D01*
X697528Y303340D01*
X697475Y303243D01*
X697424Y303144D01*
X697377Y303043D01*
X697334Y302941D01*
X697294Y302838D01*
X697258Y302733D01*
X697226Y302627D01*
X697197Y302520D01*
X697172Y302412D01*
X697151Y302303D01*
X697134Y302194D01*
X697120Y302084D01*
X697111Y301973D01*
X697105Y301863D01*
X697103Y301752D01*
X692023Y302387D02*
X692023Y298577D01*
X692023Y302387D02*
X692025Y302487D01*
X692031Y302586D01*
X692041Y302686D01*
X692054Y302784D01*
X692072Y302883D01*
X692093Y302980D01*
X692118Y303076D01*
X692147Y303172D01*
X692180Y303266D01*
X692216Y303359D01*
X692256Y303450D01*
X692300Y303540D01*
X692347Y303628D01*
X692397Y303714D01*
X692451Y303798D01*
X692508Y303880D01*
X692568Y303959D01*
X692632Y304037D01*
X692698Y304111D01*
X692767Y304183D01*
X692839Y304252D01*
X692913Y304318D01*
X692991Y304382D01*
X693070Y304442D01*
X693152Y304499D01*
X693236Y304553D01*
X693322Y304603D01*
X693410Y304650D01*
X693500Y304694D01*
X693591Y304734D01*
X693684Y304770D01*
X693778Y304803D01*
X693874Y304832D01*
X693970Y304857D01*
X694067Y304878D01*
X694166Y304896D01*
X694264Y304909D01*
X694364Y304919D01*
X694463Y304925D01*
X694563Y304927D01*
X694663Y304925D01*
X694762Y304919D01*
X694862Y304909D01*
X694960Y304896D01*
X695059Y304878D01*
X695156Y304857D01*
X695252Y304832D01*
X695348Y304803D01*
X695442Y304770D01*
X695535Y304734D01*
X695626Y304694D01*
X695716Y304650D01*
X695804Y304603D01*
X695890Y304553D01*
X695974Y304499D01*
X696056Y304442D01*
X696135Y304382D01*
X696213Y304318D01*
X696287Y304252D01*
X696359Y304183D01*
X696428Y304111D01*
X696494Y304037D01*
X696558Y303959D01*
X696618Y303880D01*
X696675Y303798D01*
X696729Y303714D01*
X696779Y303628D01*
X696826Y303540D01*
X696870Y303450D01*
X696910Y303359D01*
X696946Y303266D01*
X696979Y303172D01*
X697008Y303076D01*
X697033Y302980D01*
X697054Y302883D01*
X697072Y302784D01*
X697085Y302686D01*
X697095Y302586D01*
X697101Y302487D01*
X697103Y302387D01*
X697103Y299847D01*
D10*
X685800Y273050D02*
X685800Y260350D01*
X679450Y254000D01*
X666750Y254000D01*
X660400Y260350D01*
X666750Y279400D02*
X679450Y279400D01*
X685800Y273050D01*
X666750Y279400D02*
X660400Y273050D01*
X660400Y260350D01*
D11*
X692023Y244908D02*
X700913Y244908D01*
X701013Y244906D01*
X701112Y244900D01*
X701212Y244890D01*
X701310Y244877D01*
X701409Y244859D01*
X701506Y244838D01*
X701602Y244813D01*
X701698Y244784D01*
X701792Y244751D01*
X701885Y244715D01*
X701976Y244675D01*
X702066Y244631D01*
X702154Y244584D01*
X702240Y244534D01*
X702324Y244480D01*
X702406Y244423D01*
X702485Y244363D01*
X702563Y244299D01*
X702637Y244233D01*
X702709Y244164D01*
X702778Y244092D01*
X702844Y244018D01*
X702908Y243940D01*
X702968Y243861D01*
X703025Y243779D01*
X703079Y243695D01*
X703129Y243609D01*
X703176Y243521D01*
X703220Y243431D01*
X703260Y243340D01*
X703296Y243247D01*
X703329Y243153D01*
X703358Y243057D01*
X703383Y242961D01*
X703404Y242864D01*
X703422Y242765D01*
X703435Y242667D01*
X703445Y242567D01*
X703451Y242468D01*
X703453Y242368D01*
X703453Y241098D01*
X703453Y250889D02*
X692023Y250889D01*
X692023Y254064D01*
X692025Y254175D01*
X692031Y254285D01*
X692040Y254396D01*
X692054Y254506D01*
X692071Y254615D01*
X692092Y254724D01*
X692117Y254832D01*
X692146Y254939D01*
X692178Y255045D01*
X692214Y255150D01*
X692254Y255253D01*
X692297Y255355D01*
X692344Y255456D01*
X692395Y255555D01*
X692448Y255652D01*
X692505Y255746D01*
X692566Y255839D01*
X692629Y255930D01*
X692696Y256019D01*
X692766Y256105D01*
X692839Y256188D01*
X692914Y256270D01*
X692992Y256348D01*
X693074Y256423D01*
X693157Y256496D01*
X693243Y256566D01*
X693332Y256633D01*
X693423Y256696D01*
X693516Y256757D01*
X693611Y256814D01*
X693707Y256867D01*
X693806Y256918D01*
X693907Y256965D01*
X694009Y257008D01*
X694112Y257048D01*
X694217Y257084D01*
X694323Y257116D01*
X694430Y257145D01*
X694538Y257170D01*
X694647Y257191D01*
X694756Y257208D01*
X694866Y257222D01*
X694977Y257231D01*
X695087Y257237D01*
X695198Y257239D01*
X695309Y257237D01*
X695419Y257231D01*
X695530Y257222D01*
X695640Y257208D01*
X695749Y257191D01*
X695858Y257170D01*
X695966Y257145D01*
X696073Y257116D01*
X696179Y257084D01*
X696284Y257048D01*
X696387Y257008D01*
X696489Y256965D01*
X696590Y256918D01*
X696689Y256867D01*
X696786Y256814D01*
X696880Y256757D01*
X696973Y256696D01*
X697064Y256633D01*
X697153Y256566D01*
X697239Y256496D01*
X697322Y256423D01*
X697404Y256348D01*
X697482Y256270D01*
X697557Y256188D01*
X697630Y256105D01*
X697700Y256019D01*
X697767Y255930D01*
X697830Y255839D01*
X697891Y255746D01*
X697948Y255652D01*
X698001Y255555D01*
X698052Y255456D01*
X698099Y255355D01*
X698142Y255253D01*
X698182Y255150D01*
X698218Y255045D01*
X698250Y254939D01*
X698279Y254832D01*
X698304Y254724D01*
X698325Y254615D01*
X698342Y254506D01*
X698356Y254396D01*
X698365Y254285D01*
X698371Y254175D01*
X698373Y254064D01*
X698373Y250889D01*
X694563Y261747D02*
X692023Y264922D01*
X703453Y264922D01*
X703453Y261747D02*
X703453Y268097D01*
X700913Y273177D02*
X692023Y275717D01*
X700913Y273177D02*
X700913Y279527D01*
X698373Y277622D02*
X703453Y277622D01*
D10*
X685800Y247650D02*
X685800Y234950D01*
X679450Y228600D01*
X666750Y228600D01*
X660400Y234950D01*
X666750Y254000D02*
X679450Y254000D01*
X685800Y247650D01*
X666750Y254000D02*
X660400Y247650D01*
X660400Y234950D01*
D11*
X692023Y219508D02*
X700913Y219508D01*
X701013Y219506D01*
X701112Y219500D01*
X701212Y219490D01*
X701310Y219477D01*
X701409Y219459D01*
X701506Y219438D01*
X701602Y219413D01*
X701698Y219384D01*
X701792Y219351D01*
X701885Y219315D01*
X701976Y219275D01*
X702066Y219231D01*
X702154Y219184D01*
X702240Y219134D01*
X702324Y219080D01*
X702406Y219023D01*
X702485Y218963D01*
X702563Y218899D01*
X702637Y218833D01*
X702709Y218764D01*
X702778Y218692D01*
X702844Y218618D01*
X702908Y218540D01*
X702968Y218461D01*
X703025Y218379D01*
X703079Y218295D01*
X703129Y218209D01*
X703176Y218121D01*
X703220Y218031D01*
X703260Y217940D01*
X703296Y217847D01*
X703329Y217753D01*
X703358Y217657D01*
X703383Y217561D01*
X703404Y217464D01*
X703422Y217365D01*
X703435Y217267D01*
X703445Y217167D01*
X703451Y217068D01*
X703453Y216968D01*
X703453Y215698D01*
X703453Y225489D02*
X692023Y225489D01*
X692023Y228664D01*
X692025Y228775D01*
X692031Y228885D01*
X692040Y228996D01*
X692054Y229106D01*
X692071Y229215D01*
X692092Y229324D01*
X692117Y229432D01*
X692146Y229539D01*
X692178Y229645D01*
X692214Y229750D01*
X692254Y229853D01*
X692297Y229955D01*
X692344Y230056D01*
X692395Y230155D01*
X692448Y230252D01*
X692505Y230346D01*
X692566Y230439D01*
X692629Y230530D01*
X692696Y230619D01*
X692766Y230705D01*
X692839Y230788D01*
X692914Y230870D01*
X692992Y230948D01*
X693074Y231023D01*
X693157Y231096D01*
X693243Y231166D01*
X693332Y231233D01*
X693423Y231296D01*
X693516Y231357D01*
X693611Y231414D01*
X693707Y231467D01*
X693806Y231518D01*
X693907Y231565D01*
X694009Y231608D01*
X694112Y231648D01*
X694217Y231684D01*
X694323Y231716D01*
X694430Y231745D01*
X694538Y231770D01*
X694647Y231791D01*
X694756Y231808D01*
X694866Y231822D01*
X694977Y231831D01*
X695087Y231837D01*
X695198Y231839D01*
X695309Y231837D01*
X695419Y231831D01*
X695530Y231822D01*
X695640Y231808D01*
X695749Y231791D01*
X695858Y231770D01*
X695966Y231745D01*
X696073Y231716D01*
X696179Y231684D01*
X696284Y231648D01*
X696387Y231608D01*
X696489Y231565D01*
X696590Y231518D01*
X696689Y231467D01*
X696786Y231414D01*
X696880Y231357D01*
X696973Y231296D01*
X697064Y231233D01*
X697153Y231166D01*
X697239Y231096D01*
X697322Y231023D01*
X697404Y230948D01*
X697482Y230870D01*
X697557Y230788D01*
X697630Y230705D01*
X697700Y230619D01*
X697767Y230530D01*
X697830Y230439D01*
X697891Y230346D01*
X697948Y230252D01*
X698001Y230155D01*
X698052Y230056D01*
X698099Y229955D01*
X698142Y229853D01*
X698182Y229750D01*
X698218Y229645D01*
X698250Y229539D01*
X698279Y229432D01*
X698304Y229324D01*
X698325Y229215D01*
X698342Y229106D01*
X698356Y228996D01*
X698365Y228885D01*
X698371Y228775D01*
X698373Y228664D01*
X698373Y225489D01*
X694563Y236347D02*
X692023Y239522D01*
X703453Y239522D01*
X703453Y236347D02*
X703453Y242697D01*
X703453Y247777D02*
X703453Y251587D01*
X703451Y251687D01*
X703445Y251786D01*
X703435Y251886D01*
X703422Y251984D01*
X703404Y252083D01*
X703383Y252180D01*
X703358Y252276D01*
X703329Y252372D01*
X703296Y252466D01*
X703260Y252559D01*
X703220Y252650D01*
X703176Y252740D01*
X703129Y252828D01*
X703079Y252914D01*
X703025Y252998D01*
X702968Y253080D01*
X702908Y253159D01*
X702844Y253237D01*
X702778Y253311D01*
X702709Y253383D01*
X702637Y253452D01*
X702563Y253518D01*
X702485Y253582D01*
X702406Y253642D01*
X702324Y253699D01*
X702240Y253753D01*
X702154Y253803D01*
X702066Y253850D01*
X701976Y253894D01*
X701885Y253934D01*
X701792Y253970D01*
X701698Y254003D01*
X701602Y254032D01*
X701506Y254057D01*
X701409Y254078D01*
X701310Y254096D01*
X701212Y254109D01*
X701112Y254119D01*
X701013Y254125D01*
X700913Y254127D01*
X699643Y254127D01*
X699543Y254125D01*
X699444Y254119D01*
X699344Y254109D01*
X699246Y254096D01*
X699147Y254078D01*
X699050Y254057D01*
X698954Y254032D01*
X698858Y254003D01*
X698764Y253970D01*
X698671Y253934D01*
X698580Y253894D01*
X698490Y253850D01*
X698402Y253803D01*
X698316Y253753D01*
X698232Y253699D01*
X698150Y253642D01*
X698071Y253582D01*
X697993Y253518D01*
X697919Y253452D01*
X697847Y253383D01*
X697778Y253311D01*
X697712Y253237D01*
X697648Y253159D01*
X697588Y253080D01*
X697531Y252998D01*
X697477Y252914D01*
X697427Y252828D01*
X697380Y252740D01*
X697336Y252650D01*
X697296Y252559D01*
X697260Y252466D01*
X697227Y252372D01*
X697198Y252276D01*
X697173Y252180D01*
X697152Y252083D01*
X697134Y251984D01*
X697121Y251886D01*
X697111Y251786D01*
X697105Y251687D01*
X697103Y251587D01*
X697103Y247777D01*
X692023Y247777D01*
X692023Y254127D01*
D10*
X685800Y222250D02*
X685800Y209550D01*
X679450Y203200D01*
X666750Y203200D01*
X660400Y209550D01*
X666750Y228600D02*
X679450Y228600D01*
X685800Y222250D01*
X666750Y228600D02*
X660400Y222250D01*
X660400Y209550D01*
D11*
X692023Y194108D02*
X700913Y194108D01*
X701013Y194106D01*
X701112Y194100D01*
X701212Y194090D01*
X701310Y194077D01*
X701409Y194059D01*
X701506Y194038D01*
X701602Y194013D01*
X701698Y193984D01*
X701792Y193951D01*
X701885Y193915D01*
X701976Y193875D01*
X702066Y193831D01*
X702154Y193784D01*
X702240Y193734D01*
X702324Y193680D01*
X702406Y193623D01*
X702485Y193563D01*
X702563Y193499D01*
X702637Y193433D01*
X702709Y193364D01*
X702778Y193292D01*
X702844Y193218D01*
X702908Y193140D01*
X702968Y193061D01*
X703025Y192979D01*
X703079Y192895D01*
X703129Y192809D01*
X703176Y192721D01*
X703220Y192631D01*
X703260Y192540D01*
X703296Y192447D01*
X703329Y192353D01*
X703358Y192257D01*
X703383Y192161D01*
X703404Y192064D01*
X703422Y191965D01*
X703435Y191867D01*
X703445Y191767D01*
X703451Y191668D01*
X703453Y191568D01*
X703453Y190298D01*
X703453Y200089D02*
X692023Y200089D01*
X692023Y203264D01*
X692025Y203375D01*
X692031Y203485D01*
X692040Y203596D01*
X692054Y203706D01*
X692071Y203815D01*
X692092Y203924D01*
X692117Y204032D01*
X692146Y204139D01*
X692178Y204245D01*
X692214Y204350D01*
X692254Y204453D01*
X692297Y204555D01*
X692344Y204656D01*
X692395Y204755D01*
X692448Y204852D01*
X692505Y204946D01*
X692566Y205039D01*
X692629Y205130D01*
X692696Y205219D01*
X692766Y205305D01*
X692839Y205388D01*
X692914Y205470D01*
X692992Y205548D01*
X693074Y205623D01*
X693157Y205696D01*
X693243Y205766D01*
X693332Y205833D01*
X693423Y205896D01*
X693516Y205957D01*
X693611Y206014D01*
X693707Y206067D01*
X693806Y206118D01*
X693907Y206165D01*
X694009Y206208D01*
X694112Y206248D01*
X694217Y206284D01*
X694323Y206316D01*
X694430Y206345D01*
X694538Y206370D01*
X694647Y206391D01*
X694756Y206408D01*
X694866Y206422D01*
X694977Y206431D01*
X695087Y206437D01*
X695198Y206439D01*
X695309Y206437D01*
X695419Y206431D01*
X695530Y206422D01*
X695640Y206408D01*
X695749Y206391D01*
X695858Y206370D01*
X695966Y206345D01*
X696073Y206316D01*
X696179Y206284D01*
X696284Y206248D01*
X696387Y206208D01*
X696489Y206165D01*
X696590Y206118D01*
X696689Y206067D01*
X696786Y206014D01*
X696880Y205957D01*
X696973Y205896D01*
X697064Y205833D01*
X697153Y205766D01*
X697239Y205696D01*
X697322Y205623D01*
X697404Y205548D01*
X697482Y205470D01*
X697557Y205388D01*
X697630Y205305D01*
X697700Y205219D01*
X697767Y205130D01*
X697830Y205039D01*
X697891Y204946D01*
X697948Y204852D01*
X698001Y204755D01*
X698052Y204656D01*
X698099Y204555D01*
X698142Y204453D01*
X698182Y204350D01*
X698218Y204245D01*
X698250Y204139D01*
X698279Y204032D01*
X698304Y203924D01*
X698325Y203815D01*
X698342Y203706D01*
X698356Y203596D01*
X698365Y203485D01*
X698371Y203375D01*
X698373Y203264D01*
X698373Y200089D01*
X694563Y210947D02*
X692023Y214122D01*
X703453Y214122D01*
X703453Y210947D02*
X703453Y217297D01*
X697103Y222377D02*
X697103Y226187D01*
X697105Y226287D01*
X697111Y226386D01*
X697121Y226486D01*
X697134Y226584D01*
X697152Y226683D01*
X697173Y226780D01*
X697198Y226876D01*
X697227Y226972D01*
X697260Y227066D01*
X697296Y227159D01*
X697336Y227250D01*
X697380Y227340D01*
X697427Y227428D01*
X697477Y227514D01*
X697531Y227598D01*
X697588Y227680D01*
X697648Y227759D01*
X697712Y227837D01*
X697778Y227911D01*
X697847Y227983D01*
X697919Y228052D01*
X697993Y228118D01*
X698071Y228182D01*
X698150Y228242D01*
X698232Y228299D01*
X698316Y228353D01*
X698402Y228403D01*
X698490Y228450D01*
X698580Y228494D01*
X698671Y228534D01*
X698764Y228570D01*
X698858Y228603D01*
X698954Y228632D01*
X699050Y228657D01*
X699147Y228678D01*
X699246Y228696D01*
X699344Y228709D01*
X699444Y228719D01*
X699543Y228725D01*
X699643Y228727D01*
X700278Y228727D01*
X700389Y228725D01*
X700499Y228719D01*
X700610Y228710D01*
X700720Y228696D01*
X700829Y228679D01*
X700938Y228658D01*
X701046Y228633D01*
X701153Y228604D01*
X701259Y228572D01*
X701364Y228536D01*
X701467Y228496D01*
X701569Y228453D01*
X701670Y228406D01*
X701769Y228355D01*
X701866Y228302D01*
X701960Y228245D01*
X702053Y228184D01*
X702144Y228121D01*
X702233Y228054D01*
X702319Y227984D01*
X702402Y227911D01*
X702484Y227836D01*
X702562Y227758D01*
X702637Y227676D01*
X702710Y227593D01*
X702780Y227507D01*
X702847Y227418D01*
X702910Y227327D01*
X702971Y227234D01*
X703028Y227139D01*
X703081Y227043D01*
X703132Y226944D01*
X703179Y226843D01*
X703222Y226741D01*
X703262Y226638D01*
X703298Y226533D01*
X703330Y226427D01*
X703359Y226320D01*
X703384Y226212D01*
X703405Y226103D01*
X703422Y225994D01*
X703436Y225884D01*
X703445Y225773D01*
X703451Y225663D01*
X703453Y225552D01*
X703451Y225441D01*
X703445Y225331D01*
X703436Y225220D01*
X703422Y225110D01*
X703405Y225001D01*
X703384Y224892D01*
X703359Y224784D01*
X703330Y224677D01*
X703298Y224571D01*
X703262Y224466D01*
X703222Y224363D01*
X703179Y224261D01*
X703132Y224160D01*
X703081Y224061D01*
X703028Y223964D01*
X702971Y223870D01*
X702910Y223777D01*
X702847Y223686D01*
X702780Y223597D01*
X702710Y223511D01*
X702637Y223428D01*
X702562Y223346D01*
X702484Y223268D01*
X702402Y223193D01*
X702319Y223120D01*
X702233Y223050D01*
X702144Y222983D01*
X702053Y222920D01*
X701960Y222859D01*
X701866Y222802D01*
X701769Y222749D01*
X701670Y222698D01*
X701569Y222651D01*
X701467Y222608D01*
X701364Y222568D01*
X701259Y222532D01*
X701153Y222500D01*
X701046Y222471D01*
X700938Y222446D01*
X700829Y222425D01*
X700720Y222408D01*
X700610Y222394D01*
X700499Y222385D01*
X700389Y222379D01*
X700278Y222377D01*
X697103Y222377D01*
X696963Y222379D01*
X696823Y222385D01*
X696683Y222394D01*
X696544Y222408D01*
X696405Y222425D01*
X696267Y222446D01*
X696129Y222471D01*
X695992Y222500D01*
X695856Y222532D01*
X695721Y222569D01*
X695587Y222609D01*
X695454Y222652D01*
X695322Y222700D01*
X695191Y222750D01*
X695062Y222805D01*
X694935Y222863D01*
X694809Y222924D01*
X694685Y222989D01*
X694563Y223058D01*
X694443Y223129D01*
X694325Y223204D01*
X694208Y223282D01*
X694094Y223364D01*
X693983Y223448D01*
X693874Y223536D01*
X693767Y223626D01*
X693662Y223720D01*
X693561Y223816D01*
X693462Y223915D01*
X693366Y224016D01*
X693272Y224121D01*
X693182Y224228D01*
X693094Y224337D01*
X693010Y224448D01*
X692928Y224562D01*
X692850Y224679D01*
X692775Y224797D01*
X692704Y224917D01*
X692635Y225039D01*
X692570Y225163D01*
X692509Y225289D01*
X692451Y225416D01*
X692396Y225545D01*
X692346Y225676D01*
X692298Y225808D01*
X692255Y225941D01*
X692215Y226075D01*
X692178Y226210D01*
X692146Y226346D01*
X692117Y226483D01*
X692092Y226621D01*
X692071Y226759D01*
X692054Y226898D01*
X692040Y227037D01*
X692031Y227177D01*
X692025Y227317D01*
X692023Y227457D01*
D10*
X685800Y196850D02*
X685800Y184150D01*
X679450Y177800D01*
X666750Y177800D01*
X660400Y184150D01*
X666750Y203200D02*
X679450Y203200D01*
X685800Y196850D01*
X666750Y203200D02*
X660400Y196850D01*
X660400Y184150D01*
D11*
X692023Y168708D02*
X700913Y168708D01*
X701013Y168706D01*
X701112Y168700D01*
X701212Y168690D01*
X701310Y168677D01*
X701409Y168659D01*
X701506Y168638D01*
X701602Y168613D01*
X701698Y168584D01*
X701792Y168551D01*
X701885Y168515D01*
X701976Y168475D01*
X702066Y168431D01*
X702154Y168384D01*
X702240Y168334D01*
X702324Y168280D01*
X702406Y168223D01*
X702485Y168163D01*
X702563Y168099D01*
X702637Y168033D01*
X702709Y167964D01*
X702778Y167892D01*
X702844Y167818D01*
X702908Y167740D01*
X702968Y167661D01*
X703025Y167579D01*
X703079Y167495D01*
X703129Y167409D01*
X703176Y167321D01*
X703220Y167231D01*
X703260Y167140D01*
X703296Y167047D01*
X703329Y166953D01*
X703358Y166857D01*
X703383Y166761D01*
X703404Y166664D01*
X703422Y166565D01*
X703435Y166467D01*
X703445Y166367D01*
X703451Y166268D01*
X703453Y166168D01*
X703453Y164898D01*
X703453Y174689D02*
X692023Y174689D01*
X692023Y177864D01*
X692025Y177975D01*
X692031Y178085D01*
X692040Y178196D01*
X692054Y178306D01*
X692071Y178415D01*
X692092Y178524D01*
X692117Y178632D01*
X692146Y178739D01*
X692178Y178845D01*
X692214Y178950D01*
X692254Y179053D01*
X692297Y179155D01*
X692344Y179256D01*
X692395Y179355D01*
X692448Y179452D01*
X692505Y179546D01*
X692566Y179639D01*
X692629Y179730D01*
X692696Y179819D01*
X692766Y179905D01*
X692839Y179988D01*
X692914Y180070D01*
X692992Y180148D01*
X693074Y180223D01*
X693157Y180296D01*
X693243Y180366D01*
X693332Y180433D01*
X693423Y180496D01*
X693516Y180557D01*
X693611Y180614D01*
X693707Y180667D01*
X693806Y180718D01*
X693907Y180765D01*
X694009Y180808D01*
X694112Y180848D01*
X694217Y180884D01*
X694323Y180916D01*
X694430Y180945D01*
X694538Y180970D01*
X694647Y180991D01*
X694756Y181008D01*
X694866Y181022D01*
X694977Y181031D01*
X695087Y181037D01*
X695198Y181039D01*
X695309Y181037D01*
X695419Y181031D01*
X695530Y181022D01*
X695640Y181008D01*
X695749Y180991D01*
X695858Y180970D01*
X695966Y180945D01*
X696073Y180916D01*
X696179Y180884D01*
X696284Y180848D01*
X696387Y180808D01*
X696489Y180765D01*
X696590Y180718D01*
X696689Y180667D01*
X696786Y180614D01*
X696880Y180557D01*
X696973Y180496D01*
X697064Y180433D01*
X697153Y180366D01*
X697239Y180296D01*
X697322Y180223D01*
X697404Y180148D01*
X697482Y180070D01*
X697557Y179988D01*
X697630Y179905D01*
X697700Y179819D01*
X697767Y179730D01*
X697830Y179639D01*
X697891Y179546D01*
X697948Y179452D01*
X698001Y179355D01*
X698052Y179256D01*
X698099Y179155D01*
X698142Y179053D01*
X698182Y178950D01*
X698218Y178845D01*
X698250Y178739D01*
X698279Y178632D01*
X698304Y178524D01*
X698325Y178415D01*
X698342Y178306D01*
X698356Y178196D01*
X698365Y178085D01*
X698371Y177975D01*
X698373Y177864D01*
X698373Y174689D01*
X694563Y185547D02*
X692023Y188722D01*
X703453Y188722D01*
X703453Y185547D02*
X703453Y191897D01*
X693293Y196977D02*
X692023Y196977D01*
X692023Y203327D01*
X703453Y200152D01*
D10*
X685800Y171450D02*
X685800Y158750D01*
X679450Y152400D01*
X666750Y152400D01*
X660400Y158750D01*
X666750Y177800D02*
X679450Y177800D01*
X685800Y171450D01*
X666750Y177800D02*
X660400Y171450D01*
X660400Y158750D01*
D11*
X692023Y143308D02*
X700913Y143308D01*
X701013Y143306D01*
X701112Y143300D01*
X701212Y143290D01*
X701310Y143277D01*
X701409Y143259D01*
X701506Y143238D01*
X701602Y143213D01*
X701698Y143184D01*
X701792Y143151D01*
X701885Y143115D01*
X701976Y143075D01*
X702066Y143031D01*
X702154Y142984D01*
X702240Y142934D01*
X702324Y142880D01*
X702406Y142823D01*
X702485Y142763D01*
X702563Y142699D01*
X702637Y142633D01*
X702709Y142564D01*
X702778Y142492D01*
X702844Y142418D01*
X702908Y142340D01*
X702968Y142261D01*
X703025Y142179D01*
X703079Y142095D01*
X703129Y142009D01*
X703176Y141921D01*
X703220Y141831D01*
X703260Y141740D01*
X703296Y141647D01*
X703329Y141553D01*
X703358Y141457D01*
X703383Y141361D01*
X703404Y141264D01*
X703422Y141165D01*
X703435Y141067D01*
X703445Y140967D01*
X703451Y140868D01*
X703453Y140768D01*
X703453Y139498D01*
X703453Y149289D02*
X692023Y149289D01*
X692023Y152464D01*
X692025Y152575D01*
X692031Y152685D01*
X692040Y152796D01*
X692054Y152906D01*
X692071Y153015D01*
X692092Y153124D01*
X692117Y153232D01*
X692146Y153339D01*
X692178Y153445D01*
X692214Y153550D01*
X692254Y153653D01*
X692297Y153755D01*
X692344Y153856D01*
X692395Y153955D01*
X692448Y154052D01*
X692505Y154146D01*
X692566Y154239D01*
X692629Y154330D01*
X692696Y154419D01*
X692766Y154505D01*
X692839Y154588D01*
X692914Y154670D01*
X692992Y154748D01*
X693074Y154823D01*
X693157Y154896D01*
X693243Y154966D01*
X693332Y155033D01*
X693423Y155096D01*
X693516Y155157D01*
X693611Y155214D01*
X693707Y155267D01*
X693806Y155318D01*
X693907Y155365D01*
X694009Y155408D01*
X694112Y155448D01*
X694217Y155484D01*
X694323Y155516D01*
X694430Y155545D01*
X694538Y155570D01*
X694647Y155591D01*
X694756Y155608D01*
X694866Y155622D01*
X694977Y155631D01*
X695087Y155637D01*
X695198Y155639D01*
X695309Y155637D01*
X695419Y155631D01*
X695530Y155622D01*
X695640Y155608D01*
X695749Y155591D01*
X695858Y155570D01*
X695966Y155545D01*
X696073Y155516D01*
X696179Y155484D01*
X696284Y155448D01*
X696387Y155408D01*
X696489Y155365D01*
X696590Y155318D01*
X696689Y155267D01*
X696786Y155214D01*
X696880Y155157D01*
X696973Y155096D01*
X697064Y155033D01*
X697153Y154966D01*
X697239Y154896D01*
X697322Y154823D01*
X697404Y154748D01*
X697482Y154670D01*
X697557Y154588D01*
X697630Y154505D01*
X697700Y154419D01*
X697767Y154330D01*
X697830Y154239D01*
X697891Y154146D01*
X697948Y154052D01*
X698001Y153955D01*
X698052Y153856D01*
X698099Y153755D01*
X698142Y153653D01*
X698182Y153550D01*
X698218Y153445D01*
X698250Y153339D01*
X698279Y153232D01*
X698304Y153124D01*
X698325Y153015D01*
X698342Y152906D01*
X698356Y152796D01*
X698365Y152685D01*
X698371Y152575D01*
X698373Y152464D01*
X698373Y149289D01*
X694563Y160147D02*
X692023Y163322D01*
X703453Y163322D01*
X703453Y160147D02*
X703453Y166497D01*
X700278Y171577D02*
X700167Y171579D01*
X700057Y171585D01*
X699946Y171594D01*
X699836Y171608D01*
X699727Y171625D01*
X699618Y171646D01*
X699510Y171671D01*
X699403Y171700D01*
X699297Y171732D01*
X699192Y171768D01*
X699089Y171808D01*
X698987Y171851D01*
X698886Y171898D01*
X698787Y171949D01*
X698691Y172002D01*
X698596Y172059D01*
X698503Y172120D01*
X698412Y172183D01*
X698323Y172250D01*
X698237Y172320D01*
X698154Y172393D01*
X698072Y172468D01*
X697994Y172546D01*
X697919Y172628D01*
X697846Y172711D01*
X697776Y172797D01*
X697709Y172886D01*
X697646Y172977D01*
X697585Y173070D01*
X697528Y173165D01*
X697475Y173261D01*
X697424Y173360D01*
X697377Y173461D01*
X697334Y173563D01*
X697294Y173666D01*
X697258Y173771D01*
X697226Y173877D01*
X697197Y173984D01*
X697172Y174092D01*
X697151Y174201D01*
X697134Y174310D01*
X697120Y174420D01*
X697111Y174531D01*
X697105Y174641D01*
X697103Y174752D01*
X697105Y174863D01*
X697111Y174973D01*
X697120Y175084D01*
X697134Y175194D01*
X697151Y175303D01*
X697172Y175412D01*
X697197Y175520D01*
X697226Y175627D01*
X697258Y175733D01*
X697294Y175838D01*
X697334Y175941D01*
X697377Y176043D01*
X697424Y176144D01*
X697475Y176243D01*
X697528Y176340D01*
X697585Y176434D01*
X697646Y176527D01*
X697709Y176618D01*
X697776Y176707D01*
X697846Y176793D01*
X697919Y176876D01*
X697994Y176958D01*
X698072Y177036D01*
X698154Y177111D01*
X698237Y177184D01*
X698323Y177254D01*
X698412Y177321D01*
X698503Y177384D01*
X698596Y177445D01*
X698691Y177502D01*
X698787Y177555D01*
X698886Y177606D01*
X698987Y177653D01*
X699089Y177696D01*
X699192Y177736D01*
X699297Y177772D01*
X699403Y177804D01*
X699510Y177833D01*
X699618Y177858D01*
X699727Y177879D01*
X699836Y177896D01*
X699946Y177910D01*
X700057Y177919D01*
X700167Y177925D01*
X700278Y177927D01*
X700389Y177925D01*
X700499Y177919D01*
X700610Y177910D01*
X700720Y177896D01*
X700829Y177879D01*
X700938Y177858D01*
X701046Y177833D01*
X701153Y177804D01*
X701259Y177772D01*
X701364Y177736D01*
X701467Y177696D01*
X701569Y177653D01*
X701670Y177606D01*
X701769Y177555D01*
X701866Y177502D01*
X701960Y177445D01*
X702053Y177384D01*
X702144Y177321D01*
X702233Y177254D01*
X702319Y177184D01*
X702402Y177111D01*
X702484Y177036D01*
X702562Y176958D01*
X702637Y176876D01*
X702710Y176793D01*
X702780Y176707D01*
X702847Y176618D01*
X702910Y176527D01*
X702971Y176434D01*
X703028Y176339D01*
X703081Y176243D01*
X703132Y176144D01*
X703179Y176043D01*
X703222Y175941D01*
X703262Y175838D01*
X703298Y175733D01*
X703330Y175627D01*
X703359Y175520D01*
X703384Y175412D01*
X703405Y175303D01*
X703422Y175194D01*
X703436Y175084D01*
X703445Y174973D01*
X703451Y174863D01*
X703453Y174752D01*
X703451Y174641D01*
X703445Y174531D01*
X703436Y174420D01*
X703422Y174310D01*
X703405Y174201D01*
X703384Y174092D01*
X703359Y173984D01*
X703330Y173877D01*
X703298Y173771D01*
X703262Y173666D01*
X703222Y173563D01*
X703179Y173461D01*
X703132Y173360D01*
X703081Y173261D01*
X703028Y173164D01*
X702971Y173070D01*
X702910Y172977D01*
X702847Y172886D01*
X702780Y172797D01*
X702710Y172711D01*
X702637Y172628D01*
X702562Y172546D01*
X702484Y172468D01*
X702402Y172393D01*
X702319Y172320D01*
X702233Y172250D01*
X702144Y172183D01*
X702053Y172120D01*
X701960Y172059D01*
X701866Y172002D01*
X701769Y171949D01*
X701670Y171898D01*
X701569Y171851D01*
X701467Y171808D01*
X701364Y171768D01*
X701259Y171732D01*
X701153Y171700D01*
X701046Y171671D01*
X700938Y171646D01*
X700829Y171625D01*
X700720Y171608D01*
X700610Y171594D01*
X700499Y171585D01*
X700389Y171579D01*
X700278Y171577D01*
X694563Y172212D02*
X694463Y172214D01*
X694364Y172220D01*
X694264Y172230D01*
X694166Y172243D01*
X694067Y172261D01*
X693970Y172282D01*
X693874Y172307D01*
X693778Y172336D01*
X693684Y172369D01*
X693591Y172405D01*
X693500Y172445D01*
X693410Y172489D01*
X693322Y172536D01*
X693236Y172586D01*
X693152Y172640D01*
X693070Y172697D01*
X692991Y172757D01*
X692913Y172821D01*
X692839Y172887D01*
X692767Y172956D01*
X692698Y173028D01*
X692632Y173102D01*
X692568Y173180D01*
X692508Y173259D01*
X692451Y173341D01*
X692397Y173425D01*
X692347Y173511D01*
X692300Y173599D01*
X692256Y173689D01*
X692216Y173780D01*
X692180Y173873D01*
X692147Y173967D01*
X692118Y174063D01*
X692093Y174159D01*
X692072Y174256D01*
X692054Y174355D01*
X692041Y174453D01*
X692031Y174553D01*
X692025Y174652D01*
X692023Y174752D01*
X692025Y174852D01*
X692031Y174951D01*
X692041Y175051D01*
X692054Y175149D01*
X692072Y175248D01*
X692093Y175345D01*
X692118Y175441D01*
X692147Y175537D01*
X692180Y175631D01*
X692216Y175724D01*
X692256Y175815D01*
X692300Y175905D01*
X692347Y175993D01*
X692397Y176079D01*
X692451Y176163D01*
X692508Y176245D01*
X692568Y176324D01*
X692632Y176402D01*
X692698Y176476D01*
X692767Y176548D01*
X692839Y176617D01*
X692913Y176683D01*
X692991Y176747D01*
X693070Y176807D01*
X693152Y176864D01*
X693236Y176918D01*
X693322Y176968D01*
X693410Y177015D01*
X693500Y177059D01*
X693591Y177099D01*
X693684Y177135D01*
X693778Y177168D01*
X693874Y177197D01*
X693970Y177222D01*
X694067Y177243D01*
X694166Y177261D01*
X694264Y177274D01*
X694364Y177284D01*
X694463Y177290D01*
X694563Y177292D01*
X694663Y177290D01*
X694762Y177284D01*
X694862Y177274D01*
X694960Y177261D01*
X695059Y177243D01*
X695156Y177222D01*
X695252Y177197D01*
X695348Y177168D01*
X695442Y177135D01*
X695535Y177099D01*
X695626Y177059D01*
X695716Y177015D01*
X695804Y176968D01*
X695890Y176918D01*
X695974Y176864D01*
X696056Y176807D01*
X696135Y176747D01*
X696213Y176683D01*
X696287Y176617D01*
X696359Y176548D01*
X696428Y176476D01*
X696494Y176402D01*
X696558Y176324D01*
X696618Y176245D01*
X696675Y176163D01*
X696729Y176079D01*
X696779Y175993D01*
X696826Y175905D01*
X696870Y175815D01*
X696910Y175724D01*
X696946Y175631D01*
X696979Y175537D01*
X697008Y175441D01*
X697033Y175345D01*
X697054Y175248D01*
X697072Y175149D01*
X697085Y175051D01*
X697095Y174951D01*
X697101Y174852D01*
X697103Y174752D01*
X697101Y174652D01*
X697095Y174553D01*
X697085Y174453D01*
X697072Y174355D01*
X697054Y174256D01*
X697033Y174159D01*
X697008Y174063D01*
X696979Y173967D01*
X696946Y173873D01*
X696910Y173780D01*
X696870Y173689D01*
X696826Y173599D01*
X696779Y173511D01*
X696729Y173425D01*
X696675Y173341D01*
X696618Y173259D01*
X696558Y173180D01*
X696494Y173102D01*
X696428Y173028D01*
X696359Y172956D01*
X696287Y172887D01*
X696213Y172821D01*
X696135Y172757D01*
X696056Y172697D01*
X695974Y172640D01*
X695890Y172586D01*
X695804Y172536D01*
X695716Y172489D01*
X695626Y172445D01*
X695535Y172405D01*
X695442Y172369D01*
X695348Y172336D01*
X695252Y172307D01*
X695156Y172282D01*
X695059Y172261D01*
X694960Y172243D01*
X694862Y172230D01*
X694762Y172220D01*
X694663Y172214D01*
X694563Y172212D01*
D10*
X685800Y146050D02*
X685800Y133350D01*
X679450Y127000D01*
X666750Y127000D01*
X660400Y133350D01*
X666750Y152400D02*
X679450Y152400D01*
X685800Y146050D01*
X666750Y152400D02*
X660400Y146050D01*
X660400Y133350D01*
D11*
X692023Y117908D02*
X700913Y117908D01*
X701013Y117906D01*
X701112Y117900D01*
X701212Y117890D01*
X701310Y117877D01*
X701409Y117859D01*
X701506Y117838D01*
X701602Y117813D01*
X701698Y117784D01*
X701792Y117751D01*
X701885Y117715D01*
X701976Y117675D01*
X702066Y117631D01*
X702154Y117584D01*
X702240Y117534D01*
X702324Y117480D01*
X702406Y117423D01*
X702485Y117363D01*
X702563Y117299D01*
X702637Y117233D01*
X702709Y117164D01*
X702778Y117092D01*
X702844Y117018D01*
X702908Y116940D01*
X702968Y116861D01*
X703025Y116779D01*
X703079Y116695D01*
X703129Y116609D01*
X703176Y116521D01*
X703220Y116431D01*
X703260Y116340D01*
X703296Y116247D01*
X703329Y116153D01*
X703358Y116057D01*
X703383Y115961D01*
X703404Y115864D01*
X703422Y115765D01*
X703435Y115667D01*
X703445Y115567D01*
X703451Y115468D01*
X703453Y115368D01*
X703453Y114098D01*
X703453Y123889D02*
X692023Y123889D01*
X692023Y127064D01*
X692025Y127175D01*
X692031Y127285D01*
X692040Y127396D01*
X692054Y127506D01*
X692071Y127615D01*
X692092Y127724D01*
X692117Y127832D01*
X692146Y127939D01*
X692178Y128045D01*
X692214Y128150D01*
X692254Y128253D01*
X692297Y128355D01*
X692344Y128456D01*
X692395Y128555D01*
X692448Y128651D01*
X692505Y128746D01*
X692566Y128839D01*
X692629Y128930D01*
X692696Y129019D01*
X692766Y129105D01*
X692839Y129188D01*
X692914Y129270D01*
X692992Y129348D01*
X693074Y129423D01*
X693157Y129496D01*
X693243Y129566D01*
X693332Y129633D01*
X693423Y129696D01*
X693516Y129757D01*
X693611Y129814D01*
X693707Y129867D01*
X693806Y129918D01*
X693907Y129965D01*
X694009Y130008D01*
X694112Y130048D01*
X694217Y130084D01*
X694323Y130116D01*
X694430Y130145D01*
X694538Y130170D01*
X694647Y130191D01*
X694756Y130208D01*
X694866Y130222D01*
X694977Y130231D01*
X695087Y130237D01*
X695198Y130239D01*
X695309Y130237D01*
X695419Y130231D01*
X695530Y130222D01*
X695640Y130208D01*
X695749Y130191D01*
X695858Y130170D01*
X695966Y130145D01*
X696073Y130116D01*
X696179Y130084D01*
X696284Y130048D01*
X696387Y130008D01*
X696489Y129965D01*
X696590Y129918D01*
X696689Y129867D01*
X696786Y129814D01*
X696880Y129757D01*
X696973Y129696D01*
X697064Y129633D01*
X697153Y129566D01*
X697239Y129496D01*
X697322Y129423D01*
X697404Y129348D01*
X697482Y129270D01*
X697557Y129188D01*
X697630Y129105D01*
X697700Y129019D01*
X697767Y128930D01*
X697830Y128839D01*
X697891Y128746D01*
X697948Y128652D01*
X698001Y128555D01*
X698052Y128456D01*
X698099Y128355D01*
X698142Y128253D01*
X698182Y128150D01*
X698218Y128045D01*
X698250Y127939D01*
X698279Y127832D01*
X698304Y127724D01*
X698325Y127615D01*
X698342Y127506D01*
X698356Y127396D01*
X698365Y127285D01*
X698371Y127175D01*
X698373Y127064D01*
X698373Y123889D01*
X694563Y134747D02*
X692023Y137922D01*
X703453Y137922D01*
X703453Y134747D02*
X703453Y141097D01*
X698373Y148717D02*
X698373Y152527D01*
X698373Y148717D02*
X698371Y148617D01*
X698365Y148518D01*
X698355Y148418D01*
X698342Y148320D01*
X698324Y148221D01*
X698303Y148124D01*
X698278Y148028D01*
X698249Y147932D01*
X698216Y147838D01*
X698180Y147745D01*
X698140Y147654D01*
X698096Y147564D01*
X698049Y147476D01*
X697999Y147390D01*
X697945Y147306D01*
X697888Y147224D01*
X697828Y147145D01*
X697764Y147067D01*
X697698Y146993D01*
X697629Y146921D01*
X697557Y146852D01*
X697483Y146786D01*
X697405Y146722D01*
X697326Y146662D01*
X697244Y146605D01*
X697160Y146551D01*
X697074Y146501D01*
X696986Y146454D01*
X696896Y146410D01*
X696805Y146370D01*
X696712Y146334D01*
X696618Y146301D01*
X696522Y146272D01*
X696426Y146247D01*
X696329Y146226D01*
X696230Y146208D01*
X696132Y146195D01*
X696032Y146185D01*
X695933Y146179D01*
X695833Y146177D01*
X695198Y146177D01*
X695087Y146179D01*
X694977Y146185D01*
X694866Y146194D01*
X694756Y146208D01*
X694647Y146225D01*
X694538Y146246D01*
X694430Y146271D01*
X694323Y146300D01*
X694217Y146332D01*
X694112Y146368D01*
X694009Y146408D01*
X693907Y146451D01*
X693806Y146498D01*
X693707Y146549D01*
X693611Y146602D01*
X693516Y146659D01*
X693423Y146720D01*
X693332Y146783D01*
X693243Y146850D01*
X693157Y146920D01*
X693074Y146993D01*
X692992Y147068D01*
X692914Y147146D01*
X692839Y147228D01*
X692766Y147311D01*
X692696Y147397D01*
X692629Y147486D01*
X692566Y147577D01*
X692505Y147670D01*
X692448Y147765D01*
X692395Y147861D01*
X692344Y147960D01*
X692297Y148061D01*
X692254Y148163D01*
X692214Y148266D01*
X692178Y148371D01*
X692146Y148477D01*
X692117Y148584D01*
X692092Y148692D01*
X692071Y148801D01*
X692054Y148910D01*
X692040Y149020D01*
X692031Y149131D01*
X692025Y149241D01*
X692023Y149352D01*
X692025Y149463D01*
X692031Y149573D01*
X692040Y149684D01*
X692054Y149794D01*
X692071Y149903D01*
X692092Y150012D01*
X692117Y150120D01*
X692146Y150227D01*
X692178Y150333D01*
X692214Y150438D01*
X692254Y150541D01*
X692297Y150643D01*
X692344Y150744D01*
X692395Y150843D01*
X692448Y150940D01*
X692505Y151034D01*
X692566Y151127D01*
X692629Y151218D01*
X692696Y151307D01*
X692766Y151393D01*
X692839Y151476D01*
X692914Y151558D01*
X692992Y151636D01*
X693074Y151711D01*
X693157Y151784D01*
X693243Y151854D01*
X693332Y151921D01*
X693423Y151984D01*
X693516Y152045D01*
X693611Y152102D01*
X693707Y152155D01*
X693806Y152206D01*
X693907Y152253D01*
X694009Y152296D01*
X694112Y152336D01*
X694217Y152372D01*
X694323Y152404D01*
X694430Y152433D01*
X694538Y152458D01*
X694647Y152479D01*
X694756Y152496D01*
X694866Y152510D01*
X694977Y152519D01*
X695087Y152525D01*
X695198Y152527D01*
X698373Y152527D01*
X698513Y152525D01*
X698653Y152519D01*
X698793Y152510D01*
X698932Y152496D01*
X699071Y152479D01*
X699209Y152458D01*
X699347Y152433D01*
X699484Y152404D01*
X699620Y152372D01*
X699755Y152335D01*
X699889Y152295D01*
X700022Y152252D01*
X700154Y152204D01*
X700285Y152154D01*
X700414Y152099D01*
X700541Y152041D01*
X700667Y151980D01*
X700791Y151915D01*
X700913Y151846D01*
X701033Y151775D01*
X701151Y151700D01*
X701268Y151622D01*
X701382Y151540D01*
X701493Y151456D01*
X701602Y151368D01*
X701709Y151278D01*
X701814Y151184D01*
X701915Y151088D01*
X702014Y150989D01*
X702110Y150888D01*
X702204Y150783D01*
X702294Y150676D01*
X702382Y150567D01*
X702466Y150456D01*
X702548Y150342D01*
X702626Y150225D01*
X702701Y150107D01*
X702772Y149987D01*
X702841Y149865D01*
X702906Y149741D01*
X702967Y149615D01*
X703025Y149488D01*
X703080Y149359D01*
X703130Y149228D01*
X703178Y149096D01*
X703221Y148963D01*
X703261Y148829D01*
X703298Y148694D01*
X703330Y148558D01*
X703359Y148421D01*
X703384Y148283D01*
X703405Y148145D01*
X703422Y148006D01*
X703436Y147867D01*
X703445Y147727D01*
X703451Y147587D01*
X703453Y147447D01*
D10*
X685800Y336550D02*
X685800Y349250D01*
X685800Y336550D02*
X679450Y330200D01*
X666750Y330200D01*
X660400Y336550D01*
X666750Y355600D02*
X679450Y355600D01*
X685800Y349250D01*
X666750Y355600D02*
X660400Y349250D01*
X660400Y336550D01*
D11*
X692023Y332538D02*
X700913Y332538D01*
X701013Y332536D01*
X701112Y332530D01*
X701212Y332520D01*
X701310Y332507D01*
X701409Y332489D01*
X701506Y332468D01*
X701602Y332443D01*
X701698Y332414D01*
X701792Y332381D01*
X701885Y332345D01*
X701976Y332305D01*
X702066Y332261D01*
X702154Y332214D01*
X702240Y332164D01*
X702324Y332110D01*
X702406Y332053D01*
X702485Y331993D01*
X702563Y331929D01*
X702637Y331863D01*
X702709Y331794D01*
X702778Y331722D01*
X702844Y331648D01*
X702908Y331570D01*
X702968Y331491D01*
X703025Y331409D01*
X703079Y331325D01*
X703129Y331239D01*
X703176Y331151D01*
X703220Y331061D01*
X703260Y330970D01*
X703296Y330877D01*
X703329Y330783D01*
X703358Y330687D01*
X703383Y330591D01*
X703404Y330494D01*
X703422Y330395D01*
X703435Y330297D01*
X703445Y330197D01*
X703451Y330098D01*
X703453Y329998D01*
X703453Y328728D01*
X703453Y338519D02*
X692023Y338519D01*
X692023Y341694D01*
X692025Y341805D01*
X692031Y341915D01*
X692040Y342026D01*
X692054Y342136D01*
X692071Y342245D01*
X692092Y342354D01*
X692117Y342462D01*
X692146Y342569D01*
X692178Y342675D01*
X692214Y342780D01*
X692254Y342883D01*
X692297Y342985D01*
X692344Y343086D01*
X692395Y343185D01*
X692448Y343282D01*
X692505Y343376D01*
X692566Y343469D01*
X692629Y343560D01*
X692696Y343649D01*
X692766Y343735D01*
X692839Y343818D01*
X692914Y343900D01*
X692992Y343978D01*
X693074Y344053D01*
X693157Y344126D01*
X693243Y344196D01*
X693332Y344263D01*
X693423Y344326D01*
X693516Y344387D01*
X693611Y344444D01*
X693707Y344497D01*
X693806Y344548D01*
X693907Y344595D01*
X694009Y344638D01*
X694112Y344678D01*
X694217Y344714D01*
X694323Y344746D01*
X694430Y344775D01*
X694538Y344800D01*
X694647Y344821D01*
X694756Y344838D01*
X694866Y344852D01*
X694977Y344861D01*
X695087Y344867D01*
X695198Y344869D01*
X695309Y344867D01*
X695419Y344861D01*
X695530Y344852D01*
X695640Y344838D01*
X695749Y344821D01*
X695858Y344800D01*
X695966Y344775D01*
X696073Y344746D01*
X696179Y344714D01*
X696284Y344678D01*
X696387Y344638D01*
X696489Y344595D01*
X696590Y344548D01*
X696689Y344497D01*
X696786Y344444D01*
X696880Y344387D01*
X696973Y344326D01*
X697064Y344263D01*
X697153Y344196D01*
X697239Y344126D01*
X697322Y344053D01*
X697404Y343978D01*
X697482Y343900D01*
X697557Y343818D01*
X697630Y343735D01*
X697700Y343649D01*
X697767Y343560D01*
X697830Y343469D01*
X697891Y343376D01*
X697948Y343282D01*
X698001Y343185D01*
X698052Y343086D01*
X698099Y342985D01*
X698142Y342883D01*
X698182Y342780D01*
X698218Y342675D01*
X698250Y342569D01*
X698279Y342462D01*
X698304Y342354D01*
X698325Y342245D01*
X698342Y342136D01*
X698356Y342026D01*
X698365Y341915D01*
X698371Y341805D01*
X698373Y341694D01*
X698373Y338519D01*
X692023Y352870D02*
X692025Y352974D01*
X692031Y353079D01*
X692040Y353183D01*
X692053Y353286D01*
X692071Y353389D01*
X692091Y353491D01*
X692116Y353593D01*
X692144Y353693D01*
X692176Y353793D01*
X692212Y353891D01*
X692251Y353988D01*
X692293Y354083D01*
X692339Y354177D01*
X692389Y354269D01*
X692441Y354359D01*
X692497Y354447D01*
X692557Y354533D01*
X692619Y354617D01*
X692684Y354698D01*
X692752Y354777D01*
X692824Y354854D01*
X692897Y354927D01*
X692974Y354999D01*
X693053Y355067D01*
X693134Y355132D01*
X693218Y355194D01*
X693304Y355254D01*
X693392Y355310D01*
X693482Y355362D01*
X693574Y355412D01*
X693668Y355458D01*
X693763Y355500D01*
X693860Y355539D01*
X693958Y355575D01*
X694058Y355607D01*
X694158Y355635D01*
X694260Y355660D01*
X694362Y355680D01*
X694465Y355698D01*
X694568Y355711D01*
X694672Y355720D01*
X694777Y355726D01*
X694881Y355728D01*
X692023Y352870D02*
X692025Y352752D01*
X692031Y352633D01*
X692040Y352515D01*
X692053Y352398D01*
X692071Y352281D01*
X692091Y352164D01*
X692116Y352048D01*
X692144Y351933D01*
X692177Y351820D01*
X692212Y351707D01*
X692252Y351595D01*
X692294Y351485D01*
X692341Y351376D01*
X692391Y351268D01*
X692444Y351163D01*
X692501Y351059D01*
X692561Y350957D01*
X692624Y350857D01*
X692691Y350759D01*
X692760Y350663D01*
X692833Y350570D01*
X692909Y350479D01*
X692987Y350390D01*
X693069Y350304D01*
X693153Y350221D01*
X693239Y350140D01*
X693329Y350063D01*
X693420Y349988D01*
X693514Y349916D01*
X693611Y349847D01*
X693709Y349782D01*
X693810Y349719D01*
X693913Y349660D01*
X694017Y349604D01*
X694123Y349552D01*
X694231Y349503D01*
X694340Y349458D01*
X694451Y349416D01*
X694563Y349378D01*
X697103Y354775D02*
X697028Y354851D01*
X696949Y354926D01*
X696868Y354997D01*
X696784Y355066D01*
X696698Y355131D01*
X696610Y355193D01*
X696520Y355253D01*
X696428Y355309D01*
X696333Y355362D01*
X696237Y355411D01*
X696139Y355457D01*
X696040Y355500D01*
X695939Y355539D01*
X695837Y355574D01*
X695734Y355606D01*
X695630Y355634D01*
X695525Y355659D01*
X695418Y355680D01*
X695312Y355697D01*
X695205Y355710D01*
X695097Y355719D01*
X694989Y355725D01*
X694881Y355727D01*
X697103Y354775D02*
X703453Y349377D01*
X703453Y355727D01*
D10*
X685800Y120650D02*
X685800Y107950D01*
X679450Y101600D01*
X666750Y101600D01*
X660400Y107950D01*
X666750Y127000D02*
X679450Y127000D01*
X685800Y120650D01*
X666750Y127000D02*
X660400Y120650D01*
X660400Y107950D01*
D11*
X692023Y92508D02*
X700913Y92508D01*
X701013Y92506D01*
X701112Y92500D01*
X701212Y92490D01*
X701310Y92477D01*
X701409Y92459D01*
X701506Y92438D01*
X701602Y92413D01*
X701698Y92384D01*
X701792Y92351D01*
X701885Y92315D01*
X701976Y92275D01*
X702066Y92231D01*
X702154Y92184D01*
X702240Y92134D01*
X702324Y92080D01*
X702406Y92023D01*
X702485Y91963D01*
X702563Y91899D01*
X702637Y91833D01*
X702709Y91764D01*
X702778Y91692D01*
X702844Y91618D01*
X702908Y91540D01*
X702968Y91461D01*
X703025Y91379D01*
X703079Y91295D01*
X703129Y91209D01*
X703176Y91121D01*
X703220Y91031D01*
X703260Y90940D01*
X703296Y90847D01*
X703329Y90753D01*
X703358Y90657D01*
X703383Y90561D01*
X703404Y90464D01*
X703422Y90365D01*
X703435Y90267D01*
X703445Y90167D01*
X703451Y90068D01*
X703453Y89968D01*
X703453Y88698D01*
X703453Y98489D02*
X692023Y98489D01*
X692023Y101664D01*
X692025Y101775D01*
X692031Y101885D01*
X692040Y101996D01*
X692054Y102106D01*
X692071Y102215D01*
X692092Y102324D01*
X692117Y102432D01*
X692146Y102539D01*
X692178Y102645D01*
X692214Y102750D01*
X692254Y102853D01*
X692297Y102955D01*
X692344Y103056D01*
X692395Y103155D01*
X692448Y103251D01*
X692505Y103346D01*
X692566Y103439D01*
X692629Y103530D01*
X692696Y103619D01*
X692766Y103705D01*
X692839Y103788D01*
X692914Y103870D01*
X692992Y103948D01*
X693074Y104023D01*
X693157Y104096D01*
X693243Y104166D01*
X693332Y104233D01*
X693423Y104296D01*
X693516Y104357D01*
X693611Y104414D01*
X693707Y104467D01*
X693806Y104518D01*
X693907Y104565D01*
X694009Y104608D01*
X694112Y104648D01*
X694217Y104684D01*
X694323Y104716D01*
X694430Y104745D01*
X694538Y104770D01*
X694647Y104791D01*
X694756Y104808D01*
X694866Y104822D01*
X694977Y104831D01*
X695087Y104837D01*
X695198Y104839D01*
X695309Y104837D01*
X695419Y104831D01*
X695530Y104822D01*
X695640Y104808D01*
X695749Y104791D01*
X695858Y104770D01*
X695966Y104745D01*
X696073Y104716D01*
X696179Y104684D01*
X696284Y104648D01*
X696387Y104608D01*
X696489Y104565D01*
X696590Y104518D01*
X696689Y104467D01*
X696786Y104414D01*
X696880Y104357D01*
X696973Y104296D01*
X697064Y104233D01*
X697153Y104166D01*
X697239Y104096D01*
X697322Y104023D01*
X697404Y103948D01*
X697482Y103870D01*
X697557Y103788D01*
X697630Y103705D01*
X697700Y103619D01*
X697767Y103530D01*
X697830Y103439D01*
X697891Y103346D01*
X697948Y103252D01*
X698001Y103155D01*
X698052Y103056D01*
X698099Y102955D01*
X698142Y102853D01*
X698182Y102750D01*
X698218Y102645D01*
X698250Y102539D01*
X698279Y102432D01*
X698304Y102324D01*
X698325Y102215D01*
X698342Y102106D01*
X698356Y101996D01*
X698365Y101885D01*
X698371Y101775D01*
X698373Y101664D01*
X698373Y98489D01*
X692023Y112840D02*
X692025Y112944D01*
X692031Y113049D01*
X692040Y113153D01*
X692053Y113256D01*
X692071Y113359D01*
X692091Y113461D01*
X692116Y113563D01*
X692144Y113663D01*
X692176Y113763D01*
X692212Y113861D01*
X692251Y113958D01*
X692293Y114053D01*
X692339Y114147D01*
X692389Y114239D01*
X692441Y114329D01*
X692497Y114417D01*
X692557Y114503D01*
X692619Y114587D01*
X692684Y114668D01*
X692752Y114747D01*
X692824Y114824D01*
X692897Y114897D01*
X692974Y114969D01*
X693053Y115037D01*
X693134Y115102D01*
X693218Y115164D01*
X693304Y115224D01*
X693392Y115280D01*
X693482Y115332D01*
X693574Y115382D01*
X693668Y115428D01*
X693763Y115470D01*
X693860Y115509D01*
X693958Y115545D01*
X694058Y115577D01*
X694158Y115605D01*
X694260Y115630D01*
X694362Y115650D01*
X694465Y115668D01*
X694568Y115681D01*
X694672Y115690D01*
X694777Y115696D01*
X694881Y115698D01*
X692023Y112840D02*
X692025Y112722D01*
X692031Y112603D01*
X692040Y112485D01*
X692053Y112368D01*
X692071Y112251D01*
X692091Y112134D01*
X692116Y112018D01*
X692144Y111903D01*
X692177Y111790D01*
X692212Y111677D01*
X692252Y111565D01*
X692294Y111455D01*
X692341Y111346D01*
X692391Y111238D01*
X692444Y111133D01*
X692501Y111029D01*
X692561Y110927D01*
X692624Y110827D01*
X692691Y110729D01*
X692760Y110633D01*
X692833Y110540D01*
X692909Y110449D01*
X692987Y110360D01*
X693069Y110274D01*
X693153Y110191D01*
X693239Y110110D01*
X693329Y110033D01*
X693420Y109958D01*
X693514Y109886D01*
X693611Y109817D01*
X693709Y109752D01*
X693810Y109689D01*
X693913Y109630D01*
X694017Y109574D01*
X694123Y109522D01*
X694231Y109473D01*
X694340Y109428D01*
X694451Y109386D01*
X694563Y109348D01*
X697103Y114745D02*
X697028Y114821D01*
X696949Y114896D01*
X696868Y114967D01*
X696784Y115036D01*
X696698Y115101D01*
X696610Y115163D01*
X696520Y115223D01*
X696428Y115279D01*
X696333Y115332D01*
X696237Y115381D01*
X696139Y115427D01*
X696040Y115470D01*
X695939Y115509D01*
X695837Y115544D01*
X695734Y115576D01*
X695630Y115604D01*
X695525Y115629D01*
X695418Y115650D01*
X695312Y115667D01*
X695205Y115680D01*
X695097Y115689D01*
X694989Y115695D01*
X694881Y115697D01*
X697103Y114745D02*
X703453Y109347D01*
X703453Y115697D01*
X697738Y120777D02*
X697513Y120780D01*
X697288Y120788D01*
X697064Y120801D01*
X696840Y120820D01*
X696616Y120844D01*
X696393Y120873D01*
X696171Y120908D01*
X695950Y120948D01*
X695730Y120994D01*
X695511Y121044D01*
X695293Y121100D01*
X695076Y121161D01*
X694861Y121227D01*
X694648Y121298D01*
X694437Y121375D01*
X694227Y121456D01*
X694019Y121542D01*
X693814Y121633D01*
X693611Y121729D01*
X693523Y121761D01*
X693436Y121797D01*
X693350Y121836D01*
X693266Y121879D01*
X693184Y121925D01*
X693104Y121974D01*
X693026Y122026D01*
X692950Y122082D01*
X692876Y122140D01*
X692805Y122202D01*
X692736Y122266D01*
X692670Y122333D01*
X692607Y122402D01*
X692546Y122474D01*
X692488Y122548D01*
X692434Y122625D01*
X692382Y122703D01*
X692334Y122784D01*
X692289Y122866D01*
X692247Y122951D01*
X692209Y123037D01*
X692174Y123124D01*
X692142Y123212D01*
X692115Y123302D01*
X692090Y123393D01*
X692070Y123485D01*
X692053Y123577D01*
X692040Y123671D01*
X692031Y123764D01*
X692025Y123858D01*
X692023Y123952D01*
X692025Y124046D01*
X692031Y124140D01*
X692040Y124233D01*
X692053Y124327D01*
X692070Y124419D01*
X692090Y124511D01*
X692115Y124602D01*
X692142Y124692D01*
X692174Y124780D01*
X692209Y124867D01*
X692247Y124953D01*
X692289Y125038D01*
X692334Y125120D01*
X692382Y125201D01*
X692434Y125279D01*
X692488Y125356D01*
X692546Y125430D01*
X692607Y125502D01*
X692670Y125571D01*
X692736Y125638D01*
X692805Y125702D01*
X692876Y125764D01*
X692950Y125822D01*
X693026Y125878D01*
X693104Y125930D01*
X693184Y125979D01*
X693266Y126025D01*
X693350Y126068D01*
X693436Y126107D01*
X693523Y126143D01*
X693611Y126175D01*
X693814Y126271D01*
X694019Y126362D01*
X694227Y126448D01*
X694437Y126529D01*
X694648Y126606D01*
X694861Y126677D01*
X695076Y126743D01*
X695293Y126804D01*
X695511Y126860D01*
X695730Y126910D01*
X695950Y126956D01*
X696171Y126996D01*
X696393Y127031D01*
X696616Y127060D01*
X696840Y127084D01*
X697064Y127103D01*
X697288Y127116D01*
X697513Y127124D01*
X697738Y127127D01*
X697738Y120777D02*
X697963Y120780D01*
X698188Y120788D01*
X698412Y120801D01*
X698636Y120820D01*
X698860Y120844D01*
X699083Y120873D01*
X699305Y120908D01*
X699526Y120948D01*
X699746Y120994D01*
X699965Y121044D01*
X700183Y121100D01*
X700400Y121161D01*
X700615Y121227D01*
X700828Y121298D01*
X701039Y121375D01*
X701249Y121456D01*
X701457Y121542D01*
X701662Y121633D01*
X701865Y121729D01*
X701866Y121729D02*
X701954Y121761D01*
X702041Y121797D01*
X702127Y121836D01*
X702211Y121879D01*
X702293Y121925D01*
X702373Y121974D01*
X702451Y122026D01*
X702527Y122082D01*
X702601Y122140D01*
X702672Y122202D01*
X702741Y122266D01*
X702807Y122333D01*
X702870Y122402D01*
X702931Y122474D01*
X702989Y122548D01*
X703043Y122625D01*
X703095Y122703D01*
X703143Y122784D01*
X703188Y122866D01*
X703230Y122951D01*
X703268Y123037D01*
X703303Y123124D01*
X703335Y123212D01*
X703362Y123302D01*
X703387Y123393D01*
X703407Y123485D01*
X703424Y123577D01*
X703437Y123671D01*
X703446Y123764D01*
X703452Y123858D01*
X703454Y123952D01*
X701865Y126175D02*
X701662Y126271D01*
X701457Y126362D01*
X701249Y126448D01*
X701039Y126529D01*
X700828Y126606D01*
X700615Y126677D01*
X700400Y126743D01*
X700183Y126804D01*
X699965Y126860D01*
X699746Y126910D01*
X699526Y126956D01*
X699305Y126996D01*
X699083Y127031D01*
X698860Y127060D01*
X698636Y127084D01*
X698412Y127103D01*
X698188Y127116D01*
X697963Y127124D01*
X697738Y127127D01*
X701866Y126175D02*
X701954Y126143D01*
X702041Y126107D01*
X702127Y126068D01*
X702211Y126025D01*
X702293Y125979D01*
X702373Y125930D01*
X702451Y125878D01*
X702527Y125822D01*
X702601Y125764D01*
X702672Y125702D01*
X702741Y125638D01*
X702807Y125571D01*
X702870Y125502D01*
X702931Y125430D01*
X702989Y125356D01*
X703043Y125279D01*
X703095Y125201D01*
X703143Y125120D01*
X703188Y125038D01*
X703230Y124953D01*
X703268Y124867D01*
X703303Y124780D01*
X703335Y124692D01*
X703362Y124602D01*
X703387Y124511D01*
X703407Y124419D01*
X703424Y124327D01*
X703437Y124233D01*
X703446Y124140D01*
X703452Y124046D01*
X703454Y123952D01*
X700913Y121412D02*
X694563Y126492D01*
D10*
X635000Y95250D02*
X635000Y82550D01*
X635000Y95250D02*
X641350Y101600D01*
X654050Y101600D01*
X660400Y95250D01*
X654050Y76200D02*
X641350Y76200D01*
X635000Y82550D01*
X654050Y76200D02*
X660400Y82550D01*
X660400Y95250D01*
D11*
X626237Y79883D02*
X617347Y79883D01*
X626237Y79883D02*
X626337Y79881D01*
X626436Y79875D01*
X626536Y79865D01*
X626634Y79852D01*
X626733Y79834D01*
X626830Y79813D01*
X626926Y79788D01*
X627022Y79759D01*
X627116Y79726D01*
X627209Y79690D01*
X627300Y79650D01*
X627390Y79606D01*
X627478Y79559D01*
X627564Y79509D01*
X627648Y79455D01*
X627730Y79398D01*
X627809Y79338D01*
X627887Y79274D01*
X627961Y79208D01*
X628033Y79139D01*
X628102Y79067D01*
X628168Y78993D01*
X628232Y78915D01*
X628292Y78836D01*
X628349Y78754D01*
X628403Y78670D01*
X628453Y78584D01*
X628500Y78496D01*
X628544Y78406D01*
X628584Y78315D01*
X628620Y78222D01*
X628653Y78128D01*
X628682Y78032D01*
X628707Y77936D01*
X628728Y77839D01*
X628746Y77740D01*
X628759Y77642D01*
X628769Y77542D01*
X628775Y77443D01*
X628777Y77343D01*
X628777Y76073D01*
X628777Y85863D02*
X617347Y85863D01*
X617347Y89038D01*
X617349Y89149D01*
X617355Y89259D01*
X617364Y89370D01*
X617378Y89480D01*
X617395Y89589D01*
X617416Y89698D01*
X617441Y89806D01*
X617470Y89913D01*
X617502Y90019D01*
X617538Y90124D01*
X617578Y90227D01*
X617621Y90329D01*
X617668Y90430D01*
X617719Y90529D01*
X617772Y90625D01*
X617829Y90720D01*
X617890Y90813D01*
X617953Y90904D01*
X618020Y90993D01*
X618090Y91079D01*
X618163Y91162D01*
X618238Y91244D01*
X618316Y91322D01*
X618398Y91397D01*
X618481Y91470D01*
X618567Y91540D01*
X618656Y91607D01*
X618747Y91670D01*
X618840Y91731D01*
X618935Y91788D01*
X619031Y91841D01*
X619130Y91892D01*
X619231Y91939D01*
X619333Y91982D01*
X619436Y92022D01*
X619541Y92058D01*
X619647Y92090D01*
X619754Y92119D01*
X619862Y92144D01*
X619971Y92165D01*
X620080Y92182D01*
X620190Y92196D01*
X620301Y92205D01*
X620411Y92211D01*
X620522Y92213D01*
X620633Y92211D01*
X620743Y92205D01*
X620854Y92196D01*
X620964Y92182D01*
X621073Y92165D01*
X621182Y92144D01*
X621290Y92119D01*
X621397Y92090D01*
X621503Y92058D01*
X621608Y92022D01*
X621711Y91982D01*
X621813Y91939D01*
X621914Y91892D01*
X622013Y91841D01*
X622110Y91788D01*
X622204Y91731D01*
X622297Y91670D01*
X622388Y91607D01*
X622477Y91540D01*
X622563Y91470D01*
X622646Y91397D01*
X622728Y91322D01*
X622806Y91244D01*
X622881Y91162D01*
X622954Y91079D01*
X623024Y90993D01*
X623091Y90904D01*
X623154Y90813D01*
X623215Y90720D01*
X623272Y90626D01*
X623325Y90529D01*
X623376Y90430D01*
X623423Y90329D01*
X623466Y90227D01*
X623506Y90124D01*
X623542Y90019D01*
X623574Y89913D01*
X623603Y89806D01*
X623628Y89698D01*
X623649Y89589D01*
X623666Y89480D01*
X623680Y89370D01*
X623689Y89259D01*
X623695Y89149D01*
X623697Y89038D01*
X623697Y85863D01*
X617347Y100214D02*
X617349Y100318D01*
X617355Y100423D01*
X617364Y100527D01*
X617377Y100630D01*
X617395Y100733D01*
X617415Y100835D01*
X617440Y100937D01*
X617468Y101037D01*
X617500Y101137D01*
X617536Y101235D01*
X617575Y101332D01*
X617617Y101427D01*
X617663Y101521D01*
X617713Y101613D01*
X617765Y101703D01*
X617821Y101791D01*
X617881Y101877D01*
X617943Y101961D01*
X618008Y102042D01*
X618076Y102121D01*
X618148Y102198D01*
X618221Y102271D01*
X618298Y102343D01*
X618377Y102411D01*
X618458Y102476D01*
X618542Y102538D01*
X618628Y102598D01*
X618716Y102654D01*
X618806Y102706D01*
X618898Y102756D01*
X618992Y102802D01*
X619087Y102844D01*
X619184Y102883D01*
X619282Y102919D01*
X619382Y102951D01*
X619482Y102979D01*
X619584Y103004D01*
X619686Y103024D01*
X619789Y103042D01*
X619892Y103055D01*
X619996Y103064D01*
X620101Y103070D01*
X620205Y103072D01*
X617347Y100214D02*
X617349Y100096D01*
X617355Y99977D01*
X617364Y99859D01*
X617377Y99742D01*
X617395Y99625D01*
X617415Y99508D01*
X617440Y99392D01*
X617468Y99277D01*
X617501Y99164D01*
X617536Y99051D01*
X617576Y98939D01*
X617618Y98829D01*
X617665Y98720D01*
X617715Y98612D01*
X617768Y98507D01*
X617825Y98403D01*
X617885Y98301D01*
X617948Y98201D01*
X618015Y98103D01*
X618084Y98007D01*
X618157Y97914D01*
X618233Y97823D01*
X618311Y97734D01*
X618393Y97648D01*
X618477Y97565D01*
X618563Y97484D01*
X618653Y97407D01*
X618744Y97332D01*
X618838Y97260D01*
X618935Y97191D01*
X619033Y97126D01*
X619134Y97063D01*
X619237Y97004D01*
X619341Y96948D01*
X619447Y96896D01*
X619555Y96847D01*
X619664Y96802D01*
X619775Y96760D01*
X619887Y96722D01*
X622427Y102120D02*
X622352Y102196D01*
X622273Y102271D01*
X622192Y102342D01*
X622108Y102411D01*
X622022Y102476D01*
X621934Y102538D01*
X621844Y102598D01*
X621752Y102654D01*
X621657Y102707D01*
X621561Y102756D01*
X621463Y102802D01*
X621364Y102845D01*
X621263Y102884D01*
X621161Y102919D01*
X621058Y102951D01*
X620954Y102979D01*
X620849Y103004D01*
X620742Y103025D01*
X620636Y103042D01*
X620529Y103055D01*
X620421Y103064D01*
X620313Y103070D01*
X620205Y103072D01*
X622427Y102119D02*
X628777Y96722D01*
X628777Y103072D01*
X619887Y108152D02*
X617347Y111327D01*
X628777Y111327D01*
X628777Y108152D02*
X628777Y114502D01*
D10*
X685800Y95250D02*
X685800Y82550D01*
X679450Y76200D01*
X666750Y76200D01*
X660400Y82550D01*
X666750Y101600D02*
X679450Y101600D01*
X685800Y95250D01*
X666750Y101600D02*
X660400Y95250D01*
X660400Y82550D01*
D11*
X692023Y67108D02*
X700913Y67108D01*
X701013Y67106D01*
X701112Y67100D01*
X701212Y67090D01*
X701310Y67077D01*
X701409Y67059D01*
X701506Y67038D01*
X701602Y67013D01*
X701698Y66984D01*
X701792Y66951D01*
X701885Y66915D01*
X701976Y66875D01*
X702066Y66831D01*
X702154Y66784D01*
X702240Y66734D01*
X702324Y66680D01*
X702406Y66623D01*
X702485Y66563D01*
X702563Y66499D01*
X702637Y66433D01*
X702709Y66364D01*
X702778Y66292D01*
X702844Y66218D01*
X702908Y66140D01*
X702968Y66061D01*
X703025Y65979D01*
X703079Y65895D01*
X703129Y65809D01*
X703176Y65721D01*
X703220Y65631D01*
X703260Y65540D01*
X703296Y65447D01*
X703329Y65353D01*
X703358Y65257D01*
X703383Y65161D01*
X703404Y65064D01*
X703422Y64965D01*
X703435Y64867D01*
X703445Y64767D01*
X703451Y64668D01*
X703453Y64568D01*
X703453Y63298D01*
X703453Y73089D02*
X692023Y73089D01*
X692023Y76264D01*
X692025Y76375D01*
X692031Y76485D01*
X692040Y76596D01*
X692054Y76706D01*
X692071Y76815D01*
X692092Y76924D01*
X692117Y77032D01*
X692146Y77139D01*
X692178Y77245D01*
X692214Y77350D01*
X692254Y77453D01*
X692297Y77555D01*
X692344Y77656D01*
X692395Y77755D01*
X692448Y77851D01*
X692505Y77946D01*
X692566Y78039D01*
X692629Y78130D01*
X692696Y78219D01*
X692766Y78305D01*
X692839Y78388D01*
X692914Y78470D01*
X692992Y78548D01*
X693074Y78623D01*
X693157Y78696D01*
X693243Y78766D01*
X693332Y78833D01*
X693423Y78896D01*
X693516Y78957D01*
X693611Y79014D01*
X693707Y79067D01*
X693806Y79118D01*
X693907Y79165D01*
X694009Y79208D01*
X694112Y79248D01*
X694217Y79284D01*
X694323Y79316D01*
X694430Y79345D01*
X694538Y79370D01*
X694647Y79391D01*
X694756Y79408D01*
X694866Y79422D01*
X694977Y79431D01*
X695087Y79437D01*
X695198Y79439D01*
X695309Y79437D01*
X695419Y79431D01*
X695530Y79422D01*
X695640Y79408D01*
X695749Y79391D01*
X695858Y79370D01*
X695966Y79345D01*
X696073Y79316D01*
X696179Y79284D01*
X696284Y79248D01*
X696387Y79208D01*
X696489Y79165D01*
X696590Y79118D01*
X696689Y79067D01*
X696786Y79014D01*
X696880Y78957D01*
X696973Y78896D01*
X697064Y78833D01*
X697153Y78766D01*
X697239Y78696D01*
X697322Y78623D01*
X697404Y78548D01*
X697482Y78470D01*
X697557Y78388D01*
X697630Y78305D01*
X697700Y78219D01*
X697767Y78130D01*
X697830Y78039D01*
X697891Y77946D01*
X697948Y77852D01*
X698001Y77755D01*
X698052Y77656D01*
X698099Y77555D01*
X698142Y77453D01*
X698182Y77350D01*
X698218Y77245D01*
X698250Y77139D01*
X698279Y77032D01*
X698304Y76924D01*
X698325Y76815D01*
X698342Y76706D01*
X698356Y76596D01*
X698365Y76485D01*
X698371Y76375D01*
X698373Y76264D01*
X698373Y73089D01*
X692023Y87440D02*
X692025Y87544D01*
X692031Y87649D01*
X692040Y87753D01*
X692053Y87856D01*
X692071Y87959D01*
X692091Y88061D01*
X692116Y88163D01*
X692144Y88263D01*
X692176Y88363D01*
X692212Y88461D01*
X692251Y88558D01*
X692293Y88653D01*
X692339Y88747D01*
X692389Y88839D01*
X692441Y88929D01*
X692497Y89017D01*
X692557Y89103D01*
X692619Y89187D01*
X692684Y89268D01*
X692752Y89347D01*
X692824Y89424D01*
X692897Y89497D01*
X692974Y89569D01*
X693053Y89637D01*
X693134Y89702D01*
X693218Y89764D01*
X693304Y89824D01*
X693392Y89880D01*
X693482Y89932D01*
X693574Y89982D01*
X693668Y90028D01*
X693763Y90070D01*
X693860Y90109D01*
X693958Y90145D01*
X694058Y90177D01*
X694158Y90205D01*
X694260Y90230D01*
X694362Y90250D01*
X694465Y90268D01*
X694568Y90281D01*
X694672Y90290D01*
X694777Y90296D01*
X694881Y90298D01*
X692023Y87440D02*
X692025Y87322D01*
X692031Y87203D01*
X692040Y87085D01*
X692053Y86968D01*
X692071Y86851D01*
X692091Y86734D01*
X692116Y86618D01*
X692144Y86503D01*
X692177Y86390D01*
X692212Y86277D01*
X692252Y86165D01*
X692294Y86055D01*
X692341Y85946D01*
X692391Y85838D01*
X692444Y85733D01*
X692501Y85629D01*
X692561Y85527D01*
X692624Y85427D01*
X692691Y85329D01*
X692760Y85233D01*
X692833Y85140D01*
X692909Y85049D01*
X692987Y84960D01*
X693069Y84874D01*
X693153Y84791D01*
X693239Y84710D01*
X693329Y84633D01*
X693420Y84558D01*
X693514Y84486D01*
X693611Y84417D01*
X693709Y84352D01*
X693810Y84289D01*
X693913Y84230D01*
X694017Y84174D01*
X694123Y84122D01*
X694231Y84073D01*
X694340Y84028D01*
X694451Y83986D01*
X694563Y83948D01*
X697103Y89345D02*
X697028Y89421D01*
X696949Y89496D01*
X696868Y89567D01*
X696784Y89636D01*
X696698Y89701D01*
X696610Y89763D01*
X696520Y89823D01*
X696428Y89879D01*
X696333Y89932D01*
X696237Y89981D01*
X696139Y90027D01*
X696040Y90070D01*
X695939Y90109D01*
X695837Y90144D01*
X695734Y90176D01*
X695630Y90204D01*
X695525Y90229D01*
X695418Y90250D01*
X695312Y90267D01*
X695205Y90280D01*
X695097Y90289D01*
X694989Y90295D01*
X694881Y90297D01*
X697103Y89345D02*
X703453Y83947D01*
X703453Y90297D01*
X692023Y98870D02*
X692025Y98974D01*
X692031Y99079D01*
X692040Y99183D01*
X692053Y99286D01*
X692071Y99389D01*
X692091Y99491D01*
X692116Y99593D01*
X692144Y99693D01*
X692176Y99793D01*
X692212Y99891D01*
X692251Y99988D01*
X692293Y100083D01*
X692339Y100177D01*
X692389Y100269D01*
X692441Y100359D01*
X692497Y100447D01*
X692557Y100533D01*
X692619Y100617D01*
X692684Y100698D01*
X692752Y100777D01*
X692824Y100854D01*
X692897Y100927D01*
X692974Y100999D01*
X693053Y101067D01*
X693134Y101132D01*
X693218Y101194D01*
X693304Y101254D01*
X693392Y101310D01*
X693482Y101362D01*
X693574Y101412D01*
X693668Y101458D01*
X693763Y101500D01*
X693860Y101539D01*
X693958Y101575D01*
X694058Y101607D01*
X694158Y101635D01*
X694260Y101660D01*
X694362Y101680D01*
X694465Y101698D01*
X694568Y101711D01*
X694672Y101720D01*
X694777Y101726D01*
X694881Y101728D01*
X692023Y98870D02*
X692025Y98752D01*
X692031Y98633D01*
X692040Y98515D01*
X692053Y98398D01*
X692071Y98281D01*
X692091Y98164D01*
X692116Y98048D01*
X692144Y97933D01*
X692177Y97820D01*
X692212Y97707D01*
X692252Y97595D01*
X692294Y97485D01*
X692341Y97376D01*
X692391Y97268D01*
X692444Y97163D01*
X692501Y97059D01*
X692561Y96957D01*
X692624Y96857D01*
X692691Y96759D01*
X692760Y96663D01*
X692833Y96570D01*
X692909Y96479D01*
X692987Y96390D01*
X693069Y96304D01*
X693153Y96221D01*
X693239Y96140D01*
X693329Y96063D01*
X693420Y95988D01*
X693514Y95916D01*
X693611Y95847D01*
X693709Y95782D01*
X693810Y95719D01*
X693913Y95660D01*
X694017Y95604D01*
X694123Y95552D01*
X694231Y95503D01*
X694340Y95458D01*
X694451Y95416D01*
X694563Y95378D01*
X697103Y100775D02*
X697028Y100851D01*
X696949Y100926D01*
X696868Y100997D01*
X696784Y101066D01*
X696698Y101131D01*
X696610Y101193D01*
X696520Y101253D01*
X696428Y101309D01*
X696333Y101362D01*
X696237Y101411D01*
X696139Y101457D01*
X696040Y101500D01*
X695939Y101539D01*
X695837Y101574D01*
X695734Y101606D01*
X695630Y101634D01*
X695525Y101659D01*
X695418Y101680D01*
X695312Y101697D01*
X695205Y101710D01*
X695097Y101719D01*
X694989Y101725D01*
X694881Y101727D01*
X697103Y100775D02*
X703453Y95377D01*
X703453Y101727D01*
D10*
X635000Y311150D02*
X635000Y323850D01*
X641350Y330200D01*
X654050Y330200D01*
X660400Y323850D01*
X654050Y304800D02*
X641350Y304800D01*
X635000Y311150D01*
X654050Y304800D02*
X660400Y311150D01*
X660400Y323850D01*
D11*
X626237Y308483D02*
X617347Y308483D01*
X626237Y308483D02*
X626337Y308481D01*
X626436Y308475D01*
X626536Y308465D01*
X626634Y308452D01*
X626733Y308434D01*
X626830Y308413D01*
X626926Y308388D01*
X627022Y308359D01*
X627116Y308326D01*
X627209Y308290D01*
X627300Y308250D01*
X627390Y308206D01*
X627478Y308159D01*
X627564Y308109D01*
X627648Y308055D01*
X627730Y307998D01*
X627809Y307938D01*
X627887Y307874D01*
X627961Y307808D01*
X628033Y307739D01*
X628102Y307667D01*
X628168Y307593D01*
X628232Y307515D01*
X628292Y307436D01*
X628349Y307354D01*
X628403Y307270D01*
X628453Y307184D01*
X628500Y307096D01*
X628544Y307006D01*
X628584Y306915D01*
X628620Y306822D01*
X628653Y306728D01*
X628682Y306632D01*
X628707Y306536D01*
X628728Y306439D01*
X628746Y306340D01*
X628759Y306242D01*
X628769Y306142D01*
X628775Y306043D01*
X628777Y305943D01*
X628777Y304673D01*
X628777Y314463D02*
X617347Y314463D01*
X617347Y317638D01*
X617349Y317749D01*
X617355Y317859D01*
X617364Y317970D01*
X617378Y318080D01*
X617395Y318189D01*
X617416Y318298D01*
X617441Y318406D01*
X617470Y318513D01*
X617502Y318619D01*
X617538Y318724D01*
X617578Y318827D01*
X617621Y318929D01*
X617668Y319030D01*
X617719Y319129D01*
X617772Y319226D01*
X617829Y319320D01*
X617890Y319413D01*
X617953Y319504D01*
X618020Y319593D01*
X618090Y319679D01*
X618163Y319762D01*
X618238Y319844D01*
X618316Y319922D01*
X618398Y319997D01*
X618481Y320070D01*
X618567Y320140D01*
X618656Y320207D01*
X618747Y320270D01*
X618840Y320331D01*
X618935Y320388D01*
X619031Y320441D01*
X619130Y320492D01*
X619231Y320539D01*
X619333Y320582D01*
X619436Y320622D01*
X619541Y320658D01*
X619647Y320690D01*
X619754Y320719D01*
X619862Y320744D01*
X619971Y320765D01*
X620080Y320782D01*
X620190Y320796D01*
X620301Y320805D01*
X620411Y320811D01*
X620522Y320813D01*
X620633Y320811D01*
X620743Y320805D01*
X620854Y320796D01*
X620964Y320782D01*
X621073Y320765D01*
X621182Y320744D01*
X621290Y320719D01*
X621397Y320690D01*
X621503Y320658D01*
X621608Y320622D01*
X621711Y320582D01*
X621813Y320539D01*
X621914Y320492D01*
X622013Y320441D01*
X622110Y320388D01*
X622204Y320331D01*
X622297Y320270D01*
X622388Y320207D01*
X622477Y320140D01*
X622563Y320070D01*
X622646Y319997D01*
X622728Y319922D01*
X622806Y319844D01*
X622881Y319762D01*
X622954Y319679D01*
X623024Y319593D01*
X623091Y319504D01*
X623154Y319413D01*
X623215Y319320D01*
X623272Y319226D01*
X623325Y319129D01*
X623376Y319030D01*
X623423Y318929D01*
X623466Y318827D01*
X623506Y318724D01*
X623542Y318619D01*
X623574Y318513D01*
X623603Y318406D01*
X623628Y318298D01*
X623649Y318189D01*
X623666Y318080D01*
X623680Y317970D01*
X623689Y317859D01*
X623695Y317749D01*
X623697Y317638D01*
X623697Y314463D01*
X628777Y325322D02*
X628777Y328497D01*
X628775Y328608D01*
X628769Y328718D01*
X628760Y328829D01*
X628746Y328939D01*
X628729Y329048D01*
X628708Y329157D01*
X628683Y329265D01*
X628654Y329372D01*
X628622Y329478D01*
X628586Y329583D01*
X628546Y329686D01*
X628503Y329788D01*
X628456Y329889D01*
X628405Y329988D01*
X628352Y330085D01*
X628295Y330179D01*
X628234Y330272D01*
X628171Y330363D01*
X628104Y330452D01*
X628034Y330538D01*
X627961Y330621D01*
X627886Y330703D01*
X627808Y330781D01*
X627726Y330856D01*
X627643Y330929D01*
X627557Y330999D01*
X627468Y331066D01*
X627377Y331129D01*
X627284Y331190D01*
X627190Y331247D01*
X627093Y331300D01*
X626994Y331351D01*
X626893Y331398D01*
X626791Y331441D01*
X626688Y331481D01*
X626583Y331517D01*
X626477Y331549D01*
X626370Y331578D01*
X626262Y331603D01*
X626153Y331624D01*
X626044Y331641D01*
X625934Y331655D01*
X625823Y331664D01*
X625713Y331670D01*
X625602Y331672D01*
X625491Y331670D01*
X625381Y331664D01*
X625270Y331655D01*
X625160Y331641D01*
X625051Y331624D01*
X624942Y331603D01*
X624834Y331578D01*
X624727Y331549D01*
X624621Y331517D01*
X624516Y331481D01*
X624413Y331441D01*
X624311Y331398D01*
X624210Y331351D01*
X624111Y331300D01*
X624015Y331247D01*
X623920Y331190D01*
X623827Y331129D01*
X623736Y331066D01*
X623647Y330999D01*
X623561Y330929D01*
X623478Y330856D01*
X623396Y330781D01*
X623318Y330703D01*
X623243Y330621D01*
X623170Y330538D01*
X623100Y330452D01*
X623033Y330363D01*
X622970Y330272D01*
X622909Y330179D01*
X622852Y330085D01*
X622799Y329988D01*
X622748Y329889D01*
X622701Y329788D01*
X622658Y329686D01*
X622618Y329583D01*
X622582Y329478D01*
X622550Y329372D01*
X622521Y329265D01*
X622496Y329157D01*
X622475Y329048D01*
X622458Y328939D01*
X622444Y328829D01*
X622435Y328718D01*
X622429Y328608D01*
X622427Y328497D01*
X617347Y329132D02*
X617347Y325322D01*
X617347Y329132D02*
X617349Y329232D01*
X617355Y329331D01*
X617365Y329431D01*
X617378Y329529D01*
X617396Y329628D01*
X617417Y329725D01*
X617442Y329821D01*
X617471Y329917D01*
X617504Y330011D01*
X617540Y330104D01*
X617580Y330195D01*
X617624Y330285D01*
X617671Y330373D01*
X617721Y330459D01*
X617775Y330543D01*
X617832Y330625D01*
X617892Y330704D01*
X617956Y330782D01*
X618022Y330856D01*
X618091Y330928D01*
X618163Y330997D01*
X618237Y331063D01*
X618315Y331127D01*
X618394Y331187D01*
X618476Y331244D01*
X618560Y331298D01*
X618646Y331348D01*
X618734Y331395D01*
X618824Y331439D01*
X618915Y331479D01*
X619008Y331515D01*
X619102Y331548D01*
X619198Y331577D01*
X619294Y331602D01*
X619391Y331623D01*
X619490Y331641D01*
X619588Y331654D01*
X619688Y331664D01*
X619787Y331670D01*
X619887Y331672D01*
X619987Y331670D01*
X620086Y331664D01*
X620186Y331654D01*
X620284Y331641D01*
X620383Y331623D01*
X620480Y331602D01*
X620576Y331577D01*
X620672Y331548D01*
X620766Y331515D01*
X620859Y331479D01*
X620950Y331439D01*
X621040Y331395D01*
X621128Y331348D01*
X621214Y331298D01*
X621298Y331244D01*
X621380Y331187D01*
X621459Y331127D01*
X621537Y331063D01*
X621611Y330997D01*
X621683Y330928D01*
X621752Y330856D01*
X621818Y330782D01*
X621882Y330704D01*
X621942Y330625D01*
X621999Y330543D01*
X622053Y330459D01*
X622103Y330373D01*
X622150Y330285D01*
X622194Y330195D01*
X622234Y330104D01*
X622270Y330011D01*
X622303Y329917D01*
X622332Y329821D01*
X622357Y329725D01*
X622378Y329628D01*
X622396Y329529D01*
X622409Y329431D01*
X622419Y329331D01*
X622425Y329232D01*
X622427Y329132D01*
X622427Y326592D01*
D10*
X685800Y323850D02*
X685800Y311150D01*
X679450Y304800D01*
X666750Y304800D01*
X660400Y311150D01*
X666750Y330200D02*
X679450Y330200D01*
X685800Y323850D01*
X666750Y330200D02*
X660400Y323850D01*
X660400Y311150D01*
D11*
X692023Y307138D02*
X700913Y307138D01*
X701013Y307136D01*
X701112Y307130D01*
X701212Y307120D01*
X701310Y307107D01*
X701409Y307089D01*
X701506Y307068D01*
X701602Y307043D01*
X701698Y307014D01*
X701792Y306981D01*
X701885Y306945D01*
X701976Y306905D01*
X702066Y306861D01*
X702154Y306814D01*
X702240Y306764D01*
X702324Y306710D01*
X702406Y306653D01*
X702485Y306593D01*
X702563Y306529D01*
X702637Y306463D01*
X702709Y306394D01*
X702778Y306322D01*
X702844Y306248D01*
X702908Y306170D01*
X702968Y306091D01*
X703025Y306009D01*
X703079Y305925D01*
X703129Y305839D01*
X703176Y305751D01*
X703220Y305661D01*
X703260Y305570D01*
X703296Y305477D01*
X703329Y305383D01*
X703358Y305287D01*
X703383Y305191D01*
X703404Y305094D01*
X703422Y304995D01*
X703435Y304897D01*
X703445Y304797D01*
X703451Y304698D01*
X703453Y304598D01*
X703453Y303328D01*
X703453Y313119D02*
X692023Y313119D01*
X692023Y316294D01*
X692025Y316405D01*
X692031Y316515D01*
X692040Y316626D01*
X692054Y316736D01*
X692071Y316845D01*
X692092Y316954D01*
X692117Y317062D01*
X692146Y317169D01*
X692178Y317275D01*
X692214Y317380D01*
X692254Y317483D01*
X692297Y317585D01*
X692344Y317686D01*
X692395Y317785D01*
X692448Y317882D01*
X692505Y317976D01*
X692566Y318069D01*
X692629Y318160D01*
X692696Y318249D01*
X692766Y318335D01*
X692839Y318418D01*
X692914Y318500D01*
X692992Y318578D01*
X693074Y318653D01*
X693157Y318726D01*
X693243Y318796D01*
X693332Y318863D01*
X693423Y318926D01*
X693516Y318987D01*
X693611Y319044D01*
X693707Y319097D01*
X693806Y319148D01*
X693907Y319195D01*
X694009Y319238D01*
X694112Y319278D01*
X694217Y319314D01*
X694323Y319346D01*
X694430Y319375D01*
X694538Y319400D01*
X694647Y319421D01*
X694756Y319438D01*
X694866Y319452D01*
X694977Y319461D01*
X695087Y319467D01*
X695198Y319469D01*
X695309Y319467D01*
X695419Y319461D01*
X695530Y319452D01*
X695640Y319438D01*
X695749Y319421D01*
X695858Y319400D01*
X695966Y319375D01*
X696073Y319346D01*
X696179Y319314D01*
X696284Y319278D01*
X696387Y319238D01*
X696489Y319195D01*
X696590Y319148D01*
X696689Y319097D01*
X696786Y319044D01*
X696880Y318987D01*
X696973Y318926D01*
X697064Y318863D01*
X697153Y318796D01*
X697239Y318726D01*
X697322Y318653D01*
X697404Y318578D01*
X697482Y318500D01*
X697557Y318418D01*
X697630Y318335D01*
X697700Y318249D01*
X697767Y318160D01*
X697830Y318069D01*
X697891Y317976D01*
X697948Y317882D01*
X698001Y317785D01*
X698052Y317686D01*
X698099Y317585D01*
X698142Y317483D01*
X698182Y317380D01*
X698218Y317275D01*
X698250Y317169D01*
X698279Y317062D01*
X698304Y316954D01*
X698325Y316845D01*
X698342Y316736D01*
X698356Y316626D01*
X698365Y316515D01*
X698371Y316405D01*
X698373Y316294D01*
X698373Y313119D01*
X700913Y323977D02*
X692023Y326517D01*
X700913Y323977D02*
X700913Y330327D01*
X698373Y328422D02*
X703453Y328422D01*
D10*
X635000Y298450D02*
X635000Y285750D01*
X635000Y298450D02*
X641350Y304800D01*
X654050Y304800D01*
X660400Y298450D01*
X654050Y279400D02*
X641350Y279400D01*
X635000Y285750D01*
X654050Y279400D02*
X660400Y285750D01*
X660400Y298450D01*
D11*
X626237Y283083D02*
X617347Y283083D01*
X626237Y283083D02*
X626337Y283081D01*
X626436Y283075D01*
X626536Y283065D01*
X626634Y283052D01*
X626733Y283034D01*
X626830Y283013D01*
X626926Y282988D01*
X627022Y282959D01*
X627116Y282926D01*
X627209Y282890D01*
X627300Y282850D01*
X627390Y282806D01*
X627478Y282759D01*
X627564Y282709D01*
X627648Y282655D01*
X627730Y282598D01*
X627809Y282538D01*
X627887Y282474D01*
X627961Y282408D01*
X628033Y282339D01*
X628102Y282267D01*
X628168Y282193D01*
X628232Y282115D01*
X628292Y282036D01*
X628349Y281954D01*
X628403Y281870D01*
X628453Y281784D01*
X628500Y281696D01*
X628544Y281606D01*
X628584Y281515D01*
X628620Y281422D01*
X628653Y281328D01*
X628682Y281232D01*
X628707Y281136D01*
X628728Y281039D01*
X628746Y280940D01*
X628759Y280842D01*
X628769Y280742D01*
X628775Y280643D01*
X628777Y280543D01*
X628777Y279273D01*
X628777Y289063D02*
X617347Y289063D01*
X617347Y292238D01*
X617349Y292349D01*
X617355Y292459D01*
X617364Y292570D01*
X617378Y292680D01*
X617395Y292789D01*
X617416Y292898D01*
X617441Y293006D01*
X617470Y293113D01*
X617502Y293219D01*
X617538Y293324D01*
X617578Y293427D01*
X617621Y293529D01*
X617668Y293630D01*
X617719Y293729D01*
X617772Y293826D01*
X617829Y293920D01*
X617890Y294013D01*
X617953Y294104D01*
X618020Y294193D01*
X618090Y294279D01*
X618163Y294362D01*
X618238Y294444D01*
X618316Y294522D01*
X618398Y294597D01*
X618481Y294670D01*
X618567Y294740D01*
X618656Y294807D01*
X618747Y294870D01*
X618840Y294931D01*
X618935Y294988D01*
X619031Y295041D01*
X619130Y295092D01*
X619231Y295139D01*
X619333Y295182D01*
X619436Y295222D01*
X619541Y295258D01*
X619647Y295290D01*
X619754Y295319D01*
X619862Y295344D01*
X619971Y295365D01*
X620080Y295382D01*
X620190Y295396D01*
X620301Y295405D01*
X620411Y295411D01*
X620522Y295413D01*
X620633Y295411D01*
X620743Y295405D01*
X620854Y295396D01*
X620964Y295382D01*
X621073Y295365D01*
X621182Y295344D01*
X621290Y295319D01*
X621397Y295290D01*
X621503Y295258D01*
X621608Y295222D01*
X621711Y295182D01*
X621813Y295139D01*
X621914Y295092D01*
X622013Y295041D01*
X622110Y294988D01*
X622204Y294931D01*
X622297Y294870D01*
X622388Y294807D01*
X622477Y294740D01*
X622563Y294670D01*
X622646Y294597D01*
X622728Y294522D01*
X622806Y294444D01*
X622881Y294362D01*
X622954Y294279D01*
X623024Y294193D01*
X623091Y294104D01*
X623154Y294013D01*
X623215Y293920D01*
X623272Y293826D01*
X623325Y293729D01*
X623376Y293630D01*
X623423Y293529D01*
X623466Y293427D01*
X623506Y293324D01*
X623542Y293219D01*
X623574Y293113D01*
X623603Y293006D01*
X623628Y292898D01*
X623649Y292789D01*
X623666Y292680D01*
X623680Y292570D01*
X623689Y292459D01*
X623695Y292349D01*
X623697Y292238D01*
X623697Y289063D01*
X628777Y299922D02*
X628777Y303732D01*
X628775Y303832D01*
X628769Y303931D01*
X628759Y304031D01*
X628746Y304129D01*
X628728Y304228D01*
X628707Y304325D01*
X628682Y304421D01*
X628653Y304517D01*
X628620Y304611D01*
X628584Y304704D01*
X628544Y304795D01*
X628500Y304885D01*
X628453Y304973D01*
X628403Y305059D01*
X628349Y305143D01*
X628292Y305225D01*
X628232Y305304D01*
X628168Y305382D01*
X628102Y305456D01*
X628033Y305528D01*
X627961Y305597D01*
X627887Y305663D01*
X627809Y305727D01*
X627730Y305787D01*
X627648Y305844D01*
X627564Y305898D01*
X627478Y305948D01*
X627390Y305995D01*
X627300Y306039D01*
X627209Y306079D01*
X627116Y306115D01*
X627022Y306148D01*
X626926Y306177D01*
X626830Y306202D01*
X626733Y306223D01*
X626634Y306241D01*
X626536Y306254D01*
X626436Y306264D01*
X626337Y306270D01*
X626237Y306272D01*
X624967Y306272D01*
X624867Y306270D01*
X624768Y306264D01*
X624668Y306254D01*
X624570Y306241D01*
X624471Y306223D01*
X624374Y306202D01*
X624278Y306177D01*
X624182Y306148D01*
X624088Y306115D01*
X623995Y306079D01*
X623904Y306039D01*
X623814Y305995D01*
X623726Y305948D01*
X623640Y305898D01*
X623556Y305844D01*
X623474Y305787D01*
X623395Y305727D01*
X623317Y305663D01*
X623243Y305597D01*
X623171Y305528D01*
X623102Y305456D01*
X623036Y305382D01*
X622972Y305304D01*
X622912Y305225D01*
X622855Y305143D01*
X622801Y305059D01*
X622751Y304973D01*
X622704Y304885D01*
X622660Y304795D01*
X622620Y304704D01*
X622584Y304611D01*
X622551Y304517D01*
X622522Y304421D01*
X622497Y304325D01*
X622476Y304228D01*
X622458Y304129D01*
X622445Y304031D01*
X622435Y303931D01*
X622429Y303832D01*
X622427Y303732D01*
X622427Y299922D01*
X617347Y299922D01*
X617347Y306272D01*
D10*
X635000Y273050D02*
X635000Y260350D01*
X635000Y273050D02*
X641350Y279400D01*
X654050Y279400D01*
X660400Y273050D01*
X654050Y254000D02*
X641350Y254000D01*
X635000Y260350D01*
X654050Y254000D02*
X660400Y260350D01*
X660400Y273050D01*
D11*
X626237Y257683D02*
X617347Y257683D01*
X626237Y257683D02*
X626337Y257681D01*
X626436Y257675D01*
X626536Y257665D01*
X626634Y257652D01*
X626733Y257634D01*
X626830Y257613D01*
X626926Y257588D01*
X627022Y257559D01*
X627116Y257526D01*
X627209Y257490D01*
X627300Y257450D01*
X627390Y257406D01*
X627478Y257359D01*
X627564Y257309D01*
X627648Y257255D01*
X627730Y257198D01*
X627809Y257138D01*
X627887Y257074D01*
X627961Y257008D01*
X628033Y256939D01*
X628102Y256867D01*
X628168Y256793D01*
X628232Y256715D01*
X628292Y256636D01*
X628349Y256554D01*
X628403Y256470D01*
X628453Y256384D01*
X628500Y256296D01*
X628544Y256206D01*
X628584Y256115D01*
X628620Y256022D01*
X628653Y255928D01*
X628682Y255832D01*
X628707Y255736D01*
X628728Y255639D01*
X628746Y255540D01*
X628759Y255442D01*
X628769Y255342D01*
X628775Y255243D01*
X628777Y255143D01*
X628777Y253873D01*
X628777Y263663D02*
X617347Y263663D01*
X617347Y266838D01*
X617349Y266949D01*
X617355Y267059D01*
X617364Y267170D01*
X617378Y267280D01*
X617395Y267389D01*
X617416Y267498D01*
X617441Y267606D01*
X617470Y267713D01*
X617502Y267819D01*
X617538Y267924D01*
X617578Y268027D01*
X617621Y268129D01*
X617668Y268230D01*
X617719Y268329D01*
X617772Y268426D01*
X617829Y268520D01*
X617890Y268613D01*
X617953Y268704D01*
X618020Y268793D01*
X618090Y268879D01*
X618163Y268962D01*
X618238Y269044D01*
X618316Y269122D01*
X618398Y269197D01*
X618481Y269270D01*
X618567Y269340D01*
X618656Y269407D01*
X618747Y269470D01*
X618840Y269531D01*
X618935Y269588D01*
X619031Y269641D01*
X619130Y269692D01*
X619231Y269739D01*
X619333Y269782D01*
X619436Y269822D01*
X619541Y269858D01*
X619647Y269890D01*
X619754Y269919D01*
X619862Y269944D01*
X619971Y269965D01*
X620080Y269982D01*
X620190Y269996D01*
X620301Y270005D01*
X620411Y270011D01*
X620522Y270013D01*
X620633Y270011D01*
X620743Y270005D01*
X620854Y269996D01*
X620964Y269982D01*
X621073Y269965D01*
X621182Y269944D01*
X621290Y269919D01*
X621397Y269890D01*
X621503Y269858D01*
X621608Y269822D01*
X621711Y269782D01*
X621813Y269739D01*
X621914Y269692D01*
X622013Y269641D01*
X622110Y269588D01*
X622204Y269531D01*
X622297Y269470D01*
X622388Y269407D01*
X622477Y269340D01*
X622563Y269270D01*
X622646Y269197D01*
X622728Y269122D01*
X622806Y269044D01*
X622881Y268962D01*
X622954Y268879D01*
X623024Y268793D01*
X623091Y268704D01*
X623154Y268613D01*
X623215Y268520D01*
X623272Y268426D01*
X623325Y268329D01*
X623376Y268230D01*
X623423Y268129D01*
X623466Y268027D01*
X623506Y267924D01*
X623542Y267819D01*
X623574Y267713D01*
X623603Y267606D01*
X623628Y267498D01*
X623649Y267389D01*
X623666Y267280D01*
X623680Y267170D01*
X623689Y267059D01*
X623695Y266949D01*
X623697Y266838D01*
X623697Y263663D01*
X622427Y274522D02*
X622427Y278332D01*
X622429Y278432D01*
X622435Y278531D01*
X622445Y278631D01*
X622458Y278729D01*
X622476Y278828D01*
X622497Y278925D01*
X622522Y279021D01*
X622551Y279117D01*
X622584Y279211D01*
X622620Y279304D01*
X622660Y279395D01*
X622704Y279485D01*
X622751Y279573D01*
X622801Y279659D01*
X622855Y279743D01*
X622912Y279825D01*
X622972Y279904D01*
X623036Y279982D01*
X623102Y280056D01*
X623171Y280128D01*
X623243Y280197D01*
X623317Y280263D01*
X623395Y280327D01*
X623474Y280387D01*
X623556Y280444D01*
X623640Y280498D01*
X623726Y280548D01*
X623814Y280595D01*
X623904Y280639D01*
X623995Y280679D01*
X624088Y280715D01*
X624182Y280748D01*
X624278Y280777D01*
X624374Y280802D01*
X624471Y280823D01*
X624570Y280841D01*
X624668Y280854D01*
X624768Y280864D01*
X624867Y280870D01*
X624967Y280872D01*
X625602Y280872D01*
X625713Y280870D01*
X625823Y280864D01*
X625934Y280855D01*
X626044Y280841D01*
X626153Y280824D01*
X626262Y280803D01*
X626370Y280778D01*
X626477Y280749D01*
X626583Y280717D01*
X626688Y280681D01*
X626791Y280641D01*
X626893Y280598D01*
X626994Y280551D01*
X627093Y280500D01*
X627190Y280447D01*
X627284Y280390D01*
X627377Y280329D01*
X627468Y280266D01*
X627557Y280199D01*
X627643Y280129D01*
X627726Y280056D01*
X627808Y279981D01*
X627886Y279903D01*
X627961Y279821D01*
X628034Y279738D01*
X628104Y279652D01*
X628171Y279563D01*
X628234Y279472D01*
X628295Y279379D01*
X628352Y279284D01*
X628405Y279188D01*
X628456Y279089D01*
X628503Y278988D01*
X628546Y278886D01*
X628586Y278783D01*
X628622Y278678D01*
X628654Y278572D01*
X628683Y278465D01*
X628708Y278357D01*
X628729Y278248D01*
X628746Y278139D01*
X628760Y278029D01*
X628769Y277918D01*
X628775Y277808D01*
X628777Y277697D01*
X628775Y277586D01*
X628769Y277476D01*
X628760Y277365D01*
X628746Y277255D01*
X628729Y277146D01*
X628708Y277037D01*
X628683Y276929D01*
X628654Y276822D01*
X628622Y276716D01*
X628586Y276611D01*
X628546Y276508D01*
X628503Y276406D01*
X628456Y276305D01*
X628405Y276206D01*
X628352Y276109D01*
X628295Y276015D01*
X628234Y275922D01*
X628171Y275831D01*
X628104Y275742D01*
X628034Y275656D01*
X627961Y275573D01*
X627886Y275491D01*
X627808Y275413D01*
X627726Y275338D01*
X627643Y275265D01*
X627557Y275195D01*
X627468Y275128D01*
X627377Y275065D01*
X627284Y275004D01*
X627190Y274947D01*
X627093Y274894D01*
X626994Y274843D01*
X626893Y274796D01*
X626791Y274753D01*
X626688Y274713D01*
X626583Y274677D01*
X626477Y274645D01*
X626370Y274616D01*
X626262Y274591D01*
X626153Y274570D01*
X626044Y274553D01*
X625934Y274539D01*
X625823Y274530D01*
X625713Y274524D01*
X625602Y274522D01*
X622427Y274522D01*
X622287Y274524D01*
X622147Y274530D01*
X622007Y274539D01*
X621868Y274553D01*
X621729Y274570D01*
X621591Y274591D01*
X621453Y274616D01*
X621316Y274645D01*
X621180Y274677D01*
X621045Y274714D01*
X620911Y274754D01*
X620778Y274797D01*
X620646Y274845D01*
X620515Y274895D01*
X620386Y274950D01*
X620259Y275008D01*
X620133Y275069D01*
X620009Y275134D01*
X619887Y275203D01*
X619767Y275274D01*
X619649Y275349D01*
X619532Y275427D01*
X619418Y275509D01*
X619307Y275593D01*
X619198Y275681D01*
X619091Y275771D01*
X618986Y275865D01*
X618885Y275961D01*
X618786Y276060D01*
X618690Y276161D01*
X618596Y276266D01*
X618506Y276373D01*
X618418Y276482D01*
X618334Y276593D01*
X618252Y276707D01*
X618174Y276824D01*
X618099Y276942D01*
X618028Y277062D01*
X617959Y277184D01*
X617894Y277308D01*
X617833Y277434D01*
X617775Y277561D01*
X617720Y277690D01*
X617670Y277821D01*
X617622Y277953D01*
X617579Y278086D01*
X617539Y278220D01*
X617502Y278355D01*
X617470Y278491D01*
X617441Y278628D01*
X617416Y278766D01*
X617395Y278904D01*
X617378Y279043D01*
X617364Y279182D01*
X617355Y279322D01*
X617349Y279462D01*
X617347Y279602D01*
D10*
X635000Y247650D02*
X635000Y234950D01*
X635000Y247650D02*
X641350Y254000D01*
X654050Y254000D01*
X660400Y247650D01*
X654050Y228600D02*
X641350Y228600D01*
X635000Y234950D01*
X654050Y228600D02*
X660400Y234950D01*
X660400Y247650D01*
D11*
X626237Y232283D02*
X617347Y232283D01*
X626237Y232283D02*
X626337Y232281D01*
X626436Y232275D01*
X626536Y232265D01*
X626634Y232252D01*
X626733Y232234D01*
X626830Y232213D01*
X626926Y232188D01*
X627022Y232159D01*
X627116Y232126D01*
X627209Y232090D01*
X627300Y232050D01*
X627390Y232006D01*
X627478Y231959D01*
X627564Y231909D01*
X627648Y231855D01*
X627730Y231798D01*
X627809Y231738D01*
X627887Y231674D01*
X627961Y231608D01*
X628033Y231539D01*
X628102Y231467D01*
X628168Y231393D01*
X628232Y231315D01*
X628292Y231236D01*
X628349Y231154D01*
X628403Y231070D01*
X628453Y230984D01*
X628500Y230896D01*
X628544Y230806D01*
X628584Y230715D01*
X628620Y230622D01*
X628653Y230528D01*
X628682Y230432D01*
X628707Y230336D01*
X628728Y230239D01*
X628746Y230140D01*
X628759Y230042D01*
X628769Y229942D01*
X628775Y229843D01*
X628777Y229743D01*
X628777Y228473D01*
X628777Y238263D02*
X617347Y238263D01*
X617347Y241438D01*
X617349Y241549D01*
X617355Y241659D01*
X617364Y241770D01*
X617378Y241880D01*
X617395Y241989D01*
X617416Y242098D01*
X617441Y242206D01*
X617470Y242313D01*
X617502Y242419D01*
X617538Y242524D01*
X617578Y242627D01*
X617621Y242729D01*
X617668Y242830D01*
X617719Y242929D01*
X617772Y243026D01*
X617829Y243120D01*
X617890Y243213D01*
X617953Y243304D01*
X618020Y243393D01*
X618090Y243479D01*
X618163Y243562D01*
X618238Y243644D01*
X618316Y243722D01*
X618398Y243797D01*
X618481Y243870D01*
X618567Y243940D01*
X618656Y244007D01*
X618747Y244070D01*
X618840Y244131D01*
X618935Y244188D01*
X619031Y244241D01*
X619130Y244292D01*
X619231Y244339D01*
X619333Y244382D01*
X619436Y244422D01*
X619541Y244458D01*
X619647Y244490D01*
X619754Y244519D01*
X619862Y244544D01*
X619971Y244565D01*
X620080Y244582D01*
X620190Y244596D01*
X620301Y244605D01*
X620411Y244611D01*
X620522Y244613D01*
X620633Y244611D01*
X620743Y244605D01*
X620854Y244596D01*
X620964Y244582D01*
X621073Y244565D01*
X621182Y244544D01*
X621290Y244519D01*
X621397Y244490D01*
X621503Y244458D01*
X621608Y244422D01*
X621711Y244382D01*
X621813Y244339D01*
X621914Y244292D01*
X622013Y244241D01*
X622110Y244188D01*
X622204Y244131D01*
X622297Y244070D01*
X622388Y244007D01*
X622477Y243940D01*
X622563Y243870D01*
X622646Y243797D01*
X622728Y243722D01*
X622806Y243644D01*
X622881Y243562D01*
X622954Y243479D01*
X623024Y243393D01*
X623091Y243304D01*
X623154Y243213D01*
X623215Y243120D01*
X623272Y243026D01*
X623325Y242929D01*
X623376Y242830D01*
X623423Y242729D01*
X623466Y242627D01*
X623506Y242524D01*
X623542Y242419D01*
X623574Y242313D01*
X623603Y242206D01*
X623628Y242098D01*
X623649Y241989D01*
X623666Y241880D01*
X623680Y241770D01*
X623689Y241659D01*
X623695Y241549D01*
X623697Y241438D01*
X623697Y238263D01*
X618617Y249122D02*
X617347Y249122D01*
X617347Y255472D01*
X628777Y252297D01*
D10*
X635000Y222250D02*
X635000Y209550D01*
X635000Y222250D02*
X641350Y228600D01*
X654050Y228600D01*
X660400Y222250D01*
X654050Y203200D02*
X641350Y203200D01*
X635000Y209550D01*
X654050Y203200D02*
X660400Y209550D01*
X660400Y222250D01*
D11*
X626237Y206883D02*
X617347Y206883D01*
X626237Y206883D02*
X626337Y206881D01*
X626436Y206875D01*
X626536Y206865D01*
X626634Y206852D01*
X626733Y206834D01*
X626830Y206813D01*
X626926Y206788D01*
X627022Y206759D01*
X627116Y206726D01*
X627209Y206690D01*
X627300Y206650D01*
X627390Y206606D01*
X627478Y206559D01*
X627564Y206509D01*
X627648Y206455D01*
X627730Y206398D01*
X627809Y206338D01*
X627887Y206274D01*
X627961Y206208D01*
X628033Y206139D01*
X628102Y206067D01*
X628168Y205993D01*
X628232Y205915D01*
X628292Y205836D01*
X628349Y205754D01*
X628403Y205670D01*
X628453Y205584D01*
X628500Y205496D01*
X628544Y205406D01*
X628584Y205315D01*
X628620Y205222D01*
X628653Y205128D01*
X628682Y205032D01*
X628707Y204936D01*
X628728Y204839D01*
X628746Y204740D01*
X628759Y204642D01*
X628769Y204542D01*
X628775Y204443D01*
X628777Y204343D01*
X628777Y203073D01*
X628777Y212863D02*
X617347Y212863D01*
X617347Y216038D01*
X617349Y216149D01*
X617355Y216259D01*
X617364Y216370D01*
X617378Y216480D01*
X617395Y216589D01*
X617416Y216698D01*
X617441Y216806D01*
X617470Y216913D01*
X617502Y217019D01*
X617538Y217124D01*
X617578Y217227D01*
X617621Y217329D01*
X617668Y217430D01*
X617719Y217529D01*
X617772Y217626D01*
X617829Y217720D01*
X617890Y217813D01*
X617953Y217904D01*
X618020Y217993D01*
X618090Y218079D01*
X618163Y218162D01*
X618238Y218244D01*
X618316Y218322D01*
X618398Y218397D01*
X618481Y218470D01*
X618567Y218540D01*
X618656Y218607D01*
X618747Y218670D01*
X618840Y218731D01*
X618935Y218788D01*
X619031Y218841D01*
X619130Y218892D01*
X619231Y218939D01*
X619333Y218982D01*
X619436Y219022D01*
X619541Y219058D01*
X619647Y219090D01*
X619754Y219119D01*
X619862Y219144D01*
X619971Y219165D01*
X620080Y219182D01*
X620190Y219196D01*
X620301Y219205D01*
X620411Y219211D01*
X620522Y219213D01*
X620633Y219211D01*
X620743Y219205D01*
X620854Y219196D01*
X620964Y219182D01*
X621073Y219165D01*
X621182Y219144D01*
X621290Y219119D01*
X621397Y219090D01*
X621503Y219058D01*
X621608Y219022D01*
X621711Y218982D01*
X621813Y218939D01*
X621914Y218892D01*
X622013Y218841D01*
X622110Y218788D01*
X622204Y218731D01*
X622297Y218670D01*
X622388Y218607D01*
X622477Y218540D01*
X622563Y218470D01*
X622646Y218397D01*
X622728Y218322D01*
X622806Y218244D01*
X622881Y218162D01*
X622954Y218079D01*
X623024Y217993D01*
X623091Y217904D01*
X623154Y217813D01*
X623215Y217720D01*
X623272Y217626D01*
X623325Y217529D01*
X623376Y217430D01*
X623423Y217329D01*
X623466Y217227D01*
X623506Y217124D01*
X623542Y217019D01*
X623574Y216913D01*
X623603Y216806D01*
X623628Y216698D01*
X623649Y216589D01*
X623666Y216480D01*
X623680Y216370D01*
X623689Y216259D01*
X623695Y216149D01*
X623697Y216038D01*
X623697Y212863D01*
X625602Y223722D02*
X625491Y223724D01*
X625381Y223730D01*
X625270Y223739D01*
X625160Y223753D01*
X625051Y223770D01*
X624942Y223791D01*
X624834Y223816D01*
X624727Y223845D01*
X624621Y223877D01*
X624516Y223913D01*
X624413Y223953D01*
X624311Y223996D01*
X624210Y224043D01*
X624111Y224094D01*
X624015Y224147D01*
X623920Y224204D01*
X623827Y224265D01*
X623736Y224328D01*
X623647Y224395D01*
X623561Y224465D01*
X623478Y224538D01*
X623396Y224613D01*
X623318Y224691D01*
X623243Y224773D01*
X623170Y224856D01*
X623100Y224942D01*
X623033Y225031D01*
X622970Y225122D01*
X622909Y225215D01*
X622852Y225310D01*
X622799Y225406D01*
X622748Y225505D01*
X622701Y225606D01*
X622658Y225708D01*
X622618Y225811D01*
X622582Y225916D01*
X622550Y226022D01*
X622521Y226129D01*
X622496Y226237D01*
X622475Y226346D01*
X622458Y226455D01*
X622444Y226565D01*
X622435Y226676D01*
X622429Y226786D01*
X622427Y226897D01*
X622429Y227008D01*
X622435Y227118D01*
X622444Y227229D01*
X622458Y227339D01*
X622475Y227448D01*
X622496Y227557D01*
X622521Y227665D01*
X622550Y227772D01*
X622582Y227878D01*
X622618Y227983D01*
X622658Y228086D01*
X622701Y228188D01*
X622748Y228289D01*
X622799Y228388D01*
X622852Y228485D01*
X622909Y228579D01*
X622970Y228672D01*
X623033Y228763D01*
X623100Y228852D01*
X623170Y228938D01*
X623243Y229021D01*
X623318Y229103D01*
X623396Y229181D01*
X623478Y229256D01*
X623561Y229329D01*
X623647Y229399D01*
X623736Y229466D01*
X623827Y229529D01*
X623920Y229590D01*
X624015Y229647D01*
X624111Y229700D01*
X624210Y229751D01*
X624311Y229798D01*
X624413Y229841D01*
X624516Y229881D01*
X624621Y229917D01*
X624727Y229949D01*
X624834Y229978D01*
X624942Y230003D01*
X625051Y230024D01*
X625160Y230041D01*
X625270Y230055D01*
X625381Y230064D01*
X625491Y230070D01*
X625602Y230072D01*
X625713Y230070D01*
X625823Y230064D01*
X625934Y230055D01*
X626044Y230041D01*
X626153Y230024D01*
X626262Y230003D01*
X626370Y229978D01*
X626477Y229949D01*
X626583Y229917D01*
X626688Y229881D01*
X626791Y229841D01*
X626893Y229798D01*
X626994Y229751D01*
X627093Y229700D01*
X627190Y229647D01*
X627284Y229590D01*
X627377Y229529D01*
X627468Y229466D01*
X627557Y229399D01*
X627643Y229329D01*
X627726Y229256D01*
X627808Y229181D01*
X627886Y229103D01*
X627961Y229021D01*
X628034Y228938D01*
X628104Y228852D01*
X628171Y228763D01*
X628234Y228672D01*
X628295Y228579D01*
X628352Y228484D01*
X628405Y228388D01*
X628456Y228289D01*
X628503Y228188D01*
X628546Y228086D01*
X628586Y227983D01*
X628622Y227878D01*
X628654Y227772D01*
X628683Y227665D01*
X628708Y227557D01*
X628729Y227448D01*
X628746Y227339D01*
X628760Y227229D01*
X628769Y227118D01*
X628775Y227008D01*
X628777Y226897D01*
X628775Y226786D01*
X628769Y226676D01*
X628760Y226565D01*
X628746Y226455D01*
X628729Y226346D01*
X628708Y226237D01*
X628683Y226129D01*
X628654Y226022D01*
X628622Y225916D01*
X628586Y225811D01*
X628546Y225708D01*
X628503Y225606D01*
X628456Y225505D01*
X628405Y225406D01*
X628352Y225309D01*
X628295Y225215D01*
X628234Y225122D01*
X628171Y225031D01*
X628104Y224942D01*
X628034Y224856D01*
X627961Y224773D01*
X627886Y224691D01*
X627808Y224613D01*
X627726Y224538D01*
X627643Y224465D01*
X627557Y224395D01*
X627468Y224328D01*
X627377Y224265D01*
X627284Y224204D01*
X627190Y224147D01*
X627093Y224094D01*
X626994Y224043D01*
X626893Y223996D01*
X626791Y223953D01*
X626688Y223913D01*
X626583Y223877D01*
X626477Y223845D01*
X626370Y223816D01*
X626262Y223791D01*
X626153Y223770D01*
X626044Y223753D01*
X625934Y223739D01*
X625823Y223730D01*
X625713Y223724D01*
X625602Y223722D01*
X619887Y224357D02*
X619787Y224359D01*
X619688Y224365D01*
X619588Y224375D01*
X619490Y224388D01*
X619391Y224406D01*
X619294Y224427D01*
X619198Y224452D01*
X619102Y224481D01*
X619008Y224514D01*
X618915Y224550D01*
X618824Y224590D01*
X618734Y224634D01*
X618646Y224681D01*
X618560Y224731D01*
X618476Y224785D01*
X618394Y224842D01*
X618315Y224902D01*
X618237Y224966D01*
X618163Y225032D01*
X618091Y225101D01*
X618022Y225173D01*
X617956Y225247D01*
X617892Y225325D01*
X617832Y225404D01*
X617775Y225486D01*
X617721Y225570D01*
X617671Y225656D01*
X617624Y225744D01*
X617580Y225834D01*
X617540Y225925D01*
X617504Y226018D01*
X617471Y226112D01*
X617442Y226208D01*
X617417Y226304D01*
X617396Y226401D01*
X617378Y226500D01*
X617365Y226598D01*
X617355Y226698D01*
X617349Y226797D01*
X617347Y226897D01*
X617349Y226997D01*
X617355Y227096D01*
X617365Y227196D01*
X617378Y227294D01*
X617396Y227393D01*
X617417Y227490D01*
X617442Y227586D01*
X617471Y227682D01*
X617504Y227776D01*
X617540Y227869D01*
X617580Y227960D01*
X617624Y228050D01*
X617671Y228138D01*
X617721Y228224D01*
X617775Y228308D01*
X617832Y228390D01*
X617892Y228469D01*
X617956Y228547D01*
X618022Y228621D01*
X618091Y228693D01*
X618163Y228762D01*
X618237Y228828D01*
X618315Y228892D01*
X618394Y228952D01*
X618476Y229009D01*
X618560Y229063D01*
X618646Y229113D01*
X618734Y229160D01*
X618824Y229204D01*
X618915Y229244D01*
X619008Y229280D01*
X619102Y229313D01*
X619198Y229342D01*
X619294Y229367D01*
X619391Y229388D01*
X619490Y229406D01*
X619588Y229419D01*
X619688Y229429D01*
X619787Y229435D01*
X619887Y229437D01*
X619987Y229435D01*
X620086Y229429D01*
X620186Y229419D01*
X620284Y229406D01*
X620383Y229388D01*
X620480Y229367D01*
X620576Y229342D01*
X620672Y229313D01*
X620766Y229280D01*
X620859Y229244D01*
X620950Y229204D01*
X621040Y229160D01*
X621128Y229113D01*
X621214Y229063D01*
X621298Y229009D01*
X621380Y228952D01*
X621459Y228892D01*
X621537Y228828D01*
X621611Y228762D01*
X621683Y228693D01*
X621752Y228621D01*
X621818Y228547D01*
X621882Y228469D01*
X621942Y228390D01*
X621999Y228308D01*
X622053Y228224D01*
X622103Y228138D01*
X622150Y228050D01*
X622194Y227960D01*
X622234Y227869D01*
X622270Y227776D01*
X622303Y227682D01*
X622332Y227586D01*
X622357Y227490D01*
X622378Y227393D01*
X622396Y227294D01*
X622409Y227196D01*
X622419Y227096D01*
X622425Y226997D01*
X622427Y226897D01*
X622425Y226797D01*
X622419Y226698D01*
X622409Y226598D01*
X622396Y226500D01*
X622378Y226401D01*
X622357Y226304D01*
X622332Y226208D01*
X622303Y226112D01*
X622270Y226018D01*
X622234Y225925D01*
X622194Y225834D01*
X622150Y225744D01*
X622103Y225656D01*
X622053Y225570D01*
X621999Y225486D01*
X621942Y225404D01*
X621882Y225325D01*
X621818Y225247D01*
X621752Y225173D01*
X621683Y225101D01*
X621611Y225032D01*
X621537Y224966D01*
X621459Y224902D01*
X621380Y224842D01*
X621298Y224785D01*
X621214Y224731D01*
X621128Y224681D01*
X621040Y224634D01*
X620950Y224590D01*
X620859Y224550D01*
X620766Y224514D01*
X620672Y224481D01*
X620576Y224452D01*
X620480Y224427D01*
X620383Y224406D01*
X620284Y224388D01*
X620186Y224375D01*
X620086Y224365D01*
X619987Y224359D01*
X619887Y224357D01*
D10*
X635000Y196850D02*
X635000Y184150D01*
X635000Y196850D02*
X641350Y203200D01*
X654050Y203200D01*
X660400Y196850D01*
X654050Y177800D02*
X641350Y177800D01*
X635000Y184150D01*
X654050Y177800D02*
X660400Y184150D01*
X660400Y196850D01*
D11*
X626237Y181483D02*
X617347Y181483D01*
X626237Y181483D02*
X626337Y181481D01*
X626436Y181475D01*
X626536Y181465D01*
X626634Y181452D01*
X626733Y181434D01*
X626830Y181413D01*
X626926Y181388D01*
X627022Y181359D01*
X627116Y181326D01*
X627209Y181290D01*
X627300Y181250D01*
X627390Y181206D01*
X627478Y181159D01*
X627564Y181109D01*
X627648Y181055D01*
X627730Y180998D01*
X627809Y180938D01*
X627887Y180874D01*
X627961Y180808D01*
X628033Y180739D01*
X628102Y180667D01*
X628168Y180593D01*
X628232Y180515D01*
X628292Y180436D01*
X628349Y180354D01*
X628403Y180270D01*
X628453Y180184D01*
X628500Y180096D01*
X628544Y180006D01*
X628584Y179915D01*
X628620Y179822D01*
X628653Y179728D01*
X628682Y179632D01*
X628707Y179536D01*
X628728Y179439D01*
X628746Y179340D01*
X628759Y179242D01*
X628769Y179142D01*
X628775Y179043D01*
X628777Y178943D01*
X628777Y177673D01*
X628777Y187463D02*
X617347Y187463D01*
X617347Y190638D01*
X617349Y190749D01*
X617355Y190859D01*
X617364Y190970D01*
X617378Y191080D01*
X617395Y191189D01*
X617416Y191298D01*
X617441Y191406D01*
X617470Y191513D01*
X617502Y191619D01*
X617538Y191724D01*
X617578Y191827D01*
X617621Y191929D01*
X617668Y192030D01*
X617719Y192129D01*
X617772Y192226D01*
X617829Y192320D01*
X617890Y192413D01*
X617953Y192504D01*
X618020Y192593D01*
X618090Y192679D01*
X618163Y192762D01*
X618238Y192844D01*
X618316Y192922D01*
X618398Y192997D01*
X618481Y193070D01*
X618567Y193140D01*
X618656Y193207D01*
X618747Y193270D01*
X618840Y193331D01*
X618935Y193388D01*
X619031Y193441D01*
X619130Y193492D01*
X619231Y193539D01*
X619333Y193582D01*
X619436Y193622D01*
X619541Y193658D01*
X619647Y193690D01*
X619754Y193719D01*
X619862Y193744D01*
X619971Y193765D01*
X620080Y193782D01*
X620190Y193796D01*
X620301Y193805D01*
X620411Y193811D01*
X620522Y193813D01*
X620633Y193811D01*
X620743Y193805D01*
X620854Y193796D01*
X620964Y193782D01*
X621073Y193765D01*
X621182Y193744D01*
X621290Y193719D01*
X621397Y193690D01*
X621503Y193658D01*
X621608Y193622D01*
X621711Y193582D01*
X621813Y193539D01*
X621914Y193492D01*
X622013Y193441D01*
X622110Y193388D01*
X622204Y193331D01*
X622297Y193270D01*
X622388Y193207D01*
X622477Y193140D01*
X622563Y193070D01*
X622646Y192997D01*
X622728Y192922D01*
X622806Y192844D01*
X622881Y192762D01*
X622954Y192679D01*
X623024Y192593D01*
X623091Y192504D01*
X623154Y192413D01*
X623215Y192320D01*
X623272Y192226D01*
X623325Y192129D01*
X623376Y192030D01*
X623423Y191929D01*
X623466Y191827D01*
X623506Y191724D01*
X623542Y191619D01*
X623574Y191513D01*
X623603Y191406D01*
X623628Y191298D01*
X623649Y191189D01*
X623666Y191080D01*
X623680Y190970D01*
X623689Y190859D01*
X623695Y190749D01*
X623697Y190638D01*
X623697Y187463D01*
X623697Y200862D02*
X623697Y204672D01*
X623697Y200862D02*
X623695Y200762D01*
X623689Y200663D01*
X623679Y200563D01*
X623666Y200465D01*
X623648Y200366D01*
X623627Y200269D01*
X623602Y200173D01*
X623573Y200077D01*
X623540Y199983D01*
X623504Y199890D01*
X623464Y199799D01*
X623420Y199709D01*
X623373Y199621D01*
X623323Y199535D01*
X623269Y199451D01*
X623212Y199369D01*
X623152Y199290D01*
X623088Y199212D01*
X623022Y199138D01*
X622953Y199066D01*
X622881Y198997D01*
X622807Y198931D01*
X622729Y198867D01*
X622650Y198807D01*
X622568Y198750D01*
X622484Y198696D01*
X622398Y198646D01*
X622310Y198599D01*
X622220Y198555D01*
X622129Y198515D01*
X622036Y198479D01*
X621942Y198446D01*
X621846Y198417D01*
X621750Y198392D01*
X621653Y198371D01*
X621554Y198353D01*
X621456Y198340D01*
X621356Y198330D01*
X621257Y198324D01*
X621157Y198322D01*
X620522Y198322D01*
X620411Y198324D01*
X620301Y198330D01*
X620190Y198339D01*
X620080Y198353D01*
X619971Y198370D01*
X619862Y198391D01*
X619754Y198416D01*
X619647Y198445D01*
X619541Y198477D01*
X619436Y198513D01*
X619333Y198553D01*
X619231Y198596D01*
X619130Y198643D01*
X619031Y198694D01*
X618935Y198747D01*
X618840Y198804D01*
X618747Y198865D01*
X618656Y198928D01*
X618567Y198995D01*
X618481Y199065D01*
X618398Y199138D01*
X618316Y199213D01*
X618238Y199291D01*
X618163Y199373D01*
X618090Y199456D01*
X618020Y199542D01*
X617953Y199631D01*
X617890Y199722D01*
X617829Y199815D01*
X617772Y199910D01*
X617719Y200006D01*
X617668Y200105D01*
X617621Y200206D01*
X617578Y200308D01*
X617538Y200411D01*
X617502Y200516D01*
X617470Y200622D01*
X617441Y200729D01*
X617416Y200837D01*
X617395Y200946D01*
X617378Y201055D01*
X617364Y201165D01*
X617355Y201276D01*
X617349Y201386D01*
X617347Y201497D01*
X617349Y201608D01*
X617355Y201718D01*
X617364Y201829D01*
X617378Y201939D01*
X617395Y202048D01*
X617416Y202157D01*
X617441Y202265D01*
X617470Y202372D01*
X617502Y202478D01*
X617538Y202583D01*
X617578Y202686D01*
X617621Y202788D01*
X617668Y202889D01*
X617719Y202988D01*
X617772Y203085D01*
X617829Y203179D01*
X617890Y203272D01*
X617953Y203363D01*
X618020Y203452D01*
X618090Y203538D01*
X618163Y203621D01*
X618238Y203703D01*
X618316Y203781D01*
X618398Y203856D01*
X618481Y203929D01*
X618567Y203999D01*
X618656Y204066D01*
X618747Y204129D01*
X618840Y204190D01*
X618935Y204247D01*
X619031Y204300D01*
X619130Y204351D01*
X619231Y204398D01*
X619333Y204441D01*
X619436Y204481D01*
X619541Y204517D01*
X619647Y204549D01*
X619754Y204578D01*
X619862Y204603D01*
X619971Y204624D01*
X620080Y204641D01*
X620190Y204655D01*
X620301Y204664D01*
X620411Y204670D01*
X620522Y204672D01*
X623697Y204672D01*
X623837Y204670D01*
X623977Y204664D01*
X624117Y204655D01*
X624256Y204641D01*
X624395Y204624D01*
X624533Y204603D01*
X624671Y204578D01*
X624808Y204549D01*
X624944Y204517D01*
X625079Y204480D01*
X625213Y204440D01*
X625346Y204397D01*
X625478Y204349D01*
X625609Y204299D01*
X625738Y204244D01*
X625865Y204186D01*
X625991Y204125D01*
X626115Y204060D01*
X626237Y203991D01*
X626357Y203920D01*
X626475Y203845D01*
X626592Y203767D01*
X626706Y203685D01*
X626817Y203601D01*
X626926Y203513D01*
X627033Y203423D01*
X627138Y203329D01*
X627239Y203233D01*
X627338Y203134D01*
X627434Y203033D01*
X627528Y202928D01*
X627618Y202821D01*
X627706Y202712D01*
X627790Y202601D01*
X627872Y202487D01*
X627950Y202370D01*
X628025Y202252D01*
X628096Y202132D01*
X628165Y202010D01*
X628230Y201886D01*
X628291Y201760D01*
X628349Y201633D01*
X628404Y201504D01*
X628454Y201373D01*
X628502Y201241D01*
X628545Y201108D01*
X628585Y200974D01*
X628622Y200839D01*
X628654Y200703D01*
X628683Y200566D01*
X628708Y200428D01*
X628729Y200290D01*
X628746Y200151D01*
X628760Y200012D01*
X628769Y199872D01*
X628775Y199732D01*
X628777Y199592D01*
D12*
X273558Y394208D02*
X273558Y405892D01*
X276804Y405892D01*
X276917Y405890D01*
X277030Y405884D01*
X277143Y405874D01*
X277256Y405860D01*
X277368Y405843D01*
X277479Y405821D01*
X277589Y405796D01*
X277699Y405766D01*
X277807Y405733D01*
X277914Y405696D01*
X278020Y405656D01*
X278124Y405611D01*
X278227Y405563D01*
X278328Y405512D01*
X278427Y405457D01*
X278524Y405399D01*
X278619Y405337D01*
X278712Y405272D01*
X278802Y405204D01*
X278890Y405133D01*
X278976Y405058D01*
X279059Y404981D01*
X279139Y404901D01*
X279216Y404818D01*
X279291Y404732D01*
X279362Y404644D01*
X279430Y404554D01*
X279495Y404461D01*
X279557Y404366D01*
X279615Y404269D01*
X279670Y404170D01*
X279721Y404069D01*
X279769Y403966D01*
X279814Y403862D01*
X279854Y403756D01*
X279891Y403649D01*
X279924Y403541D01*
X279954Y403431D01*
X279979Y403321D01*
X280001Y403210D01*
X280018Y403098D01*
X280032Y402985D01*
X280042Y402872D01*
X280048Y402759D01*
X280050Y402646D01*
X280048Y402533D01*
X280042Y402420D01*
X280032Y402307D01*
X280018Y402194D01*
X280001Y402082D01*
X279979Y401971D01*
X279954Y401861D01*
X279924Y401751D01*
X279891Y401643D01*
X279854Y401536D01*
X279814Y401430D01*
X279769Y401326D01*
X279721Y401223D01*
X279670Y401122D01*
X279615Y401023D01*
X279557Y400926D01*
X279495Y400831D01*
X279430Y400738D01*
X279362Y400648D01*
X279291Y400560D01*
X279216Y400474D01*
X279139Y400391D01*
X279059Y400311D01*
X278976Y400234D01*
X278890Y400159D01*
X278802Y400088D01*
X278712Y400020D01*
X278619Y399955D01*
X278524Y399893D01*
X278427Y399835D01*
X278328Y399780D01*
X278227Y399729D01*
X278124Y399681D01*
X278020Y399636D01*
X277914Y399596D01*
X277807Y399559D01*
X277699Y399526D01*
X277589Y399496D01*
X277479Y399471D01*
X277368Y399449D01*
X277256Y399432D01*
X277143Y399418D01*
X277030Y399408D01*
X276917Y399402D01*
X276804Y399400D01*
X276804Y399401D02*
X273558Y399401D01*
X277453Y399401D02*
X280049Y394208D01*
X284914Y403296D02*
X288160Y405892D01*
X288160Y394208D01*
X291405Y394208D02*
X284914Y394208D01*
X171958Y394208D02*
X171958Y405892D01*
X175204Y405892D01*
X175317Y405890D01*
X175430Y405884D01*
X175543Y405874D01*
X175656Y405860D01*
X175768Y405843D01*
X175879Y405821D01*
X175989Y405796D01*
X176099Y405766D01*
X176207Y405733D01*
X176314Y405696D01*
X176420Y405656D01*
X176524Y405611D01*
X176627Y405563D01*
X176728Y405512D01*
X176827Y405457D01*
X176924Y405399D01*
X177019Y405337D01*
X177112Y405272D01*
X177202Y405204D01*
X177290Y405133D01*
X177376Y405058D01*
X177459Y404981D01*
X177539Y404901D01*
X177616Y404818D01*
X177691Y404732D01*
X177762Y404644D01*
X177830Y404554D01*
X177895Y404461D01*
X177957Y404366D01*
X178015Y404269D01*
X178070Y404170D01*
X178121Y404069D01*
X178169Y403966D01*
X178214Y403862D01*
X178254Y403756D01*
X178291Y403649D01*
X178324Y403541D01*
X178354Y403431D01*
X178379Y403321D01*
X178401Y403210D01*
X178418Y403098D01*
X178432Y402985D01*
X178442Y402872D01*
X178448Y402759D01*
X178450Y402646D01*
X178448Y402533D01*
X178442Y402420D01*
X178432Y402307D01*
X178418Y402194D01*
X178401Y402082D01*
X178379Y401971D01*
X178354Y401861D01*
X178324Y401751D01*
X178291Y401643D01*
X178254Y401536D01*
X178214Y401430D01*
X178169Y401326D01*
X178121Y401223D01*
X178070Y401122D01*
X178015Y401023D01*
X177957Y400926D01*
X177895Y400831D01*
X177830Y400738D01*
X177762Y400648D01*
X177691Y400560D01*
X177616Y400474D01*
X177539Y400391D01*
X177459Y400311D01*
X177376Y400234D01*
X177290Y400159D01*
X177202Y400088D01*
X177112Y400020D01*
X177019Y399955D01*
X176924Y399893D01*
X176827Y399835D01*
X176728Y399780D01*
X176627Y399729D01*
X176524Y399681D01*
X176420Y399636D01*
X176314Y399596D01*
X176207Y399559D01*
X176099Y399526D01*
X175989Y399496D01*
X175879Y399471D01*
X175768Y399449D01*
X175656Y399432D01*
X175543Y399418D01*
X175430Y399408D01*
X175317Y399402D01*
X175204Y399400D01*
X175204Y399401D02*
X171958Y399401D01*
X175853Y399401D02*
X178449Y394208D01*
X189805Y402971D02*
X189803Y403078D01*
X189797Y403184D01*
X189787Y403290D01*
X189774Y403396D01*
X189756Y403502D01*
X189735Y403606D01*
X189710Y403710D01*
X189681Y403813D01*
X189649Y403914D01*
X189612Y404014D01*
X189572Y404113D01*
X189529Y404211D01*
X189482Y404307D01*
X189431Y404401D01*
X189377Y404493D01*
X189320Y404583D01*
X189260Y404671D01*
X189196Y404756D01*
X189129Y404839D01*
X189059Y404920D01*
X188987Y404998D01*
X188911Y405074D01*
X188833Y405146D01*
X188752Y405216D01*
X188669Y405283D01*
X188584Y405347D01*
X188496Y405407D01*
X188406Y405464D01*
X188314Y405518D01*
X188220Y405569D01*
X188124Y405616D01*
X188026Y405659D01*
X187927Y405699D01*
X187827Y405736D01*
X187726Y405768D01*
X187623Y405797D01*
X187519Y405822D01*
X187415Y405843D01*
X187309Y405861D01*
X187203Y405874D01*
X187097Y405884D01*
X186991Y405890D01*
X186884Y405892D01*
X186763Y405890D01*
X186642Y405884D01*
X186522Y405874D01*
X186401Y405861D01*
X186282Y405843D01*
X186162Y405822D01*
X186044Y405797D01*
X185927Y405768D01*
X185810Y405735D01*
X185695Y405699D01*
X185581Y405658D01*
X185468Y405615D01*
X185356Y405567D01*
X185247Y405516D01*
X185139Y405461D01*
X185032Y405403D01*
X184928Y405342D01*
X184826Y405277D01*
X184726Y405209D01*
X184628Y405138D01*
X184532Y405064D01*
X184439Y404987D01*
X184349Y404906D01*
X184261Y404823D01*
X184176Y404737D01*
X184093Y404648D01*
X184014Y404557D01*
X183937Y404463D01*
X183864Y404367D01*
X183794Y404269D01*
X183727Y404168D01*
X183663Y404065D01*
X183603Y403960D01*
X183546Y403853D01*
X183492Y403745D01*
X183442Y403635D01*
X183396Y403523D01*
X183353Y403410D01*
X183314Y403295D01*
X188832Y400699D02*
X188911Y400776D01*
X188987Y400857D01*
X189060Y400940D01*
X189130Y401025D01*
X189197Y401113D01*
X189261Y401203D01*
X189321Y401295D01*
X189378Y401390D01*
X189432Y401486D01*
X189483Y401584D01*
X189530Y401684D01*
X189574Y401786D01*
X189614Y401889D01*
X189650Y401993D01*
X189682Y402099D01*
X189711Y402205D01*
X189736Y402313D01*
X189758Y402421D01*
X189775Y402531D01*
X189789Y402640D01*
X189798Y402750D01*
X189804Y402861D01*
X189806Y402971D01*
X188832Y400699D02*
X183314Y394208D01*
X189805Y394208D01*
X70358Y394208D02*
X70358Y405892D01*
X73604Y405892D01*
X73717Y405890D01*
X73830Y405884D01*
X73943Y405874D01*
X74056Y405860D01*
X74168Y405843D01*
X74279Y405821D01*
X74389Y405796D01*
X74499Y405766D01*
X74607Y405733D01*
X74714Y405696D01*
X74820Y405656D01*
X74924Y405611D01*
X75027Y405563D01*
X75128Y405512D01*
X75227Y405457D01*
X75324Y405399D01*
X75419Y405337D01*
X75512Y405272D01*
X75602Y405204D01*
X75690Y405133D01*
X75776Y405058D01*
X75859Y404981D01*
X75939Y404901D01*
X76016Y404818D01*
X76091Y404732D01*
X76162Y404644D01*
X76230Y404554D01*
X76295Y404461D01*
X76357Y404366D01*
X76415Y404269D01*
X76470Y404170D01*
X76521Y404069D01*
X76569Y403966D01*
X76614Y403862D01*
X76654Y403756D01*
X76691Y403649D01*
X76724Y403541D01*
X76754Y403431D01*
X76779Y403321D01*
X76801Y403210D01*
X76818Y403098D01*
X76832Y402985D01*
X76842Y402872D01*
X76848Y402759D01*
X76850Y402646D01*
X76848Y402533D01*
X76842Y402420D01*
X76832Y402307D01*
X76818Y402194D01*
X76801Y402082D01*
X76779Y401971D01*
X76754Y401861D01*
X76724Y401751D01*
X76691Y401643D01*
X76654Y401536D01*
X76614Y401430D01*
X76569Y401326D01*
X76521Y401223D01*
X76470Y401122D01*
X76415Y401023D01*
X76357Y400926D01*
X76295Y400831D01*
X76230Y400738D01*
X76162Y400648D01*
X76091Y400560D01*
X76016Y400474D01*
X75939Y400391D01*
X75859Y400311D01*
X75776Y400234D01*
X75690Y400159D01*
X75602Y400088D01*
X75512Y400020D01*
X75419Y399955D01*
X75324Y399893D01*
X75227Y399835D01*
X75128Y399780D01*
X75027Y399729D01*
X74924Y399681D01*
X74820Y399636D01*
X74714Y399596D01*
X74607Y399559D01*
X74499Y399526D01*
X74389Y399496D01*
X74279Y399471D01*
X74168Y399449D01*
X74056Y399432D01*
X73943Y399418D01*
X73830Y399408D01*
X73717Y399402D01*
X73604Y399400D01*
X73604Y399401D02*
X70358Y399401D01*
X74253Y399401D02*
X76849Y394208D01*
X81714Y394208D02*
X84960Y394208D01*
X85073Y394210D01*
X85186Y394216D01*
X85299Y394226D01*
X85412Y394240D01*
X85524Y394257D01*
X85635Y394279D01*
X85745Y394304D01*
X85855Y394334D01*
X85963Y394367D01*
X86070Y394404D01*
X86176Y394444D01*
X86280Y394489D01*
X86383Y394537D01*
X86484Y394588D01*
X86583Y394643D01*
X86680Y394701D01*
X86775Y394763D01*
X86868Y394828D01*
X86958Y394896D01*
X87046Y394967D01*
X87132Y395042D01*
X87215Y395119D01*
X87295Y395199D01*
X87372Y395282D01*
X87447Y395368D01*
X87518Y395456D01*
X87586Y395546D01*
X87651Y395639D01*
X87713Y395734D01*
X87771Y395831D01*
X87826Y395930D01*
X87877Y396031D01*
X87925Y396134D01*
X87970Y396238D01*
X88010Y396344D01*
X88047Y396451D01*
X88080Y396559D01*
X88110Y396669D01*
X88135Y396779D01*
X88157Y396890D01*
X88174Y397002D01*
X88188Y397115D01*
X88198Y397228D01*
X88204Y397341D01*
X88206Y397454D01*
X88204Y397567D01*
X88198Y397680D01*
X88188Y397793D01*
X88174Y397906D01*
X88157Y398018D01*
X88135Y398129D01*
X88110Y398239D01*
X88080Y398349D01*
X88047Y398457D01*
X88010Y398564D01*
X87970Y398670D01*
X87925Y398774D01*
X87877Y398877D01*
X87826Y398978D01*
X87771Y399077D01*
X87713Y399174D01*
X87651Y399269D01*
X87586Y399362D01*
X87518Y399452D01*
X87447Y399540D01*
X87372Y399626D01*
X87295Y399709D01*
X87215Y399789D01*
X87132Y399866D01*
X87046Y399941D01*
X86958Y400012D01*
X86868Y400080D01*
X86775Y400145D01*
X86680Y400207D01*
X86583Y400265D01*
X86484Y400320D01*
X86383Y400371D01*
X86280Y400419D01*
X86176Y400464D01*
X86070Y400504D01*
X85963Y400541D01*
X85855Y400574D01*
X85745Y400604D01*
X85635Y400629D01*
X85524Y400651D01*
X85412Y400668D01*
X85299Y400682D01*
X85186Y400692D01*
X85073Y400698D01*
X84960Y400700D01*
X85609Y405892D02*
X81714Y405892D01*
X85609Y405892D02*
X85710Y405890D01*
X85810Y405884D01*
X85910Y405874D01*
X86010Y405861D01*
X86109Y405843D01*
X86208Y405822D01*
X86305Y405797D01*
X86402Y405768D01*
X86497Y405735D01*
X86591Y405699D01*
X86683Y405659D01*
X86774Y405616D01*
X86863Y405569D01*
X86950Y405519D01*
X87036Y405465D01*
X87119Y405408D01*
X87199Y405348D01*
X87278Y405285D01*
X87354Y405218D01*
X87427Y405149D01*
X87497Y405077D01*
X87565Y405003D01*
X87630Y404926D01*
X87691Y404846D01*
X87750Y404764D01*
X87805Y404680D01*
X87857Y404594D01*
X87906Y404506D01*
X87951Y404416D01*
X87993Y404324D01*
X88031Y404231D01*
X88065Y404136D01*
X88096Y404041D01*
X88123Y403944D01*
X88146Y403846D01*
X88166Y403747D01*
X88181Y403647D01*
X88193Y403547D01*
X88201Y403447D01*
X88205Y403346D01*
X88205Y403246D01*
X88201Y403145D01*
X88193Y403045D01*
X88181Y402945D01*
X88166Y402845D01*
X88146Y402746D01*
X88123Y402648D01*
X88096Y402551D01*
X88065Y402456D01*
X88031Y402361D01*
X87993Y402268D01*
X87951Y402176D01*
X87906Y402086D01*
X87857Y401998D01*
X87805Y401912D01*
X87750Y401828D01*
X87691Y401746D01*
X87630Y401666D01*
X87565Y401589D01*
X87497Y401515D01*
X87427Y401443D01*
X87354Y401374D01*
X87278Y401307D01*
X87199Y401244D01*
X87119Y401184D01*
X87036Y401127D01*
X86950Y401073D01*
X86863Y401023D01*
X86774Y400976D01*
X86683Y400933D01*
X86591Y400893D01*
X86497Y400857D01*
X86402Y400824D01*
X86305Y400795D01*
X86208Y400770D01*
X86109Y400749D01*
X86010Y400731D01*
X85910Y400718D01*
X85810Y400708D01*
X85710Y400702D01*
X85609Y400700D01*
X85609Y400699D02*
X83013Y400699D01*
X273558Y316992D02*
X273558Y305308D01*
X273558Y316992D02*
X276804Y316992D01*
X276917Y316990D01*
X277030Y316984D01*
X277143Y316974D01*
X277256Y316960D01*
X277368Y316943D01*
X277479Y316921D01*
X277589Y316896D01*
X277699Y316866D01*
X277807Y316833D01*
X277914Y316796D01*
X278020Y316756D01*
X278124Y316711D01*
X278227Y316663D01*
X278328Y316612D01*
X278427Y316557D01*
X278524Y316499D01*
X278619Y316437D01*
X278712Y316372D01*
X278802Y316304D01*
X278890Y316233D01*
X278976Y316158D01*
X279059Y316081D01*
X279139Y316001D01*
X279216Y315918D01*
X279291Y315832D01*
X279362Y315744D01*
X279430Y315654D01*
X279495Y315561D01*
X279557Y315466D01*
X279615Y315369D01*
X279670Y315270D01*
X279721Y315169D01*
X279769Y315066D01*
X279814Y314962D01*
X279854Y314856D01*
X279891Y314749D01*
X279924Y314641D01*
X279954Y314531D01*
X279979Y314421D01*
X280001Y314310D01*
X280018Y314198D01*
X280032Y314085D01*
X280042Y313972D01*
X280048Y313859D01*
X280050Y313746D01*
X280048Y313633D01*
X280042Y313520D01*
X280032Y313407D01*
X280018Y313294D01*
X280001Y313182D01*
X279979Y313071D01*
X279954Y312961D01*
X279924Y312851D01*
X279891Y312743D01*
X279854Y312636D01*
X279814Y312530D01*
X279769Y312426D01*
X279721Y312323D01*
X279670Y312222D01*
X279615Y312123D01*
X279557Y312026D01*
X279495Y311931D01*
X279430Y311838D01*
X279362Y311748D01*
X279291Y311660D01*
X279216Y311574D01*
X279139Y311491D01*
X279059Y311411D01*
X278976Y311334D01*
X278890Y311259D01*
X278802Y311188D01*
X278712Y311120D01*
X278619Y311055D01*
X278524Y310993D01*
X278427Y310935D01*
X278328Y310880D01*
X278227Y310829D01*
X278124Y310781D01*
X278020Y310736D01*
X277914Y310696D01*
X277807Y310659D01*
X277699Y310626D01*
X277589Y310596D01*
X277479Y310571D01*
X277368Y310549D01*
X277256Y310532D01*
X277143Y310518D01*
X277030Y310508D01*
X276917Y310502D01*
X276804Y310500D01*
X276804Y310501D02*
X273558Y310501D01*
X277453Y310501D02*
X280049Y305308D01*
X284914Y307904D02*
X287511Y316992D01*
X284914Y307904D02*
X291405Y307904D01*
X289458Y310501D02*
X289458Y305308D01*
X171958Y305308D02*
X171958Y316992D01*
X175204Y316992D01*
X175317Y316990D01*
X175430Y316984D01*
X175543Y316974D01*
X175656Y316960D01*
X175768Y316943D01*
X175879Y316921D01*
X175989Y316896D01*
X176099Y316866D01*
X176207Y316833D01*
X176314Y316796D01*
X176420Y316756D01*
X176524Y316711D01*
X176627Y316663D01*
X176728Y316612D01*
X176827Y316557D01*
X176924Y316499D01*
X177019Y316437D01*
X177112Y316372D01*
X177202Y316304D01*
X177290Y316233D01*
X177376Y316158D01*
X177459Y316081D01*
X177539Y316001D01*
X177616Y315918D01*
X177691Y315832D01*
X177762Y315744D01*
X177830Y315654D01*
X177895Y315561D01*
X177957Y315466D01*
X178015Y315369D01*
X178070Y315270D01*
X178121Y315169D01*
X178169Y315066D01*
X178214Y314962D01*
X178254Y314856D01*
X178291Y314749D01*
X178324Y314641D01*
X178354Y314531D01*
X178379Y314421D01*
X178401Y314310D01*
X178418Y314198D01*
X178432Y314085D01*
X178442Y313972D01*
X178448Y313859D01*
X178450Y313746D01*
X178448Y313633D01*
X178442Y313520D01*
X178432Y313407D01*
X178418Y313294D01*
X178401Y313182D01*
X178379Y313071D01*
X178354Y312961D01*
X178324Y312851D01*
X178291Y312743D01*
X178254Y312636D01*
X178214Y312530D01*
X178169Y312426D01*
X178121Y312323D01*
X178070Y312222D01*
X178015Y312123D01*
X177957Y312026D01*
X177895Y311931D01*
X177830Y311838D01*
X177762Y311748D01*
X177691Y311660D01*
X177616Y311574D01*
X177539Y311491D01*
X177459Y311411D01*
X177376Y311334D01*
X177290Y311259D01*
X177202Y311188D01*
X177112Y311120D01*
X177019Y311055D01*
X176924Y310993D01*
X176827Y310935D01*
X176728Y310880D01*
X176627Y310829D01*
X176524Y310781D01*
X176420Y310736D01*
X176314Y310696D01*
X176207Y310659D01*
X176099Y310626D01*
X175989Y310596D01*
X175879Y310571D01*
X175768Y310549D01*
X175656Y310532D01*
X175543Y310518D01*
X175430Y310508D01*
X175317Y310502D01*
X175204Y310500D01*
X175204Y310501D02*
X171958Y310501D01*
X175853Y310501D02*
X178449Y305308D01*
X183314Y305308D02*
X187209Y305308D01*
X187308Y305310D01*
X187408Y305316D01*
X187507Y305325D01*
X187605Y305338D01*
X187703Y305355D01*
X187801Y305376D01*
X187897Y305401D01*
X187992Y305429D01*
X188086Y305461D01*
X188179Y305496D01*
X188271Y305535D01*
X188361Y305578D01*
X188449Y305623D01*
X188536Y305673D01*
X188620Y305725D01*
X188703Y305781D01*
X188783Y305839D01*
X188861Y305901D01*
X188936Y305966D01*
X189009Y306034D01*
X189079Y306104D01*
X189147Y306177D01*
X189212Y306252D01*
X189274Y306330D01*
X189332Y306410D01*
X189388Y306493D01*
X189440Y306577D01*
X189490Y306664D01*
X189535Y306752D01*
X189578Y306842D01*
X189617Y306934D01*
X189652Y307027D01*
X189684Y307121D01*
X189712Y307216D01*
X189737Y307312D01*
X189758Y307410D01*
X189775Y307508D01*
X189788Y307606D01*
X189797Y307705D01*
X189803Y307805D01*
X189805Y307904D01*
X189805Y309203D01*
X189803Y309302D01*
X189797Y309402D01*
X189788Y309501D01*
X189775Y309599D01*
X189758Y309697D01*
X189737Y309795D01*
X189712Y309891D01*
X189684Y309986D01*
X189652Y310080D01*
X189617Y310173D01*
X189578Y310265D01*
X189535Y310355D01*
X189490Y310443D01*
X189440Y310530D01*
X189388Y310614D01*
X189332Y310697D01*
X189274Y310777D01*
X189212Y310855D01*
X189147Y310930D01*
X189079Y311003D01*
X189009Y311073D01*
X188936Y311141D01*
X188861Y311206D01*
X188783Y311268D01*
X188703Y311326D01*
X188620Y311382D01*
X188536Y311434D01*
X188449Y311484D01*
X188361Y311529D01*
X188271Y311572D01*
X188179Y311611D01*
X188086Y311646D01*
X187992Y311678D01*
X187897Y311706D01*
X187801Y311731D01*
X187703Y311752D01*
X187605Y311769D01*
X187507Y311782D01*
X187408Y311791D01*
X187308Y311797D01*
X187209Y311799D01*
X183314Y311799D01*
X183314Y316992D01*
X189805Y316992D01*
X70358Y316992D02*
X70358Y305308D01*
X70358Y316992D02*
X73604Y316992D01*
X73717Y316990D01*
X73830Y316984D01*
X73943Y316974D01*
X74056Y316960D01*
X74168Y316943D01*
X74279Y316921D01*
X74389Y316896D01*
X74499Y316866D01*
X74607Y316833D01*
X74714Y316796D01*
X74820Y316756D01*
X74924Y316711D01*
X75027Y316663D01*
X75128Y316612D01*
X75227Y316557D01*
X75324Y316499D01*
X75419Y316437D01*
X75512Y316372D01*
X75602Y316304D01*
X75690Y316233D01*
X75776Y316158D01*
X75859Y316081D01*
X75939Y316001D01*
X76016Y315918D01*
X76091Y315832D01*
X76162Y315744D01*
X76230Y315654D01*
X76295Y315561D01*
X76357Y315466D01*
X76415Y315369D01*
X76470Y315270D01*
X76521Y315169D01*
X76569Y315066D01*
X76614Y314962D01*
X76654Y314856D01*
X76691Y314749D01*
X76724Y314641D01*
X76754Y314531D01*
X76779Y314421D01*
X76801Y314310D01*
X76818Y314198D01*
X76832Y314085D01*
X76842Y313972D01*
X76848Y313859D01*
X76850Y313746D01*
X76848Y313633D01*
X76842Y313520D01*
X76832Y313407D01*
X76818Y313294D01*
X76801Y313182D01*
X76779Y313071D01*
X76754Y312961D01*
X76724Y312851D01*
X76691Y312743D01*
X76654Y312636D01*
X76614Y312530D01*
X76569Y312426D01*
X76521Y312323D01*
X76470Y312222D01*
X76415Y312123D01*
X76357Y312026D01*
X76295Y311931D01*
X76230Y311838D01*
X76162Y311748D01*
X76091Y311660D01*
X76016Y311574D01*
X75939Y311491D01*
X75859Y311411D01*
X75776Y311334D01*
X75690Y311259D01*
X75602Y311188D01*
X75512Y311120D01*
X75419Y311055D01*
X75324Y310993D01*
X75227Y310935D01*
X75128Y310880D01*
X75027Y310829D01*
X74924Y310781D01*
X74820Y310736D01*
X74714Y310696D01*
X74607Y310659D01*
X74499Y310626D01*
X74389Y310596D01*
X74279Y310571D01*
X74168Y310549D01*
X74056Y310532D01*
X73943Y310518D01*
X73830Y310508D01*
X73717Y310502D01*
X73604Y310500D01*
X73604Y310501D02*
X70358Y310501D01*
X74253Y310501D02*
X76849Y305308D01*
X81714Y311799D02*
X85609Y311799D01*
X85708Y311797D01*
X85808Y311791D01*
X85907Y311782D01*
X86005Y311769D01*
X86103Y311752D01*
X86201Y311731D01*
X86297Y311706D01*
X86392Y311678D01*
X86486Y311646D01*
X86579Y311611D01*
X86671Y311572D01*
X86761Y311529D01*
X86849Y311484D01*
X86936Y311434D01*
X87020Y311382D01*
X87103Y311326D01*
X87183Y311268D01*
X87261Y311206D01*
X87336Y311141D01*
X87409Y311073D01*
X87479Y311003D01*
X87547Y310930D01*
X87612Y310855D01*
X87674Y310777D01*
X87732Y310697D01*
X87788Y310614D01*
X87840Y310530D01*
X87890Y310443D01*
X87935Y310355D01*
X87978Y310265D01*
X88017Y310173D01*
X88052Y310080D01*
X88084Y309986D01*
X88112Y309891D01*
X88137Y309795D01*
X88158Y309697D01*
X88175Y309599D01*
X88188Y309501D01*
X88197Y309402D01*
X88203Y309302D01*
X88205Y309203D01*
X88205Y308554D01*
X88206Y308554D02*
X88204Y308441D01*
X88198Y308328D01*
X88188Y308215D01*
X88174Y308102D01*
X88157Y307990D01*
X88135Y307879D01*
X88110Y307769D01*
X88080Y307659D01*
X88047Y307551D01*
X88010Y307444D01*
X87970Y307338D01*
X87925Y307234D01*
X87877Y307131D01*
X87826Y307030D01*
X87771Y306931D01*
X87713Y306834D01*
X87651Y306739D01*
X87586Y306646D01*
X87518Y306556D01*
X87447Y306468D01*
X87372Y306382D01*
X87295Y306299D01*
X87215Y306219D01*
X87132Y306142D01*
X87046Y306067D01*
X86958Y305996D01*
X86868Y305928D01*
X86775Y305863D01*
X86680Y305801D01*
X86583Y305743D01*
X86484Y305688D01*
X86383Y305637D01*
X86280Y305589D01*
X86176Y305544D01*
X86070Y305504D01*
X85963Y305467D01*
X85855Y305434D01*
X85745Y305404D01*
X85635Y305379D01*
X85524Y305357D01*
X85412Y305340D01*
X85299Y305326D01*
X85186Y305316D01*
X85073Y305310D01*
X84960Y305308D01*
X84847Y305310D01*
X84734Y305316D01*
X84621Y305326D01*
X84508Y305340D01*
X84396Y305357D01*
X84285Y305379D01*
X84175Y305404D01*
X84065Y305434D01*
X83957Y305467D01*
X83850Y305504D01*
X83744Y305544D01*
X83640Y305589D01*
X83537Y305637D01*
X83436Y305688D01*
X83337Y305743D01*
X83240Y305801D01*
X83145Y305863D01*
X83052Y305928D01*
X82962Y305996D01*
X82874Y306067D01*
X82788Y306142D01*
X82705Y306219D01*
X82625Y306299D01*
X82548Y306382D01*
X82473Y306468D01*
X82402Y306556D01*
X82334Y306646D01*
X82269Y306739D01*
X82207Y306834D01*
X82149Y306931D01*
X82094Y307030D01*
X82043Y307131D01*
X81995Y307234D01*
X81950Y307338D01*
X81910Y307444D01*
X81873Y307551D01*
X81840Y307659D01*
X81810Y307769D01*
X81785Y307879D01*
X81763Y307990D01*
X81746Y308102D01*
X81732Y308215D01*
X81722Y308328D01*
X81716Y308441D01*
X81714Y308554D01*
X81714Y311799D01*
X81716Y311942D01*
X81722Y312085D01*
X81732Y312228D01*
X81746Y312370D01*
X81763Y312512D01*
X81785Y312654D01*
X81810Y312795D01*
X81840Y312935D01*
X81873Y313074D01*
X81910Y313212D01*
X81951Y313349D01*
X81995Y313485D01*
X82044Y313620D01*
X82096Y313753D01*
X82151Y313885D01*
X82211Y314015D01*
X82274Y314144D01*
X82340Y314271D01*
X82410Y314395D01*
X82483Y314518D01*
X82560Y314639D01*
X82640Y314758D01*
X82723Y314874D01*
X82809Y314989D01*
X82898Y315100D01*
X82991Y315210D01*
X83086Y315316D01*
X83185Y315420D01*
X83286Y315521D01*
X83390Y315620D01*
X83496Y315715D01*
X83606Y315808D01*
X83717Y315897D01*
X83832Y315983D01*
X83948Y316066D01*
X84067Y316146D01*
X84188Y316223D01*
X84310Y316296D01*
X84435Y316366D01*
X84562Y316432D01*
X84691Y316495D01*
X84821Y316555D01*
X84953Y316610D01*
X85086Y316662D01*
X85221Y316711D01*
X85357Y316755D01*
X85494Y316796D01*
X85632Y316833D01*
X85771Y316866D01*
X85911Y316896D01*
X86052Y316921D01*
X86194Y316943D01*
X86336Y316960D01*
X86478Y316974D01*
X86621Y316984D01*
X86764Y316990D01*
X86907Y316992D01*
D11*
X455200Y95700D02*
X455200Y76200D01*
X455200Y95700D02*
X478000Y95700D01*
X478000Y76200D01*
X455200Y76200D01*
D13*
X457327Y102503D02*
X457327Y104521D01*
X457327Y102503D02*
X457329Y102448D01*
X457335Y102393D01*
X457345Y102338D01*
X457358Y102284D01*
X457376Y102232D01*
X457397Y102181D01*
X457422Y102131D01*
X457450Y102083D01*
X457482Y102038D01*
X457517Y101995D01*
X457554Y101954D01*
X457595Y101917D01*
X457638Y101882D01*
X457683Y101850D01*
X457731Y101822D01*
X457781Y101797D01*
X457832Y101776D01*
X457884Y101758D01*
X457938Y101745D01*
X457993Y101735D01*
X458048Y101729D01*
X458103Y101727D01*
X458158Y101729D01*
X458213Y101735D01*
X458268Y101745D01*
X458322Y101758D01*
X458374Y101776D01*
X458425Y101797D01*
X458475Y101822D01*
X458523Y101850D01*
X458568Y101882D01*
X458611Y101917D01*
X458652Y101954D01*
X458689Y101995D01*
X458724Y102038D01*
X458756Y102083D01*
X458784Y102131D01*
X458809Y102181D01*
X458830Y102232D01*
X458848Y102284D01*
X458861Y102338D01*
X458871Y102393D01*
X458877Y102448D01*
X458879Y102503D01*
X458879Y104521D01*
X460755Y104521D02*
X460755Y101727D01*
X460755Y103124D02*
X460367Y103357D01*
X460366Y103356D02*
X460332Y103379D01*
X460299Y103405D01*
X460269Y103434D01*
X460242Y103465D01*
X460217Y103499D01*
X460196Y103535D01*
X460178Y103572D01*
X460164Y103611D01*
X460153Y103651D01*
X460145Y103692D01*
X460141Y103733D01*
X460141Y103775D01*
X460145Y103816D01*
X460153Y103857D01*
X460164Y103897D01*
X460178Y103936D01*
X460196Y103974D01*
X460218Y104010D01*
X460242Y104043D01*
X460270Y104075D01*
X460300Y104103D01*
X460332Y104129D01*
X460367Y104152D01*
X460403Y104172D01*
X460442Y104188D01*
X460481Y104201D01*
X460522Y104210D01*
X460522Y104211D02*
X460589Y104221D01*
X460657Y104228D01*
X460725Y104231D01*
X460794Y104230D01*
X460862Y104225D01*
X460929Y104217D01*
X460996Y104205D01*
X461063Y104189D01*
X461128Y104169D01*
X461192Y104146D01*
X461255Y104119D01*
X461316Y104089D01*
X461376Y104056D01*
X460755Y103124D02*
X461143Y102891D01*
X461143Y102892D02*
X461177Y102869D01*
X461210Y102843D01*
X461240Y102814D01*
X461267Y102783D01*
X461292Y102749D01*
X461313Y102713D01*
X461331Y102676D01*
X461345Y102637D01*
X461356Y102597D01*
X461364Y102556D01*
X461368Y102515D01*
X461368Y102473D01*
X461364Y102432D01*
X461356Y102391D01*
X461345Y102351D01*
X461331Y102312D01*
X461313Y102274D01*
X461291Y102238D01*
X461267Y102205D01*
X461240Y102173D01*
X461209Y102145D01*
X461177Y102119D01*
X461142Y102096D01*
X461106Y102076D01*
X461067Y102060D01*
X461028Y102047D01*
X460987Y102038D01*
X460988Y102037D02*
X460921Y102027D01*
X460853Y102020D01*
X460785Y102017D01*
X460716Y102018D01*
X460648Y102023D01*
X460581Y102031D01*
X460514Y102043D01*
X460447Y102059D01*
X460382Y102079D01*
X460318Y102102D01*
X460255Y102129D01*
X460194Y102159D01*
X460134Y102192D01*
X462539Y103900D02*
X463315Y104521D01*
X463315Y101727D01*
X462539Y101727D02*
X464091Y101727D01*
X458569Y69977D02*
X457948Y69977D01*
X457899Y69979D01*
X457851Y69985D01*
X457803Y69994D01*
X457756Y70007D01*
X457710Y70024D01*
X457666Y70045D01*
X457624Y70069D01*
X457583Y70096D01*
X457545Y70126D01*
X457509Y70159D01*
X457476Y70195D01*
X457446Y70233D01*
X457419Y70274D01*
X457395Y70316D01*
X457374Y70360D01*
X457357Y70406D01*
X457344Y70453D01*
X457335Y70501D01*
X457329Y70549D01*
X457327Y70598D01*
X457327Y72150D01*
X457329Y72199D01*
X457335Y72247D01*
X457344Y72295D01*
X457357Y72342D01*
X457374Y72388D01*
X457395Y72432D01*
X457419Y72474D01*
X457446Y72515D01*
X457476Y72553D01*
X457509Y72589D01*
X457545Y72622D01*
X457583Y72652D01*
X457624Y72679D01*
X457666Y72703D01*
X457710Y72724D01*
X457756Y72741D01*
X457803Y72754D01*
X457851Y72763D01*
X457899Y72769D01*
X457948Y72771D01*
X458569Y72771D01*
X459718Y72771D02*
X459718Y69977D01*
X460960Y69977D01*
X462118Y69977D02*
X462118Y72771D01*
X463049Y71219D01*
X463980Y72771D01*
X463980Y69977D01*
X466066Y69977D02*
X465135Y72771D01*
X466998Y72771D02*
X466066Y69977D01*
X468646Y69977D02*
X469267Y69977D01*
X468646Y69977D02*
X468597Y69979D01*
X468549Y69985D01*
X468501Y69994D01*
X468454Y70007D01*
X468408Y70024D01*
X468364Y70045D01*
X468322Y70069D01*
X468281Y70096D01*
X468243Y70126D01*
X468207Y70159D01*
X468174Y70195D01*
X468144Y70233D01*
X468117Y70274D01*
X468093Y70316D01*
X468072Y70360D01*
X468055Y70406D01*
X468042Y70453D01*
X468033Y70501D01*
X468027Y70549D01*
X468025Y70598D01*
X468025Y72150D01*
X468027Y72199D01*
X468033Y72247D01*
X468042Y72295D01*
X468055Y72342D01*
X468072Y72388D01*
X468093Y72432D01*
X468117Y72474D01*
X468144Y72515D01*
X468174Y72553D01*
X468207Y72589D01*
X468243Y72622D01*
X468281Y72652D01*
X468322Y72679D01*
X468364Y72703D01*
X468408Y72724D01*
X468454Y72741D01*
X468501Y72754D01*
X468549Y72763D01*
X468597Y72769D01*
X468646Y72771D01*
X469267Y72771D01*
X470347Y71064D02*
X472210Y71064D01*
X473525Y69977D02*
X473525Y72771D01*
X474767Y72771D01*
X474767Y71529D02*
X473525Y71529D01*
X475939Y72771D02*
X475939Y69977D01*
X475939Y71064D02*
X477491Y72771D01*
X476560Y71684D02*
X477491Y69977D01*
X479162Y69977D02*
X479783Y69977D01*
X479162Y69977D02*
X479113Y69979D01*
X479065Y69985D01*
X479017Y69994D01*
X478970Y70007D01*
X478924Y70024D01*
X478880Y70045D01*
X478838Y70069D01*
X478797Y70096D01*
X478759Y70126D01*
X478723Y70159D01*
X478690Y70195D01*
X478660Y70233D01*
X478633Y70274D01*
X478609Y70316D01*
X478588Y70360D01*
X478571Y70406D01*
X478558Y70453D01*
X478549Y70501D01*
X478543Y70549D01*
X478541Y70598D01*
X478541Y72150D01*
X478543Y72199D01*
X478549Y72247D01*
X478558Y72295D01*
X478571Y72342D01*
X478588Y72388D01*
X478609Y72432D01*
X478633Y72474D01*
X478660Y72515D01*
X478690Y72553D01*
X478723Y72589D01*
X478759Y72622D01*
X478797Y72652D01*
X478838Y72679D01*
X478880Y72703D01*
X478924Y72724D01*
X478970Y72741D01*
X479017Y72754D01*
X479065Y72763D01*
X479113Y72769D01*
X479162Y72771D01*
X479783Y72771D01*
X480863Y71064D02*
X482725Y71064D01*
X484557Y69977D02*
X485178Y69977D01*
X484557Y69977D02*
X484508Y69979D01*
X484460Y69985D01*
X484412Y69994D01*
X484365Y70007D01*
X484319Y70024D01*
X484275Y70045D01*
X484233Y70069D01*
X484192Y70096D01*
X484154Y70126D01*
X484118Y70159D01*
X484085Y70195D01*
X484055Y70233D01*
X484028Y70274D01*
X484004Y70316D01*
X483983Y70360D01*
X483966Y70406D01*
X483953Y70453D01*
X483944Y70501D01*
X483938Y70549D01*
X483936Y70598D01*
X483936Y72150D01*
X483938Y72199D01*
X483944Y72247D01*
X483953Y72295D01*
X483966Y72342D01*
X483983Y72388D01*
X484004Y72432D01*
X484028Y72474D01*
X484055Y72515D01*
X484085Y72553D01*
X484118Y72589D01*
X484154Y72622D01*
X484192Y72652D01*
X484233Y72679D01*
X484275Y72703D01*
X484319Y72724D01*
X484365Y72741D01*
X484412Y72754D01*
X484460Y72763D01*
X484508Y72769D01*
X484557Y72771D01*
X485178Y72771D01*
X487408Y71529D02*
X487874Y71529D01*
X487874Y69977D01*
X486942Y69977D01*
X486893Y69979D01*
X486845Y69985D01*
X486797Y69994D01*
X486750Y70007D01*
X486704Y70024D01*
X486660Y70045D01*
X486618Y70069D01*
X486577Y70096D01*
X486539Y70126D01*
X486503Y70159D01*
X486470Y70195D01*
X486440Y70233D01*
X486413Y70274D01*
X486389Y70316D01*
X486368Y70360D01*
X486351Y70406D01*
X486338Y70453D01*
X486329Y70501D01*
X486323Y70549D01*
X486321Y70598D01*
X486321Y72150D01*
X486323Y72199D01*
X486329Y72247D01*
X486338Y72295D01*
X486351Y72342D01*
X486368Y72388D01*
X486389Y72432D01*
X486413Y72474D01*
X486440Y72515D01*
X486470Y72553D01*
X486503Y72589D01*
X486539Y72622D01*
X486577Y72652D01*
X486618Y72679D01*
X486660Y72703D01*
X486704Y72724D01*
X486750Y72741D01*
X486797Y72754D01*
X486845Y72763D01*
X486893Y72769D01*
X486942Y72771D01*
X487874Y72771D01*
X489805Y72771D02*
X489805Y70598D01*
X489803Y70549D01*
X489797Y70501D01*
X489788Y70453D01*
X489775Y70406D01*
X489758Y70360D01*
X489737Y70316D01*
X489713Y70274D01*
X489686Y70233D01*
X489656Y70195D01*
X489623Y70159D01*
X489587Y70126D01*
X489549Y70096D01*
X489508Y70069D01*
X489466Y70045D01*
X489422Y70024D01*
X489376Y70007D01*
X489329Y69994D01*
X489281Y69985D01*
X489233Y69979D01*
X489184Y69977D01*
X488874Y69977D01*
X491725Y70598D02*
X491725Y72771D01*
X491726Y70598D02*
X491724Y70549D01*
X491718Y70501D01*
X491709Y70453D01*
X491696Y70406D01*
X491679Y70360D01*
X491658Y70316D01*
X491634Y70274D01*
X491607Y70233D01*
X491577Y70195D01*
X491544Y70159D01*
X491508Y70126D01*
X491470Y70096D01*
X491429Y70069D01*
X491387Y70045D01*
X491343Y70024D01*
X491297Y70007D01*
X491250Y69994D01*
X491202Y69985D01*
X491154Y69979D01*
X491105Y69977D01*
X490794Y69977D01*
X493116Y69977D02*
X493116Y72771D01*
X494047Y71219D01*
X494978Y72771D01*
X494978Y69977D01*
X496288Y69977D02*
X497220Y69977D01*
X497269Y69979D01*
X497317Y69985D01*
X497365Y69994D01*
X497412Y70007D01*
X497458Y70024D01*
X497502Y70045D01*
X497544Y70069D01*
X497585Y70096D01*
X497623Y70126D01*
X497659Y70159D01*
X497692Y70195D01*
X497722Y70233D01*
X497749Y70274D01*
X497773Y70316D01*
X497794Y70360D01*
X497811Y70406D01*
X497824Y70453D01*
X497833Y70501D01*
X497839Y70549D01*
X497841Y70598D01*
X497841Y70908D01*
X497839Y70957D01*
X497833Y71005D01*
X497824Y71053D01*
X497811Y71100D01*
X497794Y71146D01*
X497773Y71190D01*
X497749Y71232D01*
X497722Y71273D01*
X497692Y71311D01*
X497659Y71347D01*
X497623Y71380D01*
X497585Y71410D01*
X497544Y71437D01*
X497502Y71461D01*
X497458Y71482D01*
X497412Y71499D01*
X497365Y71512D01*
X497317Y71521D01*
X497269Y71527D01*
X497220Y71529D01*
X496288Y71529D01*
X496288Y72771D01*
X497841Y72771D01*
X499032Y71529D02*
X499963Y71529D01*
X500012Y71527D01*
X500060Y71521D01*
X500108Y71512D01*
X500155Y71499D01*
X500201Y71482D01*
X500245Y71461D01*
X500287Y71437D01*
X500328Y71410D01*
X500366Y71380D01*
X500402Y71347D01*
X500435Y71311D01*
X500465Y71273D01*
X500492Y71232D01*
X500516Y71190D01*
X500537Y71146D01*
X500554Y71100D01*
X500567Y71053D01*
X500576Y71005D01*
X500582Y70957D01*
X500584Y70908D01*
X500584Y70753D01*
X500582Y70698D01*
X500576Y70643D01*
X500566Y70588D01*
X500553Y70534D01*
X500535Y70482D01*
X500514Y70431D01*
X500489Y70381D01*
X500461Y70333D01*
X500429Y70288D01*
X500394Y70245D01*
X500357Y70204D01*
X500316Y70167D01*
X500273Y70132D01*
X500228Y70100D01*
X500180Y70072D01*
X500130Y70047D01*
X500079Y70026D01*
X500027Y70008D01*
X499973Y69995D01*
X499918Y69985D01*
X499863Y69979D01*
X499808Y69977D01*
X499753Y69979D01*
X499698Y69985D01*
X499643Y69995D01*
X499589Y70008D01*
X499537Y70026D01*
X499486Y70047D01*
X499436Y70072D01*
X499388Y70100D01*
X499343Y70132D01*
X499300Y70167D01*
X499259Y70204D01*
X499222Y70245D01*
X499187Y70288D01*
X499155Y70333D01*
X499127Y70381D01*
X499102Y70431D01*
X499081Y70482D01*
X499063Y70534D01*
X499050Y70588D01*
X499040Y70643D01*
X499034Y70698D01*
X499032Y70753D01*
X499032Y71529D01*
X499031Y71529D02*
X499033Y71599D01*
X499039Y71668D01*
X499049Y71737D01*
X499062Y71805D01*
X499080Y71873D01*
X499101Y71939D01*
X499126Y72004D01*
X499154Y72068D01*
X499186Y72130D01*
X499221Y72190D01*
X499260Y72248D01*
X499302Y72303D01*
X499347Y72357D01*
X499395Y72407D01*
X499445Y72455D01*
X499499Y72500D01*
X499554Y72542D01*
X499612Y72581D01*
X499672Y72616D01*
X499734Y72648D01*
X499798Y72676D01*
X499863Y72701D01*
X499929Y72722D01*
X499997Y72740D01*
X500065Y72753D01*
X500134Y72763D01*
X500203Y72769D01*
X500273Y72771D01*
X502396Y71219D02*
X503327Y71219D01*
X502396Y71219D02*
X502347Y71221D01*
X502299Y71227D01*
X502251Y71236D01*
X502204Y71249D01*
X502158Y71266D01*
X502114Y71287D01*
X502072Y71311D01*
X502031Y71338D01*
X501993Y71368D01*
X501957Y71401D01*
X501924Y71437D01*
X501894Y71475D01*
X501866Y71516D01*
X501843Y71558D01*
X501822Y71602D01*
X501805Y71648D01*
X501792Y71695D01*
X501783Y71743D01*
X501777Y71791D01*
X501775Y71840D01*
X501775Y71995D01*
X501777Y72050D01*
X501783Y72105D01*
X501793Y72160D01*
X501806Y72214D01*
X501824Y72266D01*
X501845Y72317D01*
X501870Y72367D01*
X501898Y72415D01*
X501930Y72460D01*
X501965Y72503D01*
X502002Y72544D01*
X502043Y72581D01*
X502086Y72616D01*
X502131Y72648D01*
X502179Y72676D01*
X502229Y72701D01*
X502280Y72722D01*
X502332Y72740D01*
X502386Y72753D01*
X502441Y72763D01*
X502496Y72769D01*
X502551Y72771D01*
X502606Y72769D01*
X502661Y72763D01*
X502716Y72753D01*
X502770Y72740D01*
X502822Y72722D01*
X502873Y72701D01*
X502923Y72676D01*
X502971Y72648D01*
X503016Y72616D01*
X503059Y72581D01*
X503100Y72544D01*
X503137Y72503D01*
X503172Y72460D01*
X503204Y72415D01*
X503232Y72367D01*
X503257Y72317D01*
X503278Y72266D01*
X503296Y72214D01*
X503309Y72160D01*
X503319Y72105D01*
X503325Y72050D01*
X503327Y71995D01*
X503327Y71219D01*
X503325Y71149D01*
X503319Y71080D01*
X503309Y71011D01*
X503296Y70943D01*
X503278Y70875D01*
X503257Y70809D01*
X503232Y70744D01*
X503204Y70680D01*
X503172Y70618D01*
X503137Y70558D01*
X503098Y70500D01*
X503056Y70445D01*
X503011Y70391D01*
X502963Y70341D01*
X502913Y70293D01*
X502859Y70248D01*
X502804Y70206D01*
X502746Y70167D01*
X502686Y70132D01*
X502624Y70100D01*
X502560Y70072D01*
X502495Y70047D01*
X502429Y70026D01*
X502361Y70008D01*
X502293Y69995D01*
X502224Y69985D01*
X502155Y69979D01*
X502085Y69977D01*
X504363Y69977D02*
X505294Y72771D01*
X506225Y69977D01*
X505993Y70676D02*
X504596Y70676D01*
X507394Y71529D02*
X508170Y71529D01*
X508225Y71527D01*
X508280Y71521D01*
X508335Y71511D01*
X508389Y71498D01*
X508441Y71480D01*
X508492Y71459D01*
X508542Y71434D01*
X508590Y71406D01*
X508635Y71374D01*
X508678Y71339D01*
X508719Y71302D01*
X508756Y71261D01*
X508791Y71218D01*
X508823Y71173D01*
X508851Y71125D01*
X508876Y71075D01*
X508897Y71024D01*
X508915Y70972D01*
X508928Y70918D01*
X508938Y70863D01*
X508944Y70808D01*
X508946Y70753D01*
X508944Y70698D01*
X508938Y70643D01*
X508928Y70588D01*
X508915Y70534D01*
X508897Y70482D01*
X508876Y70431D01*
X508851Y70381D01*
X508823Y70333D01*
X508791Y70288D01*
X508756Y70245D01*
X508719Y70204D01*
X508678Y70167D01*
X508635Y70132D01*
X508590Y70100D01*
X508542Y70072D01*
X508492Y70047D01*
X508441Y70026D01*
X508389Y70008D01*
X508335Y69995D01*
X508280Y69985D01*
X508225Y69979D01*
X508170Y69977D01*
X507394Y69977D01*
X507394Y72771D01*
X508170Y72771D01*
X508219Y72769D01*
X508267Y72763D01*
X508315Y72754D01*
X508362Y72741D01*
X508408Y72724D01*
X508452Y72703D01*
X508494Y72679D01*
X508535Y72652D01*
X508573Y72622D01*
X508609Y72589D01*
X508642Y72553D01*
X508672Y72515D01*
X508699Y72474D01*
X508723Y72432D01*
X508744Y72388D01*
X508761Y72342D01*
X508774Y72295D01*
X508783Y72247D01*
X508789Y72199D01*
X508791Y72150D01*
X508789Y72101D01*
X508783Y72053D01*
X508774Y72005D01*
X508761Y71958D01*
X508744Y71912D01*
X508723Y71868D01*
X508699Y71826D01*
X508672Y71785D01*
X508642Y71747D01*
X508609Y71711D01*
X508573Y71678D01*
X508535Y71648D01*
X508494Y71621D01*
X508452Y71597D01*
X508408Y71576D01*
X508362Y71559D01*
X508315Y71546D01*
X508267Y71537D01*
X508219Y71531D01*
X508170Y71529D01*
X510137Y71529D02*
X510913Y71529D01*
X510968Y71527D01*
X511023Y71521D01*
X511078Y71511D01*
X511132Y71498D01*
X511184Y71480D01*
X511235Y71459D01*
X511285Y71434D01*
X511333Y71406D01*
X511378Y71374D01*
X511421Y71339D01*
X511462Y71302D01*
X511499Y71261D01*
X511534Y71218D01*
X511566Y71173D01*
X511594Y71125D01*
X511619Y71075D01*
X511640Y71024D01*
X511658Y70972D01*
X511671Y70918D01*
X511681Y70863D01*
X511687Y70808D01*
X511689Y70753D01*
X511687Y70698D01*
X511681Y70643D01*
X511671Y70588D01*
X511658Y70534D01*
X511640Y70482D01*
X511619Y70431D01*
X511594Y70381D01*
X511566Y70333D01*
X511534Y70288D01*
X511499Y70245D01*
X511462Y70204D01*
X511421Y70167D01*
X511378Y70132D01*
X511333Y70100D01*
X511285Y70072D01*
X511235Y70047D01*
X511184Y70026D01*
X511132Y70008D01*
X511078Y69995D01*
X511023Y69985D01*
X510968Y69979D01*
X510913Y69977D01*
X510137Y69977D01*
X510137Y72771D01*
X510913Y72771D01*
X510962Y72769D01*
X511010Y72763D01*
X511058Y72754D01*
X511105Y72741D01*
X511151Y72724D01*
X511195Y72703D01*
X511237Y72679D01*
X511278Y72652D01*
X511316Y72622D01*
X511352Y72589D01*
X511385Y72553D01*
X511415Y72515D01*
X511442Y72474D01*
X511466Y72432D01*
X511487Y72388D01*
X511504Y72342D01*
X511517Y72295D01*
X511526Y72247D01*
X511532Y72199D01*
X511534Y72150D01*
X511532Y72101D01*
X511526Y72053D01*
X511517Y72005D01*
X511504Y71958D01*
X511487Y71912D01*
X511466Y71868D01*
X511442Y71826D01*
X511415Y71785D01*
X511385Y71747D01*
X511352Y71711D01*
X511316Y71678D01*
X511278Y71648D01*
X511237Y71621D01*
X511195Y71597D01*
X511151Y71576D01*
X511105Y71559D01*
X511058Y71546D01*
X511010Y71537D01*
X510962Y71531D01*
X510913Y71529D01*
X512748Y72461D02*
X512748Y72771D01*
X514300Y72771D01*
X513524Y69977D01*
X515336Y69977D02*
X516267Y72771D01*
X517198Y69977D01*
X516965Y70676D02*
X515568Y70676D01*
X518234Y69977D02*
X519010Y69977D01*
X519065Y69979D01*
X519120Y69985D01*
X519175Y69995D01*
X519229Y70008D01*
X519281Y70026D01*
X519332Y70047D01*
X519382Y70072D01*
X519430Y70100D01*
X519475Y70132D01*
X519518Y70167D01*
X519559Y70204D01*
X519596Y70245D01*
X519631Y70288D01*
X519663Y70333D01*
X519691Y70381D01*
X519716Y70431D01*
X519737Y70482D01*
X519755Y70534D01*
X519768Y70588D01*
X519778Y70643D01*
X519784Y70698D01*
X519786Y70753D01*
X519784Y70808D01*
X519778Y70863D01*
X519768Y70918D01*
X519755Y70972D01*
X519737Y71024D01*
X519716Y71075D01*
X519691Y71125D01*
X519663Y71173D01*
X519631Y71218D01*
X519596Y71261D01*
X519559Y71302D01*
X519518Y71339D01*
X519475Y71374D01*
X519430Y71406D01*
X519382Y71434D01*
X519332Y71459D01*
X519281Y71480D01*
X519229Y71498D01*
X519175Y71511D01*
X519120Y71521D01*
X519065Y71527D01*
X519010Y71529D01*
X519165Y72771D02*
X518234Y72771D01*
X519165Y72771D02*
X519214Y72769D01*
X519262Y72763D01*
X519310Y72754D01*
X519357Y72741D01*
X519403Y72724D01*
X519447Y72703D01*
X519489Y72679D01*
X519530Y72652D01*
X519568Y72622D01*
X519604Y72589D01*
X519637Y72553D01*
X519667Y72515D01*
X519694Y72474D01*
X519718Y72432D01*
X519739Y72388D01*
X519756Y72342D01*
X519769Y72295D01*
X519778Y72247D01*
X519784Y72199D01*
X519786Y72150D01*
X519784Y72101D01*
X519778Y72053D01*
X519769Y72005D01*
X519756Y71958D01*
X519739Y71912D01*
X519718Y71868D01*
X519694Y71826D01*
X519667Y71785D01*
X519637Y71747D01*
X519604Y71711D01*
X519568Y71678D01*
X519530Y71648D01*
X519489Y71621D01*
X519447Y71597D01*
X519403Y71576D01*
X519357Y71559D01*
X519310Y71546D01*
X519262Y71537D01*
X519214Y71531D01*
X519165Y71529D01*
X518544Y71529D01*
X520977Y70598D02*
X521598Y72771D01*
X520977Y70598D02*
X522529Y70598D01*
X522064Y71219D02*
X522064Y69977D01*
X523720Y69977D02*
X524496Y69977D01*
X524551Y69979D01*
X524606Y69985D01*
X524661Y69995D01*
X524715Y70008D01*
X524767Y70026D01*
X524818Y70047D01*
X524868Y70072D01*
X524916Y70100D01*
X524961Y70132D01*
X525004Y70167D01*
X525045Y70204D01*
X525082Y70245D01*
X525117Y70288D01*
X525149Y70333D01*
X525177Y70381D01*
X525202Y70431D01*
X525223Y70482D01*
X525241Y70534D01*
X525254Y70588D01*
X525264Y70643D01*
X525270Y70698D01*
X525272Y70753D01*
X525270Y70808D01*
X525264Y70863D01*
X525254Y70918D01*
X525241Y70972D01*
X525223Y71024D01*
X525202Y71075D01*
X525177Y71125D01*
X525149Y71173D01*
X525117Y71218D01*
X525082Y71261D01*
X525045Y71302D01*
X525004Y71339D01*
X524961Y71374D01*
X524916Y71406D01*
X524868Y71434D01*
X524818Y71459D01*
X524767Y71480D01*
X524715Y71498D01*
X524661Y71511D01*
X524606Y71521D01*
X524551Y71527D01*
X524496Y71529D01*
X524652Y72771D02*
X523720Y72771D01*
X524652Y72771D02*
X524701Y72769D01*
X524749Y72763D01*
X524797Y72754D01*
X524844Y72741D01*
X524890Y72724D01*
X524934Y72703D01*
X524976Y72679D01*
X525017Y72652D01*
X525055Y72622D01*
X525091Y72589D01*
X525124Y72553D01*
X525154Y72515D01*
X525181Y72474D01*
X525205Y72432D01*
X525226Y72388D01*
X525243Y72342D01*
X525256Y72295D01*
X525265Y72247D01*
X525271Y72199D01*
X525273Y72150D01*
X525271Y72101D01*
X525265Y72053D01*
X525256Y72005D01*
X525243Y71958D01*
X525226Y71912D01*
X525205Y71868D01*
X525181Y71826D01*
X525154Y71785D01*
X525124Y71747D01*
X525091Y71711D01*
X525055Y71678D01*
X525017Y71648D01*
X524976Y71621D01*
X524934Y71597D01*
X524890Y71576D01*
X524844Y71559D01*
X524797Y71546D01*
X524749Y71537D01*
X524701Y71531D01*
X524652Y71529D01*
X524031Y71529D01*
D14*
X112310Y41969D02*
X111944Y41782D01*
X111574Y41604D01*
X111199Y41436D01*
X110820Y41276D01*
X110437Y41126D01*
X110051Y40985D01*
X109662Y40853D01*
X109269Y40731D01*
X108874Y40618D01*
X108476Y40515D01*
X108076Y40422D01*
X107673Y40338D01*
X107269Y40265D01*
X106863Y40201D01*
X106455Y40147D01*
X106046Y40102D01*
X105637Y40068D01*
X105226Y40044D01*
X104816Y40029D01*
X104405Y40025D01*
X103994Y40031D01*
X103583Y40046D01*
X103172Y40072D01*
X102763Y40107D01*
X102354Y40152D01*
X101947Y40208D01*
X101541Y40273D01*
X101137Y40347D01*
X100735Y40432D01*
X100335Y40527D01*
X99937Y40631D01*
X99542Y40744D01*
X99150Y40868D01*
X98761Y41000D01*
X98375Y41142D01*
X97993Y41294D01*
X97614Y41454D01*
X97240Y41624D01*
X96870Y41803D01*
X96504Y41991D01*
X96143Y42187D01*
X95787Y42392D01*
X95436Y42606D01*
X95090Y42828D01*
X94750Y43059D01*
X94415Y43298D01*
X94086Y43545D01*
X93764Y43799D01*
X93447Y44062D01*
X93137Y44332D01*
X92834Y44609D01*
X92537Y44894D01*
X92248Y45186D01*
X91965Y45484D01*
X91690Y45790D01*
X91423Y46102D01*
X91163Y46421D01*
X90911Y46745D01*
X90667Y47076D01*
X90431Y47413D01*
X90203Y47755D01*
X89984Y48102D01*
X89773Y48455D01*
X89570Y48813D01*
X89377Y49176D01*
X89192Y49543D01*
X89016Y49914D01*
X88849Y50290D01*
X88692Y50670D01*
X88543Y51053D01*
X112310Y41969D02*
X120127Y47145D01*
X120232Y47144D02*
X122429Y48518D01*
X124658Y49837D01*
X126918Y51102D01*
X129209Y52312D01*
X131528Y53466D01*
X133874Y54563D01*
X136247Y55602D01*
X138644Y56584D01*
X141064Y57507D01*
X143506Y58371D01*
X145968Y59176D01*
X148449Y59921D01*
X150948Y60605D01*
X153462Y61228D01*
X155991Y61790D01*
X158532Y62290D01*
X161085Y62728D01*
X163648Y63105D01*
X166219Y63418D01*
X168798Y63670D01*
X171381Y63858D01*
X173968Y63984D01*
X176558Y64047D01*
X179148Y64047D01*
X181738Y63984D01*
X184325Y63858D01*
X186908Y63670D01*
X189487Y63418D01*
X192058Y63105D01*
X194621Y62728D01*
X197174Y62290D01*
X199715Y61790D01*
X202244Y61228D01*
X204758Y60605D01*
X207257Y59921D01*
X209738Y59176D01*
X212200Y58371D01*
X214642Y57507D01*
X217062Y56584D01*
X219459Y55602D01*
X221832Y54563D01*
X224178Y53466D01*
X226497Y52312D01*
X228788Y51102D01*
X231048Y49837D01*
X233277Y48518D01*
X235474Y47144D01*
X235368Y47145D02*
X243184Y41969D01*
X243184Y41968D02*
X243551Y41782D01*
X243921Y41604D01*
X244296Y41436D01*
X244675Y41276D01*
X245058Y41126D01*
X245444Y40986D01*
X245833Y40854D01*
X246226Y40732D01*
X246621Y40620D01*
X247019Y40517D01*
X247419Y40424D01*
X247822Y40340D01*
X248226Y40267D01*
X248632Y40203D01*
X249039Y40149D01*
X249448Y40105D01*
X249858Y40071D01*
X250268Y40047D01*
X250679Y40032D01*
X251090Y40028D01*
X251501Y40034D01*
X251911Y40049D01*
X252321Y40075D01*
X252731Y40110D01*
X253139Y40156D01*
X253547Y40211D01*
X253952Y40276D01*
X254357Y40351D01*
X254759Y40436D01*
X255159Y40530D01*
X255556Y40634D01*
X255951Y40748D01*
X256343Y40871D01*
X256732Y41004D01*
X257118Y41146D01*
X257500Y41297D01*
X257878Y41458D01*
X258253Y41628D01*
X258623Y41806D01*
X258988Y41994D01*
X259349Y42190D01*
X259706Y42396D01*
X260057Y42609D01*
X260402Y42831D01*
X260743Y43062D01*
X261077Y43301D01*
X261406Y43547D01*
X261729Y43802D01*
X262045Y44064D01*
X262355Y44334D01*
X262658Y44611D01*
X262955Y44896D01*
X263245Y45188D01*
X263527Y45486D01*
X263802Y45792D01*
X264070Y46104D01*
X264329Y46422D01*
X264582Y46747D01*
X264826Y47077D01*
X265062Y47413D01*
X265290Y47755D01*
X265509Y48103D01*
X265721Y48456D01*
X265923Y48813D01*
X266117Y49176D01*
X266302Y49543D01*
X266478Y49914D01*
X266645Y50290D01*
X266802Y50669D01*
X266951Y51052D01*
X266951Y51053D02*
X278570Y82108D01*
X283640Y82108D01*
X283640Y172315D02*
X278570Y172315D01*
X282161Y175801D01*
X254909Y204532D01*
X251318Y201046D01*
X104282Y201046D01*
X100585Y204532D01*
X73333Y175801D01*
X77030Y172315D01*
X71854Y172315D01*
X71854Y82108D02*
X77030Y82108D01*
X88544Y51053D01*
D10*
X443484Y318008D02*
X470916Y318008D01*
X470916Y367792D02*
X460248Y367792D01*
X454152Y367792D01*
X443484Y367792D01*
X454152Y367792D02*
X454154Y367683D01*
X454160Y367575D01*
X454169Y367466D01*
X454183Y367358D01*
X454200Y367251D01*
X454222Y367144D01*
X454247Y367038D01*
X454275Y366933D01*
X454308Y366829D01*
X454344Y366727D01*
X454384Y366626D01*
X454427Y366526D01*
X454474Y366428D01*
X454525Y366331D01*
X454579Y366237D01*
X454636Y366144D01*
X454696Y366054D01*
X454760Y365965D01*
X454827Y365879D01*
X454896Y365796D01*
X454969Y365715D01*
X455045Y365637D01*
X455123Y365561D01*
X455204Y365488D01*
X455287Y365419D01*
X455373Y365352D01*
X455462Y365288D01*
X455552Y365228D01*
X455645Y365171D01*
X455739Y365117D01*
X455836Y365066D01*
X455934Y365019D01*
X456034Y364976D01*
X456135Y364936D01*
X456237Y364900D01*
X456341Y364867D01*
X456446Y364839D01*
X456552Y364814D01*
X456659Y364792D01*
X456766Y364775D01*
X456874Y364761D01*
X456983Y364752D01*
X457091Y364746D01*
X457200Y364744D01*
X457309Y364746D01*
X457417Y364752D01*
X457526Y364761D01*
X457634Y364775D01*
X457741Y364792D01*
X457848Y364814D01*
X457954Y364839D01*
X458059Y364867D01*
X458163Y364900D01*
X458265Y364936D01*
X458366Y364976D01*
X458466Y365019D01*
X458564Y365066D01*
X458661Y365117D01*
X458755Y365171D01*
X458848Y365228D01*
X458938Y365288D01*
X459027Y365352D01*
X459113Y365419D01*
X459196Y365488D01*
X459277Y365561D01*
X459355Y365637D01*
X459431Y365715D01*
X459504Y365796D01*
X459573Y365879D01*
X459640Y365965D01*
X459704Y366054D01*
X459764Y366144D01*
X459821Y366237D01*
X459875Y366331D01*
X459926Y366428D01*
X459973Y366526D01*
X460016Y366626D01*
X460056Y366727D01*
X460092Y366829D01*
X460125Y366933D01*
X460153Y367038D01*
X460178Y367144D01*
X460200Y367251D01*
X460217Y367358D01*
X460231Y367466D01*
X460240Y367575D01*
X460246Y367683D01*
X460248Y367792D01*
D15*
X428209Y371292D02*
X428209Y375271D01*
X428209Y371292D02*
X430530Y368307D01*
X428209Y371292D02*
X425887Y368307D01*
X428209Y371292D02*
X431856Y372618D01*
X428209Y371292D02*
X424561Y372618D01*
M02*
